STARTFONT 2.1
FONT -FontForge-Bellota Text-Bold-R-Normal--21-200-75-75-P-119-ISO10646-1
SIZE 20 75 75
FONTBOUNDINGBOX 39 31 -11 -6
COMMENT "Generated by fontforge, http://fontforge.sourceforge.net"
COMMENT "Copyright 2019 The Bellota Project Authors (https://github.com/kemie/Bellota-Font)"
STARTPROPERTIES 40
FOUNDRY "FontForge"
FAMILY_NAME "Bellota Text"
WEIGHT_NAME "Bold"
SLANT "R"
SETWIDTH_NAME "Normal"
ADD_STYLE_NAME ""
PIXEL_SIZE 21
POINT_SIZE 200
RESOLUTION_X 75
RESOLUTION_Y 75
SPACING "P"
AVERAGE_WIDTH 119
CHARSET_REGISTRY "ISO10646"
CHARSET_ENCODING "1"
FONTNAME_REGISTRY ""
CHARSET_COLLECTIONS "ISO8859-2 ISO8859-5 ISO8859-9 ISO8859-4 ISO10646-1"
FONT_NAME "BellotaText-Bold"
FACE_NAME "Bellota Text Bold"
COPYRIGHT "Copyright 2019 The Bellota Project Authors (https://github.com/kemie/Bellota-Font)"
FONT_VERSION "4.001"
FONT_ASCENT 17
FONT_DESCENT 4
UNDERLINE_POSITION -1
UNDERLINE_THICKNESS 2
X_HEIGHT 10
CAP_HEIGHT 14
DEFAULT_CHAR 1
RAW_ASCENT 800
RAW_DESCENT 200
NORM_SPACE 6
RELATIVE_WEIGHT 70
RELATIVE_SETWIDTH 50
SUPERSCRIPT_X 0
SUPERSCRIPT_Y 7
SUPERSCRIPT_SIZE 12
SUBSCRIPT_X 0
SUBSCRIPT_Y 1
SUBSCRIPT_SIZE 12
AVG_LOWERCASE_WIDTH 109
AVG_UPPERCASE_WIDTH 142
ENDPROPERTIES
CHARS 1300
STARTCHAR NULL
ENCODING 0
SWIDTH 0 0
DWIDTH 0 0
BBX 1 1 0 0
BITMAP
00
ENDCHAR
STARTCHAR nonmarkingreturn
ENCODING 13
SWIDTH 290 0
DWIDTH 6 0
BBX 1 1 0 0
BITMAP
00
ENDCHAR
STARTCHAR space
ENCODING 32
SWIDTH 290 0
DWIDTH 6 0
BBX 1 1 0 0
BITMAP
00
ENDCHAR
STARTCHAR exclam
ENCODING 33
SWIDTH 266 0
DWIDTH 6 0
BBX 2 15 2 0
BITMAP
C0
C0
C0
C0
C0
C0
C0
C0
C0
C0
C0
C0
00
C0
C0
ENDCHAR
STARTCHAR quotedbl
ENCODING 34
SWIDTH 402 0
DWIDTH 8 0
BBX 5 4 2 11
BITMAP
D8
D8
D0
D0
ENDCHAR
STARTCHAR numbersign
ENCODING 35
SWIDTH 620 0
DWIDTH 13 0
BBX 11 13 1 1
BITMAP
3180
3180
3180
FFE0
FFE0
3180
3180
3180
FFE0
FFE0
3180
3180
3180
ENDCHAR
STARTCHAR dollar
ENCODING 36
SWIDTH 607 0
DWIDTH 13 0
BBX 10 18 1 -2
BITMAP
0C00
0C00
1F00
3FC0
6CC0
6C00
6C00
3C00
1E00
0F80
0DC0
0CC0
0CC0
4CC0
FDC0
3F00
0C00
0C00
ENDCHAR
STARTCHAR percent
ENCODING 37
SWIDTH 812 0
DWIDTH 17 0
BBX 15 11 1 0
BITMAP
3860
7CC0
C4C0
C580
7D80
3938
037C
0246
0646
067C
0C38
ENDCHAR
STARTCHAR ampersand
ENCODING 38
SWIDTH 673 0
DWIDTH 14 0
BBX 12 14 1 0
BITMAP
0400
1F00
3100
2000
2000
3000
3860
7C60
6660
C360
C1C0
60E0
7FF0
1E20
ENDCHAR
STARTCHAR quotesingle
ENCODING 39
SWIDTH 269 0
DWIDTH 6 0
BBX 2 4 2 11
BITMAP
C0
C0
C0
C0
ENDCHAR
STARTCHAR parenleft
ENCODING 40
SWIDTH 380 0
DWIDTH 8 0
BBX 6 19 1 -3
BITMAP
04
0C
18
30
60
60
C0
C0
C0
C0
C0
C0
C0
40
60
70
30
18
0C
ENDCHAR
STARTCHAR parenright
ENCODING 41
SWIDTH 380 0
DWIDTH 8 0
BBX 6 19 1 -3
BITMAP
80
E0
70
30
18
18
0C
0C
0C
0C
0C
0C
0C
18
18
30
70
E0
80
ENDCHAR
STARTCHAR asterisk
ENCODING 42
SWIDTH 416 0
DWIDTH 9 0
BBX 7 6 1 9
BITMAP
30
92
FE
78
78
6C
ENDCHAR
STARTCHAR plus
ENCODING 43
SWIDTH 516 0
DWIDTH 11 0
BBX 8 8 1 3
BITMAP
08
08
08
FF
FF
08
08
08
ENDCHAR
STARTCHAR comma
ENCODING 44
SWIDTH 249 0
DWIDTH 5 0
BBX 3 4 1 -2
BITMAP
60
60
60
C0
ENDCHAR
STARTCHAR hyphen
ENCODING 45
SWIDTH 461 0
DWIDTH 10 0
BBX 6 2 2 6
BITMAP
FC
FC
ENDCHAR
STARTCHAR period
ENCODING 46
SWIDTH 258 0
DWIDTH 5 0
BBX 2 2 2 0
BITMAP
C0
C0
ENDCHAR
STARTCHAR slash
ENCODING 47
SWIDTH 333 0
DWIDTH 7 0
BBX 7 18 0 -1
BITMAP
06
04
0C
0C
0C
08
18
18
18
10
30
30
30
60
60
60
60
C0
ENDCHAR
STARTCHAR zero
ENCODING 48
SWIDTH 653 0
DWIDTH 14 0
BBX 12 14 1 0
BITMAP
0F00
3FC0
60C0
6060
C020
C020
C030
C030
C030
C060
6060
60C0
3FC0
0F00
ENDCHAR
STARTCHAR one
ENCODING 49
SWIDTH 370 0
DWIDTH 8 0
BBX 5 15 1 0
BITMAP
08
18
78
F8
98
18
18
18
18
18
18
18
18
18
18
ENDCHAR
STARTCHAR two
ENCODING 50
SWIDTH 536 0
DWIDTH 11 0
BBX 9 14 1 0
BITMAP
3E00
7F00
C180
C180
0180
0300
0300
0E00
1C00
3800
6000
C000
FF80
FF80
ENDCHAR
STARTCHAR three
ENCODING 51
SWIDTH 546 0
DWIDTH 11 0
BBX 9 15 1 0
BITMAP
3E00
7F00
4100
0180
0180
0300
3F00
3F00
0380
0180
0080
0080
8180
FF00
3E00
ENDCHAR
STARTCHAR four
ENCODING 52
SWIDTH 539 0
DWIDTH 11 0
BBX 10 14 1 0
BITMAP
0C00
1800
1800
1000
3000
3300
6300
6300
C300
C300
FFC0
FFC0
0300
0300
ENDCHAR
STARTCHAR five
ENCODING 53
SWIDTH 529 0
DWIDTH 11 0
BBX 9 14 1 0
BITMAP
7F00
7F00
4000
4000
5800
7F00
8300
0180
0180
0180
0180
4180
FF00
3E00
ENDCHAR
STARTCHAR six
ENCODING 54
SWIDTH 575 0
DWIDTH 12 0
BBX 10 14 1 0
BITMAP
0380
0F80
3800
3000
6400
DF00
F180
C0C0
C0C0
C0C0
C0C0
60C0
3F80
1E00
ENDCHAR
STARTCHAR seven
ENCODING 55
SWIDTH 498 0
DWIDTH 10 0
BBX 9 14 1 0
BITMAP
FF80
FF80
0300
0300
0600
0600
0600
0C00
0C00
1800
1800
1800
3000
7000
ENDCHAR
STARTCHAR eight
ENCODING 56
SWIDTH 554 0
DWIDTH 12 0
BBX 10 14 1 0
BITMAP
1E00
7F00
6180
6180
6180
7B00
3F00
6380
C180
C0C0
C0C0
C180
7F80
3E00
ENDCHAR
STARTCHAR nine
ENCODING 57
SWIDTH 575 0
DWIDTH 12 0
BBX 10 14 1 0
BITMAP
1E00
7F80
E180
C0C0
C0C0
C0C0
C0C0
61C0
3EC0
0980
0380
0700
7C00
7800
ENDCHAR
STARTCHAR colon
ENCODING 58
SWIDTH 247 0
DWIDTH 5 0
BBX 3 10 1 0
BITMAP
E0
60
00
00
00
00
00
00
E0
60
ENDCHAR
STARTCHAR semicolon
ENCODING 59
SWIDTH 246 0
DWIDTH 5 0
BBX 3 12 1 -2
BITMAP
60
60
00
00
00
00
00
00
60
40
40
C0
ENDCHAR
STARTCHAR less
ENCODING 60
SWIDTH 515 0
DWIDTH 11 0
BBX 8 9 1 1
BITMAP
01
07
3E
F0
E0
78
1E
07
01
ENDCHAR
STARTCHAR equal
ENCODING 61
SWIDTH 596 0
DWIDTH 13 0
BBX 8 5 2 4
BITMAP
FF
FF
00
FF
FF
ENDCHAR
STARTCHAR greater
ENCODING 62
SWIDTH 518 0
DWIDTH 11 0
BBX 7 9 2 1
BITMAP
80
E0
78
0E
06
1E
78
C0
80
ENDCHAR
STARTCHAR question
ENCODING 63
SWIDTH 472 0
DWIDTH 10 0
BBX 8 15 1 0
BITMAP
7C
FE
83
C3
83
03
06
0C
38
60
60
60
00
70
20
ENDCHAR
STARTCHAR at
ENCODING 64
SWIDTH 747 0
DWIDTH 16 0
BBX 12 13 2 -1
BITMAP
1F80
3FC0
6060
CF30
DF30
9330
9330
9330
DFF0
C4E0
6040
3FE0
1F80
ENDCHAR
STARTCHAR A
ENCODING 65
SWIDTH 681 0
DWIDTH 14 0
BBX 13 15 1 0
BITMAP
0200
0600
0700
0F00
0F00
0980
1980
18C0
30C0
3FC0
7FE0
6060
6030
C030
C018
ENDCHAR
STARTCHAR B
ENCODING 66
SWIDTH 615 0
DWIDTH 13 0
BBX 10 15 2 0
BITMAP
FE00
FF00
C180
C180
C180
C180
FF00
FF00
C180
C0C0
C0C0
C0C0
C180
FF80
FE00
ENDCHAR
STARTCHAR C
ENCODING 67
SWIDTH 716 0
DWIDTH 15 0
BBX 13 15 1 0
BITMAP
07C0
1FF0
3030
6010
6000
C000
C000
C000
C000
C000
4000
6008
3038
1FF0
07C0
ENDCHAR
STARTCHAR D
ENCODING 68
SWIDTH 735 0
DWIDTH 15 0
BBX 12 15 2 0
BITMAP
FF00
FFC0
C060
C060
C030
C030
C010
C010
C010
C030
C030
C060
C0E0
FFC0
FF00
ENDCHAR
STARTCHAR E
ENCODING 69
SWIDTH 607 0
DWIDTH 13 0
BBX 10 15 2 0
BITMAP
FF80
FF80
C000
C000
C000
C000
FE00
FE00
C000
C000
C000
C000
C000
FFC0
FFC0
ENDCHAR
STARTCHAR F
ENCODING 70
SWIDTH 579 0
DWIDTH 12 0
BBX 9 15 2 0
BITMAP
FF80
FF80
C000
C000
C000
C000
FF00
FF00
C000
C000
C000
C000
C000
C000
C000
ENDCHAR
STARTCHAR G
ENCODING 71
SWIDTH 730 0
DWIDTH 15 0
BBX 13 15 1 0
BITMAP
07C0
1FE0
3030
6010
6000
C000
C000
C1F8
C1F8
C008
4018
6018
3030
1FE0
0FC0
ENDCHAR
STARTCHAR H
ENCODING 72
SWIDTH 693 0
DWIDTH 15 0
BBX 11 15 2 0
BITMAP
C060
C060
C060
C060
C060
C060
FFE0
FFE0
C060
C060
C060
C060
C060
C060
C060
ENDCHAR
STARTCHAR I
ENCODING 73
SWIDTH 276 0
DWIDTH 6 0
BBX 2 15 2 0
BITMAP
C0
C0
C0
C0
C0
C0
C0
C0
C0
C0
C0
C0
C0
C0
C0
ENDCHAR
STARTCHAR J
ENCODING 74
SWIDTH 517 0
DWIDTH 11 0
BBX 8 15 1 0
BITMAP
03
03
03
03
03
03
03
03
03
03
03
83
C3
7E
3C
ENDCHAR
STARTCHAR K
ENCODING 75
SWIDTH 634 0
DWIDTH 13 0
BBX 11 15 2 0
BITMAP
C1C0
C180
C300
C300
C600
C600
CC00
F800
EC00
CC00
C600
C300
C180
C1C0
C0E0
ENDCHAR
STARTCHAR L
ENCODING 76
SWIDTH 549 0
DWIDTH 12 0
BBX 9 15 2 0
BITMAP
C000
C000
C000
C000
C000
C000
C000
C000
C000
C000
C000
C000
C000
FF80
FF80
ENDCHAR
STARTCHAR M
ENCODING 77
SWIDTH 824 0
DWIDTH 17 0
BBX 13 15 2 0
BITMAP
8008
C018
E018
E038
F068
D8E8
DCC8
CF88
C708
C208
C008
C008
C008
C008
C008
ENDCHAR
STARTCHAR N
ENCODING 78
SWIDTH 751 0
DWIDTH 16 0
BBX 12 15 2 0
BITMAP
8030
C030
E030
E030
F030
D830
CC30
CE30
C630
C330
C1B0
C0F0
C070
C070
C030
ENDCHAR
STARTCHAR O
ENCODING 79
SWIDTH 795 0
DWIDTH 17 0
BBX 15 15 1 0
BITMAP
07C0
1FF0
3038
601C
600C
C004
C004
C006
C004
C004
600C
600C
3038
1FF0
07C0
ENDCHAR
STARTCHAR P
ENCODING 80
SWIDTH 566 0
DWIDTH 12 0
BBX 9 15 2 0
BITMAP
FE00
FF00
C100
C180
C180
C180
C180
C300
FE00
F000
C000
C000
C000
C000
C000
ENDCHAR
STARTCHAR Q
ENCODING 81
SWIDTH 778 0
DWIDTH 16 0
BBX 14 19 1 -4
BITMAP
0FC0
1FF0
3038
6018
400C
C00C
C00C
C00C
C00C
C00C
400C
6018
3038
3FF0
0FC0
0400
0C00
1FF0
11E0
ENDCHAR
STARTCHAR R
ENCODING 82
SWIDTH 634 0
DWIDTH 13 0
BBX 11 15 2 0
BITMAP
FE00
FF00
C180
C180
C180
C180
C300
DF00
DC00
CC00
C600
C300
C180
C1C0
C0E0
ENDCHAR
STARTCHAR S
ENCODING 83
SWIDTH 557 0
DWIDTH 12 0
BBX 10 15 1 0
BITMAP
1E00
3F00
6180
6000
6000
3000
1C00
0700
0180
00C0
00C0
C0C0
C180
7F80
1E00
ENDCHAR
STARTCHAR T
ENCODING 84
SWIDTH 602 0
DWIDTH 13 0
BBX 11 15 1 0
BITMAP
FFE0
FFE0
0C00
0C00
0C00
0C00
0C00
0C00
0C00
0C00
0C00
0C00
0C00
0C00
0C00
ENDCHAR
STARTCHAR U
ENCODING 85
SWIDTH 706 0
DWIDTH 15 0
BBX 11 15 2 0
BITMAP
8060
8060
8060
8060
8060
8060
8060
8060
8060
8060
C060
C060
60C0
7F80
1F00
ENDCHAR
STARTCHAR V
ENCODING 86
SWIDTH 631 0
DWIDTH 13 0
BBX 12 15 1 0
BITMAP
8030
C060
4060
6040
60C0
20C0
3080
3180
1180
1900
1B00
0F00
0E00
0E00
0600
ENDCHAR
STARTCHAR W
ENCODING 87
SWIDTH 1027 0
DWIDTH 22 0
BBX 20 15 1 0
BITMAP
806030
C06020
40E060
60F060
60B040
2190C0
3198C0
3118C0
110880
130D80
1B0D80
1A0D00
0E0700
0E0700
0C0600
ENDCHAR
STARTCHAR X
ENCODING 88
SWIDTH 631 0
DWIDTH 13 0
BBX 12 15 1 0
BITMAP
C060
60C0
6180
3180
1B00
1F00
0E00
0C00
1E00
1B00
3300
3180
60C0
60E0
C070
ENDCHAR
STARTCHAR Y
ENCODING 89
SWIDTH 565 0
DWIDTH 12 0
BBX 10 15 1 0
BITMAP
C0C0
C080
6180
6300
3300
3600
1E00
1C00
0C00
0C00
0C00
0C00
0C00
0C00
0C00
ENDCHAR
STARTCHAR Z
ENCODING 90
SWIDTH 564 0
DWIDTH 12 0
BBX 10 15 1 0
BITMAP
FFC0
FF80
0100
0300
0600
0600
0C00
0C00
1800
1800
3000
2000
6000
FFC0
FFC0
ENDCHAR
STARTCHAR bracketleft
ENCODING 91
SWIDTH 384 0
DWIDTH 8 0
BBX 5 20 2 -4
BITMAP
F8
F8
C0
C0
C0
C0
C0
C0
C0
C0
C0
C0
C0
C0
C0
C0
C0
C0
F8
F8
ENDCHAR
STARTCHAR backslash
ENCODING 92
SWIDTH 333 0
DWIDTH 7 0
BBX 7 18 0 -1
BITMAP
C0
40
60
60
60
20
30
30
30
10
18
18
18
0C
0C
0C
0C
06
ENDCHAR
STARTCHAR bracketright
ENCODING 93
SWIDTH 384 0
DWIDTH 8 0
BBX 5 20 1 -4
BITMAP
F8
F8
18
18
18
18
18
18
18
18
18
18
18
18
18
18
18
18
F8
F8
ENDCHAR
STARTCHAR asciicircum
ENCODING 94
SWIDTH 511 0
DWIDTH 11 0
BBX 8 7 1 6
BITMAP
08
1C
3C
36
63
C3
01
ENDCHAR
STARTCHAR underscore
ENCODING 95
SWIDTH 600 0
DWIDTH 13 0
BBX 9 2 2 -3
BITMAP
FF80
FF80
ENDCHAR
STARTCHAR grave
ENCODING 96
SWIDTH 252 0
DWIDTH 5 0
BBX 5 5 0 11
BITMAP
40
E0
30
18
10
ENDCHAR
STARTCHAR a
ENCODING 97
SWIDTH 504 0
DWIDTH 11 0
BBX 9 11 1 0
BITMAP
3E00
FF00
4300
0300
3F00
FF00
C300
8300
C300
FF00
7D80
ENDCHAR
STARTCHAR b
ENCODING 98
SWIDTH 549 0
DWIDTH 12 0
BBX 9 15 2 0
BITMAP
8000
8000
8000
8000
BC00
FE00
C300
8100
8180
8180
8180
8100
8300
FE00
FC00
ENDCHAR
STARTCHAR c
ENCODING 99
SWIDTH 491 0
DWIDTH 10 0
BBX 9 11 1 0
BITMAP
1E00
7F00
6100
C000
C000
C000
C000
C000
C080
7F80
1E00
ENDCHAR
STARTCHAR d
ENCODING 100
SWIDTH 554 0
DWIDTH 12 0
BBX 10 15 1 0
BITMAP
0180
0180
0180
0180
1F80
7F80
6180
C180
C180
C180
C180
C180
C180
7F80
3CC0
ENDCHAR
STARTCHAR e
ENCODING 101
SWIDTH 521 0
DWIDTH 11 0
BBX 9 11 1 0
BITMAP
1E00
7F00
6180
C180
FF80
FF80
C000
C000
C100
7F80
3E00
ENDCHAR
STARTCHAR f
ENCODING 102
SWIDTH 348 0
DWIDTH 7 0
BBX 7 16 1 0
BITMAP
3C
3E
60
60
60
FC
FC
60
60
60
60
60
60
60
60
60
ENDCHAR
STARTCHAR g
ENCODING 103
SWIDTH 582 0
DWIDTH 12 0
BBX 11 16 1 -5
BITMAP
1FC0
3FC0
2080
60C0
6080
7F80
FF00
8000
8000
FE00
FFC0
C0E0
C060
C060
7FC0
3F00
ENDCHAR
STARTCHAR h
ENCODING 104
SWIDTH 550 0
DWIDTH 12 0
BBX 8 15 2 0
BITMAP
80
80
80
80
BE
FF
C3
83
83
83
83
83
83
83
83
ENDCHAR
STARTCHAR i
ENCODING 105
SWIDTH 236 0
DWIDTH 5 0
BBX 3 15 1 0
BITMAP
E0
40
00
00
40
40
40
40
40
40
40
40
40
40
40
ENDCHAR
STARTCHAR j
ENCODING 106
SWIDTH 237 0
DWIDTH 5 0
BBX 5 20 -1 -5
BITMAP
38
10
00
00
10
10
10
10
10
10
10
10
10
10
10
10
10
10
F0
70
ENDCHAR
STARTCHAR k
ENCODING 107
SWIDTH 518 0
DWIDTH 11 0
BBX 9 15 2 0
BITMAP
8000
8000
8000
8000
8200
8600
8600
8C00
FC00
F800
9800
8C00
8600
8300
8380
ENDCHAR
STARTCHAR l
ENCODING 108
SWIDTH 236 0
DWIDTH 5 0
BBX 1 15 2 0
BITMAP
80
80
80
80
80
80
80
80
80
80
80
80
80
80
80
ENDCHAR
STARTCHAR m
ENCODING 109
SWIDTH 809 0
DWIDTH 17 0
BBX 15 11 1 0
BITMAP
DE78
FFFC
6186
4186
4186
4186
4186
4186
4186
4186
4186
ENDCHAR
STARTCHAR n
ENCODING 110
SWIDTH 553 0
DWIDTH 12 0
BBX 9 11 1 0
BITMAP
CF00
FF80
6180
4180
4180
4180
4180
4180
4180
4180
4180
ENDCHAR
STARTCHAR o
ENCODING 111
SWIDTH 573 0
DWIDTH 12 0
BBX 10 11 1 0
BITMAP
1E00
7F80
6180
C0C0
C0C0
C040
C0C0
C0C0
6180
7F80
1E00
ENDCHAR
STARTCHAR p
ENCODING 112
SWIDTH 554 0
DWIDTH 12 0
BBX 10 16 1 -5
BITMAP
5E00
FF80
6180
60C0
40C0
40C0
40C0
4080
4180
7F00
7E00
4000
4000
4000
4000
4000
ENDCHAR
STARTCHAR q
ENCODING 113
SWIDTH 549 0
DWIDTH 12 0
BBX 9 16 1 -5
BITMAP
1F80
7F80
6180
C180
C180
C180
C180
C180
C180
7F80
3F80
0180
0180
0180
0180
0180
ENDCHAR
STARTCHAR r
ENCODING 114
SWIDTH 376 0
DWIDTH 8 0
BBX 7 11 1 0
BITMAP
DE
FC
60
40
40
40
40
40
40
40
40
ENDCHAR
STARTCHAR s
ENCODING 115
SWIDTH 438 0
DWIDTH 9 0
BBX 8 11 1 0
BITMAP
3C
7E
C0
C0
70
1C
06
03
83
FE
7C
ENDCHAR
STARTCHAR t
ENCODING 116
SWIDTH 348 0
DWIDTH 7 0
BBX 6 14 1 0
BITMAP
C0
C0
C0
F8
F8
C0
C0
C0
C0
C0
C0
40
78
3C
ENDCHAR
STARTCHAR u
ENCODING 117
SWIDTH 557 0
DWIDTH 12 0
BBX 10 11 1 0
BITMAP
C180
C180
C180
C180
C180
C180
C180
C180
C380
7EC0
3C80
ENDCHAR
STARTCHAR v
ENCODING 118
SWIDTH 499 0
DWIDTH 10 0
BBX 10 11 0 0
BITMAP
C0C0
60C0
2080
3180
3180
1300
1B00
1A00
0E00
0E00
0400
ENDCHAR
STARTCHAR w
ENCODING 119
SWIDTH 772 0
DWIDTH 16 0
BBX 16 11 0 0
BITMAP
C183
6182
61C6
33C6
3344
326C
166C
1E28
1E38
0C38
0C10
ENDCHAR
STARTCHAR x
ENCODING 120
SWIDTH 473 0
DWIDTH 10 0
BBX 9 11 0 0
BITMAP
E180
6300
3300
1E00
1E00
0C00
1E00
1E00
3300
6300
6180
ENDCHAR
STARTCHAR y
ENCODING 121
SWIDTH 493 0
DWIDTH 10 0
BBX 10 16 0 -5
BITMAP
C0C0
6080
6180
3180
3180
1300
1B00
1B00
0E00
0E00
0600
0400
0C00
0C00
7800
3000
ENDCHAR
STARTCHAR z
ENCODING 122
SWIDTH 463 0
DWIDTH 10 0
BBX 9 11 0 0
BITMAP
7F80
7F00
0300
0600
0E00
0C00
1800
3800
3000
7F80
FF80
ENDCHAR
STARTCHAR braceleft
ENCODING 123
SWIDTH 334 0
DWIDTH 7 0
BBX 5 20 1 -4
BITMAP
18
38
60
60
60
60
60
60
60
C0
E0
60
60
60
60
60
60
60
38
08
ENDCHAR
STARTCHAR bar
ENCODING 124
SWIDTH 316 0
DWIDTH 7 0
BBX 2 18 2 -1
BITMAP
C0
C0
C0
C0
C0
C0
C0
C0
C0
C0
C0
C0
C0
C0
C0
C0
C0
C0
ENDCHAR
STARTCHAR braceright
ENCODING 125
SWIDTH 334 0
DWIDTH 7 0
BBX 5 20 1 -4
BITMAP
C0
E0
30
30
30
30
30
30
30
18
38
30
30
30
30
30
30
30
E0
80
ENDCHAR
STARTCHAR asciitilde
ENCODING 126
SWIDTH 577 0
DWIDTH 12 0
BBX 8 2 2 5
BITMAP
7F
FF
ENDCHAR
STARTCHAR uni00A0
ENCODING 160
SWIDTH 290 0
DWIDTH 6 0
BBX 1 1 0 0
BITMAP
00
ENDCHAR
STARTCHAR exclamdown
ENCODING 161
SWIDTH 267 0
DWIDTH 6 0
BBX 2 15 2 -4
BITMAP
C0
C0
00
C0
C0
C0
C0
C0
C0
C0
C0
C0
C0
C0
C0
ENDCHAR
STARTCHAR cent
ENCODING 162
SWIDTH 567 0
DWIDTH 12 0
BBX 9 16 2 -1
BITMAP
1800
1800
1C00
7E00
DB00
D900
9800
9800
9800
9800
D800
F900
7F80
1C00
1800
1800
ENDCHAR
STARTCHAR sterling
ENCODING 163
SWIDTH 559 0
DWIDTH 12 0
BBX 10 14 1 0
BITMAP
0FC0
1F80
3000
2000
2000
2000
FE00
FE00
2000
2000
2000
2000
7FC0
6F80
ENDCHAR
STARTCHAR currency
ENCODING 164
SWIDTH 726 0
DWIDTH 15 0
BBX 13 12 1 0
BITMAP
E018
7FB0
3FE0
3060
3020
3020
3030
3020
3060
3FE0
7FB0
E018
ENDCHAR
STARTCHAR yen
ENCODING 165
SWIDTH 671 0
DWIDTH 14 0
BBX 12 14 1 0
BITMAP
C030
6060
30C0
30C0
1980
0F00
7FE0
7FE0
0600
7FE0
7FE0
0600
0600
0600
ENDCHAR
STARTCHAR brokenbar
ENCODING 166
SWIDTH 316 0
DWIDTH 7 0
BBX 2 17 2 -1
BITMAP
C0
C0
C0
C0
C0
C0
C0
C0
00
C0
C0
C0
C0
C0
C0
C0
C0
ENDCHAR
STARTCHAR section
ENCODING 167
SWIDTH 442 0
DWIDTH 9 0
BBX 7 15 1 -1
BITMAP
1C
38
60
60
70
78
4C
C6
66
3E
1C
0C
0C
1C
78
ENDCHAR
STARTCHAR dieresis
ENCODING 168
SWIDTH 437 0
DWIDTH 9 0
BBX 7 2 1 12
BITMAP
CE
C4
ENDCHAR
STARTCHAR copyright
ENCODING 169
SWIDTH 760 0
DWIDTH 16 0
BBX 12 13 2 -1
BITMAP
1F80
3FC0
6060
CF30
9F30
9810
9010
9810
9FB0
CF30
6060
3FC0
1F80
ENDCHAR
STARTCHAR ordfeminine
ENCODING 170
SWIDTH 432 0
DWIDTH 9 0
BBX 8 7 1 8
BITMAP
3C
7C
CC
CC
CC
FF
7E
ENDCHAR
STARTCHAR guillemotleft
ENCODING 171
SWIDTH 589 0
DWIDTH 12 0
BBX 11 10 1 0
BITMAP
0CE0
19C0
3380
E600
CC00
C600
7300
3980
1CE0
0840
ENDCHAR
STARTCHAR logicalnot
ENCODING 172
SWIDTH 574 0
DWIDTH 12 0
BBX 8 4 2 3
BITMAP
FF
FF
03
03
ENDCHAR
STARTCHAR uni00AD
ENCODING 173
SWIDTH 461 0
DWIDTH 10 0
BBX 6 2 2 6
BITMAP
FC
FC
ENDCHAR
STARTCHAR registered
ENCODING 174
SWIDTH 760 0
DWIDTH 16 0
BBX 12 13 2 3
BITMAP
1F80
39C0
6060
CF30
8B10
8910
8F10
8E10
8B10
C9B0
68E0
70E0
1F80
ENDCHAR
STARTCHAR macron
ENCODING 175
SWIDTH 461 0
DWIDTH 10 0
BBX 7 2 1 12
BITMAP
FE
FE
ENDCHAR
STARTCHAR degree
ENCODING 176
SWIDTH 454 0
DWIDTH 10 0
BBX 6 6 2 8
BITMAP
70
F8
8C
8C
F8
70
ENDCHAR
STARTCHAR plusminus
ENCODING 177
SWIDTH 544 0
DWIDTH 11 0
BBX 8 11 2 0
BITMAP
18
18
18
18
FF
FF
18
18
00
FF
FF
ENDCHAR
STARTCHAR uni00B2
ENCODING 178
SWIDTH 324 0
DWIDTH 7 0
BBX 5 7 1 4
BITMAP
70
F8
98
30
60
F8
F8
ENDCHAR
STARTCHAR uni00B3
ENCODING 179
SWIDTH 321 0
DWIDTH 7 0
BBX 6 8 0 3
BITMAP
78
7C
3C
38
0C
4C
FC
30
ENDCHAR
STARTCHAR acute
ENCODING 180
SWIDTH 244 0
DWIDTH 5 0
BBX 4 4 1 12
BITMAP
30
60
C0
80
ENDCHAR
STARTCHAR uni00B5
ENCODING 181
SWIDTH 619 0
DWIDTH 13 0
BBX 10 16 2 -5
BITMAP
C180
C180
C180
C180
C180
C180
C180
C180
C380
FF80
FCC0
C000
C000
C000
C000
C000
ENDCHAR
STARTCHAR paragraph
ENCODING 182
SWIDTH 653 0
DWIDTH 14 0
BBX 10 13 1 0
BITMAP
1FC0
7FC0
7C40
FC40
FC40
7C40
7C40
1C40
0440
0440
0440
0440
0440
ENDCHAR
STARTCHAR periodcentered
ENCODING 183
SWIDTH 285 0
DWIDTH 6 0
BBX 2 3 2 5
BITMAP
C0
C0
C0
ENDCHAR
STARTCHAR cedilla
ENCODING 184
SWIDTH 256 0
DWIDTH 5 0
BBX 3 5 1 -5
BITMAP
C0
E0
20
60
60
ENDCHAR
STARTCHAR uni00B9
ENCODING 185
SWIDTH 236 0
DWIDTH 5 0
BBX 4 7 0 4
BITMAP
F0
70
30
30
30
30
30
ENDCHAR
STARTCHAR ordmasculine
ENCODING 186
SWIDTH 452 0
DWIDTH 9 0
BBX 7 7 1 8
BITMAP
3C
7E
C6
C6
C6
7E
3C
ENDCHAR
STARTCHAR guillemotright
ENCODING 187
SWIDTH 588 0
DWIDTH 12 0
BBX 11 10 1 0
BITMAP
CE00
6700
3380
18C0
0C60
1CC0
3980
6300
CE00
8400
ENDCHAR
STARTCHAR onequarter
ENCODING 188
SWIDTH 749 0
DWIDTH 16 0
BBX 15 11 0 0
BITMAP
F0C0
70C0
3080
3180
310C
3318
331C
0634
063E
043E
0C04
ENDCHAR
STARTCHAR onehalf
ENCODING 189
SWIDTH 764 0
DWIDTH 16 0
BBX 15 11 0 0
BITMAP
F0C0
70C0
3080
3180
311C
333E
3316
060E
0618
043E
0C3E
ENDCHAR
STARTCHAR threequarters
ENCODING 190
SWIDTH 834 0
DWIDTH 18 0
BBX 17 11 0 0
BITMAP
783000
7C2000
3C6000
386000
0CC600
4CC600
FC8500
318D00
010F80
031F80
030100
ENDCHAR
STARTCHAR questiondown
ENCODING 191
SWIDTH 472 0
DWIDTH 10 0
BBX 8 15 1 -4
BITMAP
0E
0C
00
06
06
04
1C
70
E0
C0
C2
C3
C3
7F
3E
ENDCHAR
STARTCHAR Agrave
ENCODING 192
SWIDTH 681 0
DWIDTH 14 0
BBX 13 19 1 0
BITMAP
1000
3800
0E00
0200
0200
0600
0700
0F00
0F00
0980
1980
18C0
30C0
3FC0
7FE0
6060
6030
C030
C018
ENDCHAR
STARTCHAR Aacute
ENCODING 193
SWIDTH 681 0
DWIDTH 14 0
BBX 13 19 1 0
BITMAP
00C0
01C0
0700
0200
0200
0600
0700
0F00
0F00
0980
1980
18C0
30C0
3FC0
7FE0
6060
6030
C030
C018
ENDCHAR
STARTCHAR Acircumflex
ENCODING 194
SWIDTH 681 0
DWIDTH 14 0
BBX 13 19 1 0
BITMAP
0200
0F00
19C0
0000
0200
0600
0700
0F00
0F00
0980
1980
18C0
30C0
3FC0
7FE0
6060
6030
C030
C018
ENDCHAR
STARTCHAR Atilde
ENCODING 195
SWIDTH 681 0
DWIDTH 14 0
BBX 13 18 1 0
BITMAP
1F80
1FC0
0000
0200
0600
0700
0F00
0F00
0980
1980
18C0
30C0
3FC0
7FE0
6060
6030
C030
C018
ENDCHAR
STARTCHAR Adieresis
ENCODING 196
SWIDTH 681 0
DWIDTH 14 0
BBX 13 18 1 0
BITMAP
19C0
1980
0000
0200
0600
0700
0F00
0F00
0980
1980
18C0
30C0
3FC0
7FE0
6060
6030
C030
C018
ENDCHAR
STARTCHAR Aring
ENCODING 197
SWIDTH 681 0
DWIDTH 14 0
BBX 13 21 1 0
BITMAP
0200
0F00
0900
0F00
0700
0000
0200
0600
0700
0F00
0F00
0980
1980
18C0
30C0
3FC0
7FE0
6060
6030
C030
C018
ENDCHAR
STARTCHAR AE
ENCODING 198
SWIDTH 894 0
DWIDTH 19 0
BBX 18 15 0 0
BITMAP
00FF80
00FF80
01E000
016000
036000
026000
067E00
0C7E00
0C6000
1FE000
1FE000
306000
306000
607FC0
E07FC0
ENDCHAR
STARTCHAR Ccedilla
ENCODING 199
SWIDTH 716 0
DWIDTH 15 0
BBX 13 20 1 -5
BITMAP
07C0
1FF0
3030
6010
6000
C000
C000
C000
C000
C000
4000
6008
3038
1FF0
0FC0
0300
0380
0180
0380
0300
ENDCHAR
STARTCHAR Egrave
ENCODING 200
SWIDTH 607 0
DWIDTH 13 0
BBX 10 19 2 0
BITMAP
2000
7000
1C00
0800
FF80
FF80
C000
C000
C000
C000
FE00
FE00
C000
C000
C000
C000
C000
FFC0
FFC0
ENDCHAR
STARTCHAR Eacute
ENCODING 201
SWIDTH 607 0
DWIDTH 13 0
BBX 10 19 2 0
BITMAP
0100
0380
0E00
0800
FF80
FF80
C000
C000
C000
C000
FE00
FE00
C000
C000
C000
C000
C000
FFC0
FFC0
ENDCHAR
STARTCHAR Ecircumflex
ENCODING 202
SWIDTH 607 0
DWIDTH 13 0
BBX 10 19 2 0
BITMAP
0C00
1E00
3380
0000
FF80
FF80
C000
C000
C000
C000
FE00
FE00
C000
C000
C000
C000
C000
FFC0
FFC0
ENDCHAR
STARTCHAR Edieresis
ENCODING 203
SWIDTH 607 0
DWIDTH 13 0
BBX 10 18 2 0
BITMAP
3300
3300
0000
FF80
FF80
C000
C000
C000
C000
FE00
FE00
C000
C000
C000
C000
C000
FFC0
FFC0
ENDCHAR
STARTCHAR Igrave
ENCODING 204
SWIDTH 276 0
DWIDTH 6 0
BBX 4 20 0 0
BITMAP
C0
60
60
30
00
30
30
30
30
30
30
30
30
30
30
30
30
30
30
30
ENDCHAR
STARTCHAR Iacute
ENCODING 205
SWIDTH 276 0
DWIDTH 6 0
BBX 4 21 2 0
BITMAP
20
30
60
40
C0
00
C0
C0
C0
C0
C0
C0
C0
C0
C0
C0
C0
C0
C0
C0
C0
ENDCHAR
STARTCHAR Icircumflex
ENCODING 206
SWIDTH 276 0
DWIDTH 6 0
BBX 6 19 0 0
BITMAP
30
78
CC
00
30
30
30
30
30
30
30
30
30
30
30
30
30
30
30
ENDCHAR
STARTCHAR Idieresis
ENCODING 207
SWIDTH 276 0
DWIDTH 6 0
BBX 6 18 0 0
BITMAP
CC
CC
00
30
30
30
30
30
30
30
30
30
30
30
30
30
30
30
ENDCHAR
STARTCHAR Eth
ENCODING 208
SWIDTH 735 0
DWIDTH 15 0
BBX 14 15 0 0
BITMAP
3FC0
3FF0
3018
3018
300C
300C
FE04
FE04
3004
300C
300C
3018
3038
3FF0
3FC0
ENDCHAR
STARTCHAR Ntilde
ENCODING 209
SWIDTH 751 0
DWIDTH 16 0
BBX 12 18 2 0
BITMAP
1F80
1FC0
0000
8030
C030
E030
E030
F030
D830
CC30
CE30
C630
C330
C1B0
C0F0
C070
C070
C030
ENDCHAR
STARTCHAR Ograve
ENCODING 210
SWIDTH 795 0
DWIDTH 17 0
BBX 15 19 1 0
BITMAP
0800
1E00
0700
0100
07C0
1FF0
3038
601C
600C
C004
C004
C006
C004
C004
600C
600C
3038
1FF0
07C0
ENDCHAR
STARTCHAR Oacute
ENCODING 211
SWIDTH 795 0
DWIDTH 17 0
BBX 15 19 1 0
BITMAP
0020
00E0
0180
0100
07C0
1FF0
3038
601C
600C
C004
C004
C006
C004
C004
600C
600C
3038
1FF0
07C0
ENDCHAR
STARTCHAR Ocircumflex
ENCODING 212
SWIDTH 795 0
DWIDTH 17 0
BBX 15 19 1 0
BITMAP
0100
0380
0EE0
0000
07C0
1FF0
3038
601C
600C
C004
C004
C006
C004
C004
600C
600C
3038
1FF0
07C0
ENDCHAR
STARTCHAR Otilde
ENCODING 213
SWIDTH 795 0
DWIDTH 17 0
BBX 15 18 1 0
BITMAP
07E0
0FC0
0000
07C0
1FF0
3038
601C
600C
C004
C004
C006
C004
C004
600C
600C
3038
1FF0
07C0
ENDCHAR
STARTCHAR Odieresis
ENCODING 214
SWIDTH 795 0
DWIDTH 17 0
BBX 15 18 1 0
BITMAP
0CE0
0C60
0000
07C0
1FF0
3038
601C
600C
C004
C004
C006
C004
C004
600C
600C
3038
1FF0
07C0
ENDCHAR
STARTCHAR multiply
ENCODING 215
SWIDTH 534 0
DWIDTH 11 0
BBX 9 9 1 1
BITMAP
4100
6380
3700
1E00
1C00
3E00
7300
E180
4100
ENDCHAR
STARTCHAR Oslash
ENCODING 216
SWIDTH 795 0
DWIDTH 17 0
BBX 15 16 1 -1
BITMAP
07F0
1FF0
3078
60DC
60CC
C084
C184
C106
C304
C204
660C
660C
3438
1FF0
0FC0
1800
ENDCHAR
STARTCHAR Ugrave
ENCODING 217
SWIDTH 706 0
DWIDTH 15 0
BBX 11 19 2 0
BITMAP
2000
7800
0C00
0400
8060
8060
8060
8060
8060
8060
8060
8060
8060
8060
C060
C060
60C0
7F80
1F00
ENDCHAR
STARTCHAR Uacute
ENCODING 218
SWIDTH 706 0
DWIDTH 15 0
BBX 11 19 2 0
BITMAP
0080
0380
0600
0400
8060
8060
8060
8060
8060
8060
8060
8060
8060
8060
C060
C060
60C0
7F80
1F00
ENDCHAR
STARTCHAR Ucircumflex
ENCODING 219
SWIDTH 706 0
DWIDTH 15 0
BBX 11 19 2 0
BITMAP
0400
0E00
3B80
0000
8060
8060
8060
8060
8060
8060
8060
8060
8060
8060
C060
C060
60C0
7F80
1F00
ENDCHAR
STARTCHAR Udieresis
ENCODING 220
SWIDTH 706 0
DWIDTH 15 0
BBX 11 18 2 0
BITMAP
3180
3180
0000
8060
8060
8060
8060
8060
8060
8060
8060
8060
8060
C060
C060
60C0
7F80
1F00
ENDCHAR
STARTCHAR Yacute
ENCODING 221
SWIDTH 565 0
DWIDTH 12 0
BBX 10 19 1 0
BITMAP
0100
0780
0E00
0800
C0C0
C080
6180
6300
3300
3600
1E00
1C00
0C00
0C00
0C00
0C00
0C00
0C00
0C00
ENDCHAR
STARTCHAR Thorn
ENCODING 222
SWIDTH 564 0
DWIDTH 12 0
BBX 9 15 2 0
BITMAP
C000
C000
C000
FE00
FF00
C180
C180
C180
C180
C300
FF00
FC00
C000
C000
C000
ENDCHAR
STARTCHAR germandbls
ENCODING 223
SWIDTH 568 0
DWIDTH 12 0
BBX 9 15 2 0
BITMAP
7800
FC00
C600
8600
8600
8C00
8C00
8E00
8300
8180
8080
8080
8180
9F80
9E00
ENDCHAR
STARTCHAR agrave
ENCODING 224
SWIDTH 504 0
DWIDTH 11 0
BBX 9 16 1 0
BITMAP
4000
E000
3000
1800
1000
3E00
FF00
4300
0300
3F00
FF00
C300
8300
C300
FF00
7D80
ENDCHAR
STARTCHAR aacute
ENCODING 225
SWIDTH 504 0
DWIDTH 11 0
BBX 9 16 1 0
BITMAP
0600
0C00
0C00
1800
0000
3E00
FF00
4300
0300
3F00
FF00
C300
8300
C300
FF00
7D80
ENDCHAR
STARTCHAR acircumflex
ENCODING 226
SWIDTH 504 0
DWIDTH 11 0
BBX 9 15 1 0
BITMAP
1800
3C00
6600
0000
3E00
FF00
4300
0300
3F00
FF00
C300
8300
C300
FF00
7D80
ENDCHAR
STARTCHAR atilde
ENCODING 227
SWIDTH 504 0
DWIDTH 11 0
BBX 9 14 1 0
BITMAP
7E00
FE00
0000
3E00
FF00
4300
0300
3F00
FF00
C300
8300
C300
FF00
7D80
ENDCHAR
STARTCHAR adieresis
ENCODING 228
SWIDTH 504 0
DWIDTH 11 0
BBX 9 14 1 0
BITMAP
E600
4600
0000
3E00
FF00
4300
0300
3F00
FF00
C300
8300
C300
FF00
7D80
ENDCHAR
STARTCHAR aring
ENCODING 229
SWIDTH 504 0
DWIDTH 11 0
BBX 9 17 1 0
BITMAP
1800
3C00
2400
3C00
1800
0000
3E00
FF00
4300
0300
3F00
FF00
C300
8300
C300
FF00
7D80
ENDCHAR
STARTCHAR ae
ENCODING 230
SWIDTH 789 0
DWIDTH 17 0
BBX 15 11 1 0
BITMAP
3C78
FFFC
4384
0306
1F0C
7FFC
C3E0
8300
C784
FFFE
78F8
ENDCHAR
STARTCHAR ccedilla
ENCODING 231
SWIDTH 491 0
DWIDTH 10 0
BBX 9 16 1 -5
BITMAP
1E00
7F00
6100
C000
C000
C000
C000
C000
C000
6180
3F00
0C00
0E00
0600
0E00
0800
ENDCHAR
STARTCHAR egrave
ENCODING 232
SWIDTH 521 0
DWIDTH 11 0
BBX 9 16 1 0
BITMAP
2000
7000
3800
1800
0800
1E00
7F00
6180
C180
FF80
FF80
C000
C000
C100
7F80
3E00
ENDCHAR
STARTCHAR eacute
ENCODING 233
SWIDTH 521 0
DWIDTH 11 0
BBX 9 16 1 0
BITMAP
0300
0600
0C00
0800
0000
1E00
7F00
6180
C180
FF80
FF80
C000
C000
C100
7F80
3E00
ENDCHAR
STARTCHAR ecircumflex
ENCODING 234
SWIDTH 521 0
DWIDTH 11 0
BBX 9 15 1 0
BITMAP
1C00
1E00
7700
0000
1E00
7F00
6180
C180
FF80
FF80
C000
C000
C100
7F80
3E00
ENDCHAR
STARTCHAR edieresis
ENCODING 235
SWIDTH 521 0
DWIDTH 11 0
BBX 9 14 1 0
BITMAP
6300
6300
0000
1E00
7F00
6180
C180
FF80
FF80
C000
C000
C100
7F80
3E00
ENDCHAR
STARTCHAR igrave
ENCODING 236
SWIDTH 274 0
DWIDTH 6 0
BBX 7 16 -1 0
BITMAP
C0
60
30
10
00
10
10
10
10
10
10
10
10
10
1E
1C
ENDCHAR
STARTCHAR iacute
ENCODING 237
SWIDTH 274 0
DWIDTH 6 0
BBX 4 17 2 0
BITMAP
40
60
60
C0
80
00
80
80
80
80
80
80
80
80
80
F0
E0
ENDCHAR
STARTCHAR icircumflex
ENCODING 238
SWIDTH 274 0
DWIDTH 6 0
BBX 6 15 0 0
BITMAP
60
50
D8
00
20
20
20
20
20
20
20
20
20
3C
38
ENDCHAR
STARTCHAR idieresis
ENCODING 239
SWIDTH 274 0
DWIDTH 6 0
BBX 7 14 -1 0
BITMAP
CE
CC
00
10
10
10
10
10
10
10
10
10
1E
1C
ENDCHAR
STARTCHAR eth
ENCODING 240
SWIDTH 542 0
DWIDTH 11 0
BBX 9 16 1 0
BITMAP
0880
1D80
0700
1F00
0B00
0980
3F80
6180
C180
C080
C080
C180
C180
C180
7F00
3E00
ENDCHAR
STARTCHAR ntilde
ENCODING 241
SWIDTH 553 0
DWIDTH 12 0
BBX 9 14 1 0
BITMAP
3F00
7F80
0000
CF00
FF80
6180
4180
4180
4180
4180
4180
4180
4180
4180
ENDCHAR
STARTCHAR ograve
ENCODING 242
SWIDTH 573 0
DWIDTH 12 0
BBX 10 16 1 0
BITMAP
2000
3000
1800
0C00
0400
1E00
7F80
6180
C0C0
C0C0
C040
C0C0
C0C0
6180
7F80
1E00
ENDCHAR
STARTCHAR oacute
ENCODING 243
SWIDTH 573 0
DWIDTH 12 0
BBX 10 16 1 0
BITMAP
0300
0300
0600
0C00
0000
1E00
7F80
6180
C0C0
C0C0
C040
C0C0
C0C0
6180
7F80
1E00
ENDCHAR
STARTCHAR ocircumflex
ENCODING 244
SWIDTH 573 0
DWIDTH 12 0
BBX 10 15 1 0
BITMAP
0C00
1E00
3300
0000
1E00
7F80
6180
C0C0
C0C0
C040
C0C0
C0C0
6180
7F80
1E00
ENDCHAR
STARTCHAR otilde
ENCODING 245
SWIDTH 573 0
DWIDTH 12 0
BBX 10 14 1 0
BITMAP
3F00
7F80
0000
1E00
7F80
6180
C0C0
C0C0
C040
C0C0
C0C0
6180
7F80
1E00
ENDCHAR
STARTCHAR odieresis
ENCODING 246
SWIDTH 573 0
DWIDTH 12 0
BBX 10 14 1 0
BITMAP
3300
3300
0000
1E00
7F80
6180
C0C0
C0C0
C040
C0C0
C0C0
6180
7F80
1E00
ENDCHAR
STARTCHAR divide
ENCODING 247
SWIDTH 489 0
DWIDTH 10 0
BBX 8 8 1 2
BITMAP
18
18
00
FF
FF
00
18
18
ENDCHAR
STARTCHAR oslash
ENCODING 248
SWIDTH 585 0
DWIDTH 12 0
BBX 10 11 1 0
BITMAP
1F80
7F80
63C0
C2C0
C640
CC40
CC40
D8C0
70C0
7F80
7E00
ENDCHAR
STARTCHAR ugrave
ENCODING 249
SWIDTH 557 0
DWIDTH 12 0
BBX 10 16 1 0
BITMAP
2000
7000
1800
0C00
0800
C180
C180
C180
C180
C180
C180
C180
C180
C380
7EC0
3C80
ENDCHAR
STARTCHAR uacute
ENCODING 250
SWIDTH 557 0
DWIDTH 12 0
BBX 10 16 1 0
BITMAP
0300
0600
0400
0C00
0000
C180
C180
C180
C180
C180
C180
C180
C180
C380
7EC0
3C80
ENDCHAR
STARTCHAR ucircumflex
ENCODING 251
SWIDTH 557 0
DWIDTH 12 0
BBX 10 15 1 0
BITMAP
0C00
1E00
3300
0000
C180
C180
C180
C180
C180
C180
C180
C180
C380
7EC0
3C80
ENDCHAR
STARTCHAR udieresis
ENCODING 252
SWIDTH 557 0
DWIDTH 12 0
BBX 10 14 1 0
BITMAP
7300
2300
0000
C180
C180
C180
C180
C180
C180
C180
C180
C380
7EC0
3C80
ENDCHAR
STARTCHAR yacute
ENCODING 253
SWIDTH 493 0
DWIDTH 10 0
BBX 10 21 0 -5
BITMAP
0180
0300
0600
0400
0000
C0C0
6080
6180
3180
3180
1300
1B00
1B00
0E00
0E00
0600
0400
0C00
0C00
7800
3000
ENDCHAR
STARTCHAR thorn
ENCODING 254
SWIDTH 548 0
DWIDTH 12 0
BBX 9 20 2 -5
BITMAP
8000
8000
8000
8000
BC00
FE00
C300
8100
8180
8180
8180
8100
8300
FE00
FC00
8000
8000
8000
8000
8000
ENDCHAR
STARTCHAR ydieresis
ENCODING 255
SWIDTH 493 0
DWIDTH 10 0
BBX 10 19 0 -5
BITMAP
3180
3180
0000
C0C0
6080
6180
3180
3180
1300
1B00
1B00
0E00
0E00
0600
0400
0C00
0C00
7800
3000
ENDCHAR
STARTCHAR Amacron
ENCODING 256
SWIDTH 681 0
DWIDTH 14 0
BBX 13 18 1 0
BITMAP
1FC0
1FC0
0000
0200
0600
0700
0F00
0F00
0980
1980
18C0
30C0
3FC0
7FE0
6060
6030
C030
C018
ENDCHAR
STARTCHAR amacron
ENCODING 257
SWIDTH 504 0
DWIDTH 11 0
BBX 9 14 1 0
BITMAP
FE00
FE00
0000
3E00
FF00
4300
0300
3F00
FF00
C300
8300
C300
FF00
7D80
ENDCHAR
STARTCHAR Abreve
ENCODING 258
SWIDTH 681 0
DWIDTH 14 0
BBX 13 19 1 0
BITMAP
1880
1F80
0F00
0000
0200
0600
0700
0F00
0F00
0980
1980
18C0
30C0
3FC0
7FE0
6060
6030
C030
C018
ENDCHAR
STARTCHAR abreve
ENCODING 259
SWIDTH 504 0
DWIDTH 11 0
BBX 9 15 1 0
BITMAP
4600
6600
3C00
0000
3E00
FF00
4300
0300
3F00
FF00
C300
8300
C300
FF00
7D80
ENDCHAR
STARTCHAR Aogonek
ENCODING 260
SWIDTH 681 0
DWIDTH 14 0
BBX 13 20 1 -5
BITMAP
0200
0600
0700
0F00
0F00
0980
1980
18C0
30C0
3FC0
7FE0
6060
6030
C030
C018
0030
0060
0068
0078
0010
ENDCHAR
STARTCHAR aogonek
ENCODING 261
SWIDTH 504 0
DWIDTH 11 0
BBX 10 15 1 -4
BITMAP
3E00
FF00
4300
0300
3F00
FF00
C300
8300
C300
FF00
7F80
0300
0680
03C0
0100
ENDCHAR
STARTCHAR Cacute
ENCODING 262
SWIDTH 716 0
DWIDTH 15 0
BBX 13 19 1 0
BITMAP
0040
00E0
0380
0200
07C0
1FF0
3030
6010
6000
C000
C000
C000
C000
C000
4000
6008
3038
1FF0
07C0
ENDCHAR
STARTCHAR cacute
ENCODING 263
SWIDTH 491 0
DWIDTH 10 0
BBX 9 16 1 0
BITMAP
0300
0700
0600
0C00
0000
1E00
7F00
6100
C000
C000
C000
C000
C000
C080
7F80
1E00
ENDCHAR
STARTCHAR Ccircumflex
ENCODING 264
SWIDTH 716 0
DWIDTH 15 0
BBX 13 19 1 0
BITMAP
0300
0780
1CC0
0000
07C0
1FF0
3030
6010
6000
C000
C000
C000
C000
C000
4000
6008
3038
1FF0
07C0
ENDCHAR
STARTCHAR ccircumflex
ENCODING 265
SWIDTH 491 0
DWIDTH 10 0
BBX 9 15 1 0
BITMAP
0C00
1E00
3300
0000
1E00
7F00
6100
C000
C000
C000
C000
C000
C080
7F80
1E00
ENDCHAR
STARTCHAR Cdotaccent
ENCODING 266
SWIDTH 716 0
DWIDTH 15 0
BBX 13 18 1 0
BITMAP
0300
0300
0000
07C0
1FF0
3030
6010
6000
C000
C000
C000
C000
C000
4000
6008
3038
1FF0
07C0
ENDCHAR
STARTCHAR cdotaccent
ENCODING 267
SWIDTH 491 0
DWIDTH 10 0
BBX 9 15 1 0
BITMAP
0C00
0C00
0000
0000
1E00
7F00
6100
C000
C000
C000
C000
C000
C080
7F80
1E00
ENDCHAR
STARTCHAR Ccaron
ENCODING 268
SWIDTH 716 0
DWIDTH 15 0
BBX 13 19 1 0
BITMAP
18C0
0F80
0300
0000
07C0
1FF0
3030
6010
6000
C000
C000
C000
C000
C000
4000
6008
3038
1FF0
07C0
ENDCHAR
STARTCHAR ccaron
ENCODING 269
SWIDTH 491 0
DWIDTH 10 0
BBX 9 15 1 0
BITMAP
7300
1E00
0C00
0000
1E00
7F00
6100
C000
C000
C000
C000
C000
C080
7F80
1E00
ENDCHAR
STARTCHAR Dcaron
ENCODING 270
SWIDTH 735 0
DWIDTH 15 0
BBX 12 19 2 0
BITMAP
3980
0F00
0600
0000
FF00
FFC0
C060
C060
C030
C030
C010
C010
C010
C030
C030
C060
C0E0
FFC0
FF00
ENDCHAR
STARTCHAR dcaron
ENCODING 271
SWIDTH 554 0
DWIDTH 12 0
BBX 14 17 1 0
BITMAP
0008
000C
0198
0190
01B0
0180
1F80
7F80
6180
C180
C180
C180
C180
C180
C180
7F80
3CC0
ENDCHAR
STARTCHAR Dcroat
ENCODING 272
SWIDTH 735 0
DWIDTH 15 0
BBX 14 15 0 0
BITMAP
3FC0
3FF0
3018
3018
300C
300C
FE04
FE04
3004
300C
300C
3018
3038
3FF0
3FC0
ENDCHAR
STARTCHAR dcroat
ENCODING 273
SWIDTH 554 0
DWIDTH 12 0
BBX 11 15 1 0
BITMAP
0180
0FE0
0FE0
0180
1F80
7F80
6180
C180
C180
C180
C180
C180
C180
7F80
3CC0
ENDCHAR
STARTCHAR Emacron
ENCODING 274
SWIDTH 607 0
DWIDTH 13 0
BBX 10 18 2 0
BITMAP
7F80
7F80
0000
FF80
FF80
C000
C000
C000
C000
FE00
FE00
C000
C000
C000
C000
C000
FFC0
FFC0
ENDCHAR
STARTCHAR emacron
ENCODING 275
SWIDTH 521 0
DWIDTH 11 0
BBX 9 14 1 0
BITMAP
7F00
7F00
0000
1E00
7F00
6180
C180
FF80
FF80
C000
C000
C100
7F80
3E00
ENDCHAR
STARTCHAR Ebreve
ENCODING 276
SWIDTH 607 0
DWIDTH 13 0
BBX 10 19 2 0
BITMAP
3300
3F00
1E00
0000
FF80
FF80
C000
C000
C000
C000
FE00
FE00
C000
C000
C000
C000
C000
FFC0
FFC0
ENDCHAR
STARTCHAR ebreve
ENCODING 277
SWIDTH 521 0
DWIDTH 11 0
BBX 9 15 1 0
BITMAP
6300
3200
3E00
0000
1E00
7F00
6180
C180
FF80
FF80
C000
C000
C100
7F80
3E00
ENDCHAR
STARTCHAR Edotaccent
ENCODING 278
SWIDTH 607 0
DWIDTH 13 0
BBX 10 18 2 0
BITMAP
0C00
0C00
0000
FF80
FF80
C000
C000
C000
C000
FE00
FE00
C000
C000
C000
C000
C000
FFC0
FFC0
ENDCHAR
STARTCHAR edotaccent
ENCODING 279
SWIDTH 521 0
DWIDTH 11 0
BBX 9 15 1 0
BITMAP
1C00
0800
0000
0000
1E00
7F00
6180
C180
FF80
FF80
C000
C000
C100
7F80
3E00
ENDCHAR
STARTCHAR Eogonek
ENCODING 280
SWIDTH 607 0
DWIDTH 13 0
BBX 10 20 2 -5
BITMAP
FF80
FF80
C000
C000
C000
C000
FE00
FE00
C000
C000
C000
C000
C000
FFC0
FFC0
0180
0100
0340
01C0
0080
ENDCHAR
STARTCHAR eogonek
ENCODING 281
SWIDTH 521 0
DWIDTH 11 0
BBX 9 14 1 -3
BITMAP
1E00
7F00
6180
C180
FF80
FF80
C000
C000
C100
7F80
3F00
0600
0780
0380
ENDCHAR
STARTCHAR Ecaron
ENCODING 282
SWIDTH 607 0
DWIDTH 13 0
BBX 10 19 2 0
BITMAP
3380
1E00
0C00
0000
FF80
FF80
C000
C000
C000
C000
FE00
FE00
C000
C000
C000
C000
C000
FFC0
FFC0
ENDCHAR
STARTCHAR ecaron
ENCODING 283
SWIDTH 521 0
DWIDTH 11 0
BBX 9 15 1 0
BITMAP
6300
3600
1C00
0000
1E00
7F00
6180
C180
FF80
FF80
C000
C000
C100
7F80
3E00
ENDCHAR
STARTCHAR Gcircumflex
ENCODING 284
SWIDTH 730 0
DWIDTH 15 0
BBX 13 19 1 0
BITMAP
0100
0380
0EE0
0000
07C0
1FE0
3030
6010
6000
C000
C000
C1F8
C1F8
C008
4018
6018
3030
1FE0
0FC0
ENDCHAR
STARTCHAR gcircumflex
ENCODING 285
SWIDTH 582 0
DWIDTH 12 0
BBX 11 20 1 -5
BITMAP
0E00
0A00
3B80
0000
1FC0
3FC0
2080
60C0
6080
7F80
FF00
8000
8000
FE00
FFC0
C0E0
C060
C060
7FC0
3F00
ENDCHAR
STARTCHAR Gbreve
ENCODING 286
SWIDTH 730 0
DWIDTH 15 0
BBX 13 19 1 0
BITMAP
0C40
07C0
0380
0000
07C0
1FE0
3030
6010
6000
C000
C000
C1F8
C1F8
C008
4018
6018
3030
1FE0
0FC0
ENDCHAR
STARTCHAR gbreve
ENCODING 287
SWIDTH 582 0
DWIDTH 12 0
BBX 11 20 1 -5
BITMAP
3180
1B00
1F00
0000
1FC0
3FC0
2080
60C0
6080
7F80
FF00
8000
8000
FE00
FFC0
C0E0
C060
C060
7FC0
3F00
ENDCHAR
STARTCHAR Gdotaccent
ENCODING 288
SWIDTH 730 0
DWIDTH 15 0
BBX 13 18 1 0
BITMAP
0380
0100
0000
07C0
1FE0
3030
6010
6000
C000
C000
C1F8
C1F8
C008
4018
6018
3030
1FE0
0FC0
ENDCHAR
STARTCHAR gdotaccent
ENCODING 289
SWIDTH 582 0
DWIDTH 12 0
BBX 11 20 1 -5
BITMAP
0E00
0C00
0000
0000
1FC0
3FC0
2080
60C0
6080
7F80
FF00
8000
8000
FE00
FFC0
C0E0
C060
C060
7FC0
3F00
ENDCHAR
STARTCHAR uni0122
ENCODING 290
SWIDTH 730 0
DWIDTH 15 0
BBX 13 21 1 -6
BITMAP
07C0
1FE0
3030
6010
6000
C000
C000
C1F8
C1F8
C008
4018
6018
3030
1FE0
0FC0
0000
0000
0300
0300
0200
0200
ENDCHAR
STARTCHAR uni0123
ENCODING 291
SWIDTH 582 0
DWIDTH 12 0
BBX 11 21 1 -5
BITMAP
0600
0400
0400
0400
0000
1FC0
3FC0
2080
60C0
6080
7F80
FF00
8000
8000
FE00
FFC0
C0E0
C060
C060
7FC0
3F00
ENDCHAR
STARTCHAR Hcircumflex
ENCODING 292
SWIDTH 693 0
DWIDTH 15 0
BBX 11 19 2 0
BITMAP
0C00
1E00
3300
0080
C060
C060
C060
C060
C060
C060
FFE0
FFE0
C060
C060
C060
C060
C060
C060
C060
ENDCHAR
STARTCHAR hcircumflex
ENCODING 293
SWIDTH 550 0
DWIDTH 12 0
BBX 11 20 -1 0
BITMAP
1000
3800
EE00
0000
0000
1000
1000
1000
1000
17C0
1FE0
1860
1060
1060
1060
1060
1060
1060
1060
1060
ENDCHAR
STARTCHAR Hbar
ENCODING 294
SWIDTH 693 0
DWIDTH 15 0
BBX 11 15 2 0
BITMAP
C060
C060
C060
FFE0
FFE0
C060
FFE0
FFE0
C060
C060
C060
C060
C060
C060
C060
ENDCHAR
STARTCHAR hbar
ENCODING 295
SWIDTH 550 0
DWIDTH 12 0
BBX 10 15 0 0
BITMAP
2000
FE00
FE00
2000
2F80
3FC0
30C0
20C0
20C0
20C0
20C0
20C0
20C0
20C0
20C0
ENDCHAR
STARTCHAR Itilde
ENCODING 296
SWIDTH 276 0
DWIDTH 6 0
BBX 8 18 -1 0
BITMAP
7E
FF
00
18
18
18
18
18
18
18
18
18
18
18
18
18
18
18
ENDCHAR
STARTCHAR itilde
ENCODING 297
SWIDTH 274 0
DWIDTH 6 0
BBX 7 15 -1 0
BITMAP
7C
FE
00
00
10
10
10
10
10
10
10
10
10
1E
1C
ENDCHAR
STARTCHAR Imacron
ENCODING 298
SWIDTH 276 0
DWIDTH 6 0
BBX 5 18 0 0
BITMAP
F8
F8
00
30
30
30
30
30
30
30
30
30
30
30
30
30
30
30
ENDCHAR
STARTCHAR imacron
ENCODING 299
SWIDTH 274 0
DWIDTH 6 0
BBX 6 14 0 0
BITMAP
F8
F8
00
20
20
20
20
20
20
20
20
20
3C
38
ENDCHAR
STARTCHAR Ibreve
ENCODING 300
SWIDTH 276 0
DWIDTH 6 0
BBX 6 19 0 0
BITMAP
CC
C8
78
00
30
30
30
30
30
30
30
30
30
30
30
30
30
30
30
ENDCHAR
STARTCHAR ibreve
ENCODING 301
SWIDTH 274 0
DWIDTH 6 0
BBX 6 15 0 0
BITMAP
98
D8
F0
00
20
20
20
20
20
20
20
20
20
3C
38
ENDCHAR
STARTCHAR Iogonek
ENCODING 302
SWIDTH 276 0
DWIDTH 6 0
BBX 4 19 0 -4
BITMAP
30
30
30
30
30
30
30
30
30
30
30
30
30
30
30
60
C0
F0
70
ENDCHAR
STARTCHAR iogonek
ENCODING 303
SWIDTH 274 0
DWIDTH 6 0
BBX 5 19 1 -4
BITMAP
C0
C0
00
00
40
40
40
40
40
40
40
40
40
78
70
60
40
70
78
ENDCHAR
STARTCHAR Idotaccent
ENCODING 304
SWIDTH 276 0
DWIDTH 6 0
BBX 2 18 2 0
BITMAP
C0
C0
00
C0
C0
C0
C0
C0
C0
C0
C0
C0
C0
C0
C0
C0
C0
C0
ENDCHAR
STARTCHAR dotlessi
ENCODING 305
SWIDTH 274 0
DWIDTH 6 0
BBX 4 11 2 0
BITMAP
80
80
80
80
80
80
80
80
80
F0
E0
ENDCHAR
STARTCHAR IJ
ENCODING 306
SWIDTH 793 0
DWIDTH 17 0
BBX 13 15 2 0
BITMAP
C018
C018
C018
C018
C018
C018
C018
C018
C018
C018
C018
C418
C610
C7F0
C3E0
ENDCHAR
STARTCHAR ij
ENCODING 307
SWIDTH 473 0
DWIDTH 10 0
BBX 8 20 1 -5
BITMAP
E7
46
00
00
42
42
42
42
42
42
42
42
42
42
42
02
02
02
1E
0E
ENDCHAR
STARTCHAR Jcircumflex
ENCODING 308
SWIDTH 517 0
DWIDTH 11 0
BBX 11 19 1 0
BITMAP
0100
0780
0CE0
0000
0300
0300
0300
0300
0300
0300
0300
0300
0300
0300
0300
8300
C300
7E00
3C00
ENDCHAR
STARTCHAR jcircumflex
ENCODING 309
SWIDTH 237 0
DWIDTH 5 0
BBX 7 20 -1 -5
BITMAP
38
28
EE
00
10
10
10
10
10
10
10
10
10
10
10
10
10
10
F0
70
ENDCHAR
STARTCHAR uni0136
ENCODING 310
SWIDTH 634 0
DWIDTH 13 0
BBX 11 21 2 -6
BITMAP
C1C0
C180
C300
C300
C600
C600
CC00
F800
EC00
CC00
C600
C300
C180
C1C0
C0E0
0000
0000
0600
0400
0C00
0C00
ENDCHAR
STARTCHAR uni0137
ENCODING 311
SWIDTH 518 0
DWIDTH 11 0
BBX 9 21 2 -6
BITMAP
8000
8000
8000
8000
8200
8600
8600
8C00
FC00
F800
9800
8C00
8600
8300
8380
0000
0000
1800
1000
3000
3000
ENDCHAR
STARTCHAR kgreenlandic
ENCODING 312
SWIDTH 551 0
DWIDTH 12 0
BBX 9 12 2 -1
BITMAP
8380
8780
8600
8400
8C00
F800
FC00
8600
8200
8300
8180
0080
ENDCHAR
STARTCHAR Lacute
ENCODING 313
SWIDTH 549 0
DWIDTH 12 0
BBX 9 19 2 0
BITMAP
0100
0700
0C00
0800
C000
C000
C000
C000
C000
C000
C000
C000
C000
C000
C000
C000
C000
FF80
FF80
ENDCHAR
STARTCHAR lacute
ENCODING 314
SWIDTH 236 0
DWIDTH 5 0
BBX 4 20 2 0
BITMAP
10
70
C0
80
00
80
80
80
80
80
80
80
80
80
80
80
80
80
80
80
ENDCHAR
STARTCHAR uni013B
ENCODING 315
SWIDTH 549 0
DWIDTH 12 0
BBX 9 21 2 -6
BITMAP
C000
C000
C000
C000
C000
C000
C000
C000
C000
C000
C000
C000
C000
FF80
FF80
0000
0000
0800
1800
1800
1000
ENDCHAR
STARTCHAR uni013C
ENCODING 316
SWIDTH 236 0
DWIDTH 5 0
BBX 3 21 1 -6
BITMAP
40
40
40
40
40
40
40
40
40
40
40
40
40
40
40
00
00
60
40
C0
C0
ENDCHAR
STARTCHAR Lcaron
ENCODING 317
SWIDTH 549 0
DWIDTH 12 0
BBX 9 17 2 0
BITMAP
0100
0180
C100
C300
C200
C000
C000
C000
C000
C000
C000
C000
C000
C000
C000
FF80
FF80
ENDCHAR
STARTCHAR lcaron
ENCODING 318
SWIDTH 236 0
DWIDTH 5 0
BBX 7 17 2 0
BITMAP
08
0E
8C
88
98
80
80
80
80
80
80
80
80
80
80
80
80
ENDCHAR
STARTCHAR Ldot
ENCODING 319
SWIDTH 549 0
DWIDTH 12 0
BBX 9 15 2 0
BITMAP
C000
C000
C000
C000
C000
C000
CC00
CE00
CC00
C000
C000
C000
C000
FF80
FF80
ENDCHAR
STARTCHAR ldot
ENCODING 320
SWIDTH 236 0
DWIDTH 5 0
BBX 6 15 2 0
BITMAP
80
80
80
80
98
9C
98
80
80
80
80
80
80
80
80
ENDCHAR
STARTCHAR Lslash
ENCODING 321
SWIDTH 549 0
DWIDTH 12 0
BBX 11 15 0 0
BITMAP
3000
3000
3000
3000
3000
3400
3C00
3800
F000
B000
3000
3000
3000
3FE0
3FE0
ENDCHAR
STARTCHAR lslash
ENCODING 322
SWIDTH 303 0
DWIDTH 6 0
BBX 4 15 1 0
BITMAP
60
60
60
60
70
70
E0
E0
60
60
60
60
60
60
60
ENDCHAR
STARTCHAR Nacute
ENCODING 323
SWIDTH 751 0
DWIDTH 16 0
BBX 12 19 2 0
BITMAP
00C0
01C0
0700
0200
8030
C030
E030
E030
F030
D830
CC30
CE30
C630
C330
C1B0
C0F0
C070
C070
C030
ENDCHAR
STARTCHAR nacute
ENCODING 324
SWIDTH 553 0
DWIDTH 12 0
BBX 9 16 1 0
BITMAP
0300
0300
0600
0C00
0000
CF00
FF80
6180
4180
4180
4180
4180
4180
4180
4180
4180
ENDCHAR
STARTCHAR uni0145
ENCODING 325
SWIDTH 751 0
DWIDTH 16 0
BBX 12 21 2 -6
BITMAP
8030
C030
E030
E030
F030
D830
CC30
CE30
C630
C330
C1B0
C0F0
C070
C070
C030
0000
0000
0600
0600
0600
0400
ENDCHAR
STARTCHAR uni0146
ENCODING 326
SWIDTH 553 0
DWIDTH 12 0
BBX 9 17 1 -6
BITMAP
CF00
FF80
6180
4180
4180
4180
4180
4180
4180
4180
4180
0000
0000
0C00
0C00
0800
0800
ENDCHAR
STARTCHAR Ncaron
ENCODING 327
SWIDTH 751 0
DWIDTH 16 0
BBX 12 19 2 0
BITMAP
18C0
0D80
0600
0000
8030
C030
E030
E030
F030
D830
CC30
CE30
C630
C330
C1B0
C0F0
C070
C070
C030
ENDCHAR
STARTCHAR ncaron
ENCODING 328
SWIDTH 553 0
DWIDTH 12 0
BBX 9 15 1 0
BITMAP
7380
1E00
0C00
0000
CF00
FF80
6180
4180
4180
4180
4180
4180
4180
4180
4180
ENDCHAR
STARTCHAR Eng
ENCODING 330
SWIDTH 751 0
DWIDTH 16 0
BBX 12 20 2 -5
BITMAP
8030
C030
E030
E030
F030
D830
CC30
CE30
C630
C330
C1B0
C0F0
C070
C070
C030
0030
0030
0030
00E0
0040
ENDCHAR
STARTCHAR eng
ENCODING 331
SWIDTH 552 0
DWIDTH 12 0
BBX 9 14 1 -3
BITMAP
DF00
FF80
6180
4180
4180
4180
4180
4180
4180
4180
4180
0180
0780
0100
ENDCHAR
STARTCHAR Omacron
ENCODING 332
SWIDTH 795 0
DWIDTH 17 0
BBX 15 18 1 0
BITMAP
0FE0
0FE0
0000
07C0
1FF0
3038
601C
600C
C004
C004
C006
C004
C004
600C
600C
3038
1FF0
07C0
ENDCHAR
STARTCHAR omacron
ENCODING 333
SWIDTH 573 0
DWIDTH 12 0
BBX 10 14 1 0
BITMAP
7F80
7F80
0000
1E00
7F80
6180
C0C0
C0C0
C040
C0C0
C0C0
6180
7F80
1E00
ENDCHAR
STARTCHAR Obreve
ENCODING 334
SWIDTH 795 0
DWIDTH 17 0
BBX 15 19 1 0
BITMAP
0C40
07C0
0780
0000
07C0
1FF0
3038
601C
600C
C004
C004
C006
C004
C004
600C
600C
3038
1FF0
07C0
ENDCHAR
STARTCHAR obreve
ENCODING 335
SWIDTH 573 0
DWIDTH 12 0
BBX 10 15 1 0
BITMAP
3300
3300
1E00
0000
1E00
7F80
6180
C0C0
C0C0
C040
C0C0
C0C0
6180
7F80
1E00
ENDCHAR
STARTCHAR Ohungarumlaut
ENCODING 336
SWIDTH 795 0
DWIDTH 17 0
BBX 15 19 1 0
BITMAP
0088
03FC
0770
0440
07C0
1FF0
3038
601C
600C
C004
C004
C006
C004
C004
600C
600C
3038
1FF0
07C0
ENDCHAR
STARTCHAR ohungarumlaut
ENCODING 337
SWIDTH 573 0
DWIDTH 12 0
BBX 11 16 1 0
BITMAP
0660
0CC0
1980
3300
0000
1E00
7F80
6180
C0C0
C0C0
C040
C0C0
C0C0
6180
7F80
1E00
ENDCHAR
STARTCHAR OE
ENCODING 338
SWIDTH 1198 0
DWIDTH 25 0
BBX 24 15 1 0
BITMAP
07C7FF
1FFFFF
303B00
601F00
600F00
C00700
C007F8
C007F8
C00700
C00700
600F00
600F00
303B00
1FF3FF
07C3FF
ENDCHAR
STARTCHAR oe
ENCODING 339
SWIDTH 943 0
DWIDTH 20 0
BBX 18 11 1 0
BITMAP
1E1F00
7FBF80
61E0C0
C0E0C0
C0FFC0
C07FC0
C0E000
C0E000
61E080
7FBFC0
1E1F00
ENDCHAR
STARTCHAR Racute
ENCODING 340
SWIDTH 634 0
DWIDTH 13 0
BBX 11 19 2 0
BITMAP
0200
0F00
1C00
1000
FE00
FF00
C180
C180
C180
C180
C300
DF00
DC00
CC00
C600
C300
C180
C1C0
C0E0
ENDCHAR
STARTCHAR racute
ENCODING 341
SWIDTH 376 0
DWIDTH 8 0
BBX 7 16 1 0
BITMAP
06
0C
08
18
00
DE
FC
60
40
40
40
40
40
40
40
40
ENDCHAR
STARTCHAR uni0156
ENCODING 342
SWIDTH 634 0
DWIDTH 13 0
BBX 11 21 2 -6
BITMAP
FE00
FF00
C180
C180
C180
C180
C300
DF00
DC00
CC00
C600
C300
C180
C1C0
C0E0
0000
0000
0C00
0800
0800
1800
ENDCHAR
STARTCHAR uni0157
ENCODING 343
SWIDTH 376 0
DWIDTH 8 0
BBX 7 17 1 -6
BITMAP
DE
FC
60
40
40
40
40
40
40
40
40
00
00
60
40
C0
C0
ENDCHAR
STARTCHAR Rcaron
ENCODING 344
SWIDTH 634 0
DWIDTH 13 0
BBX 11 19 2 0
BITMAP
C600
6C00
3800
0000
FE00
FF00
C180
C180
C180
C180
C300
DF00
DC00
CC00
C600
C300
C180
C1C0
C0E0
ENDCHAR
STARTCHAR rcaron
ENCODING 345
SWIDTH 376 0
DWIDTH 8 0
BBX 7 15 1 0
BITMAP
E6
3C
18
00
DE
FC
60
40
40
40
40
40
40
40
40
ENDCHAR
STARTCHAR Sacute
ENCODING 346
SWIDTH 557 0
DWIDTH 12 0
BBX 10 19 1 0
BITMAP
0100
0380
0E00
0400
1E00
3F00
6180
6000
6000
3000
1C00
0700
0180
00C0
00C0
C0C0
C180
7F80
1E00
ENDCHAR
STARTCHAR sacute
ENCODING 347
SWIDTH 438 0
DWIDTH 9 0
BBX 8 16 1 0
BITMAP
06
0C
18
10
00
3C
7E
C0
C0
70
1C
06
03
83
FE
7C
ENDCHAR
STARTCHAR Scircumflex
ENCODING 348
SWIDTH 557 0
DWIDTH 12 0
BBX 10 19 1 0
BITMAP
0C00
1E00
3380
0000
1E00
3F00
6180
6000
6000
3000
1C00
0700
0180
00C0
00C0
C0C0
C180
7F80
1E00
ENDCHAR
STARTCHAR scircumflex
ENCODING 349
SWIDTH 438 0
DWIDTH 9 0
BBX 8 15 1 0
BITMAP
18
3C
E6
00
3C
7E
C0
C0
70
1C
06
03
83
FE
7C
ENDCHAR
STARTCHAR Scedilla
ENCODING 350
SWIDTH 557 0
DWIDTH 12 0
BBX 10 20 1 -5
BITMAP
1E00
3F00
6180
6000
6000
3000
1C00
0F00
0380
00C0
00C0
80C0
C0C0
6180
3F00
0C00
0E00
0600
0600
0C00
ENDCHAR
STARTCHAR scedilla
ENCODING 351
SWIDTH 438 0
DWIDTH 9 0
BBX 8 16 1 -5
BITMAP
3C
7E
C0
C0
70
3C
0E
03
03
C6
FE
18
1C
0C
1C
10
ENDCHAR
STARTCHAR Scaron
ENCODING 352
SWIDTH 557 0
DWIDTH 12 0
BBX 10 19 1 0
BITMAP
3180
1E00
0C00
0000
1E00
3F00
6180
6000
6000
3000
1C00
0700
0180
00C0
00C0
C0C0
C180
7F80
1E00
ENDCHAR
STARTCHAR scaron
ENCODING 353
SWIDTH 438 0
DWIDTH 9 0
BBX 8 15 1 0
BITMAP
E6
2C
38
00
3C
7E
C0
C0
70
1C
06
03
83
FE
7C
ENDCHAR
STARTCHAR uni0162
ENCODING 354
SWIDTH 602 0
DWIDTH 13 0
BBX 11 20 1 -5
BITMAP
FFE0
FFE0
0C00
0C00
0C00
0C00
0C00
0C00
0C00
0C00
0C00
0C00
0C00
0C00
0C00
0E00
0E00
0200
0600
0400
ENDCHAR
STARTCHAR uni0163
ENCODING 355
SWIDTH 348 0
DWIDTH 7 0
BBX 6 18 1 -5
BITMAP
C0
C0
F8
F8
C0
C0
C0
C0
C0
C0
40
7C
38
38
0C
08
18
10
ENDCHAR
STARTCHAR Tcaron
ENCODING 356
SWIDTH 602 0
DWIDTH 13 0
BBX 11 19 1 0
BITMAP
3180
1B00
0E00
0000
FFE0
FFE0
0C00
0C00
0C00
0C00
0C00
0C00
0C00
0C00
0C00
0C00
0C00
0C00
0C00
ENDCHAR
STARTCHAR tcaron
ENCODING 357
SWIDTH 348 0
DWIDTH 7 0
BBX 9 17 1 0
BITMAP
0100
0180
0100
C300
C200
C000
F800
F800
C000
C000
C000
C000
C000
C000
4000
7800
3C00
ENDCHAR
STARTCHAR Tbar
ENCODING 358
SWIDTH 602 0
DWIDTH 13 0
BBX 11 15 1 0
BITMAP
FFE0
FFE0
0C00
0C00
0C00
0C00
3F80
3F80
0C00
0C00
0C00
0C00
0C00
0C00
0C00
ENDCHAR
STARTCHAR tbar
ENCODING 359
SWIDTH 348 0
DWIDTH 7 0
BBX 7 14 0 0
BITMAP
60
60
60
7C
7C
60
FE
FE
60
60
60
20
3C
1E
ENDCHAR
STARTCHAR Utilde
ENCODING 360
SWIDTH 706 0
DWIDTH 15 0
BBX 11 18 2 0
BITMAP
1F80
3F80
0000
8060
8060
8060
8060
8060
8060
8060
8060
8060
8060
C060
C060
60C0
7F80
1F00
ENDCHAR
STARTCHAR utilde
ENCODING 361
SWIDTH 557 0
DWIDTH 12 0
BBX 10 14 1 0
BITMAP
3F00
7F00
0000
C180
C180
C180
C180
C180
C180
C180
C180
C380
7EC0
3C80
ENDCHAR
STARTCHAR Umacron
ENCODING 362
SWIDTH 706 0
DWIDTH 15 0
BBX 11 18 2 0
BITMAP
3F80
3F80
0000
8060
8060
8060
8060
8060
8060
8060
8060
8060
8060
C060
C060
60C0
7F80
1F00
ENDCHAR
STARTCHAR umacron
ENCODING 363
SWIDTH 557 0
DWIDTH 12 0
BBX 10 14 1 0
BITMAP
7F00
7F00
0000
C180
C180
C180
C180
C180
C180
C180
C180
C380
7EC0
3C80
ENDCHAR
STARTCHAR Ubreve
ENCODING 364
SWIDTH 706 0
DWIDTH 15 0
BBX 11 19 2 0
BITMAP
3180
1F00
0E00
0000
8060
8060
8060
8060
8060
8060
8060
8060
8060
8060
C060
C060
60C0
7F80
1F00
ENDCHAR
STARTCHAR ubreve
ENCODING 365
SWIDTH 557 0
DWIDTH 12 0
BBX 10 15 1 0
BITMAP
2300
3300
1E00
0000
C180
C180
C180
C180
C180
C180
C180
C180
C380
7EC0
3C80
ENDCHAR
STARTCHAR Uring
ENCODING 366
SWIDTH 706 0
DWIDTH 15 0
BBX 11 21 2 0
BITMAP
0400
0F00
1B00
1F00
0E00
0000
8060
8060
8060
8060
8060
8060
8060
8060
8060
8060
C060
C060
60C0
7F80
1F00
ENDCHAR
STARTCHAR uring
ENCODING 367
SWIDTH 557 0
DWIDTH 12 0
BBX 10 17 1 0
BITMAP
0C00
1E00
1200
1E00
0C00
0000
C180
C180
C180
C180
C180
C180
C180
C180
C380
7EC0
3C80
ENDCHAR
STARTCHAR Uhungarumlaut
ENCODING 368
SWIDTH 706 0
DWIDTH 15 0
BBX 12 19 2 0
BITMAP
0220
0770
1DC0
1100
8060
8060
8060
8060
8060
8060
8060
8060
8060
8060
C060
C060
60C0
7F80
1F00
ENDCHAR
STARTCHAR uhungarumlaut
ENCODING 369
SWIDTH 557 0
DWIDTH 12 0
BBX 10 16 1 0
BITMAP
0CC0
0CC0
1980
3300
0000
C180
C180
C180
C180
C180
C180
C180
C180
C380
7EC0
3C80
ENDCHAR
STARTCHAR Uogonek
ENCODING 370
SWIDTH 706 0
DWIDTH 15 0
BBX 11 18 2 -3
BITMAP
8060
8060
8060
8060
8060
8060
8060
8060
8060
8060
C060
C060
60C0
7F80
1F00
0200
0380
03C0
ENDCHAR
STARTCHAR uogonek
ENCODING 371
SWIDTH 557 0
DWIDTH 12 0
BBX 10 15 1 -4
BITMAP
C180
C180
C180
C180
C180
C180
C180
C180
C380
7E80
3DC0
0180
0340
01C0
0080
ENDCHAR
STARTCHAR Wcircumflex
ENCODING 372
SWIDTH 1027 0
DWIDTH 22 0
BBX 20 19 1 0
BITMAP
006000
00F000
039800
000000
806030
C06020
40E060
60F060
60B040
2190C0
3198C0
3118C0
110880
130D80
1B0D80
1A0D00
0E0700
0E0700
0C0600
ENDCHAR
STARTCHAR wcircumflex
ENCODING 373
SWIDTH 772 0
DWIDTH 16 0
BBX 16 15 0 0
BITMAP
0180
03C0
0670
0000
C183
6182
61C6
33C6
3344
326C
166C
1E28
1E38
0C38
0C10
ENDCHAR
STARTCHAR Ycircumflex
ENCODING 374
SWIDTH 565 0
DWIDTH 12 0
BBX 10 19 1 0
BITMAP
0800
1C00
7300
0000
C0C0
C080
6180
6300
3300
3600
1E00
1C00
0C00
0C00
0C00
0C00
0C00
0C00
0C00
ENDCHAR
STARTCHAR ycircumflex
ENCODING 375
SWIDTH 493 0
DWIDTH 10 0
BBX 10 20 0 -5
BITMAP
0600
0F00
3980
0000
C0C0
6080
6180
3180
3180
1300
1B00
1B00
0E00
0E00
0600
0400
0C00
0C00
7800
3000
ENDCHAR
STARTCHAR Ydieresis
ENCODING 376
SWIDTH 565 0
DWIDTH 12 0
BBX 10 18 1 0
BITMAP
7300
2300
0000
C0C0
C080
6180
6300
3300
3600
1E00
1C00
0C00
0C00
0C00
0C00
0C00
0C00
0C00
ENDCHAR
STARTCHAR Zacute
ENCODING 377
SWIDTH 564 0
DWIDTH 12 0
BBX 10 19 1 0
BITMAP
0100
0380
0E00
0800
FFC0
FF80
0100
0300
0600
0600
0C00
0C00
1800
1800
3000
2000
6000
FFC0
FFC0
ENDCHAR
STARTCHAR zacute
ENCODING 378
SWIDTH 463 0
DWIDTH 10 0
BBX 9 16 0 0
BITMAP
0100
0300
0600
0C00
0000
7F80
7F00
0300
0600
0E00
0C00
1800
3800
3000
7F80
FF80
ENDCHAR
STARTCHAR Zdotaccent
ENCODING 379
SWIDTH 564 0
DWIDTH 12 0
BBX 10 18 1 0
BITMAP
0C00
0C00
0000
FFC0
FF80
0100
0300
0600
0600
0C00
0C00
1800
1800
3000
2000
6000
FFC0
FFC0
ENDCHAR
STARTCHAR zdotaccent
ENCODING 380
SWIDTH 463 0
DWIDTH 10 0
BBX 9 15 0 0
BITMAP
0C00
0C00
0000
0000
7F80
7F00
0300
0600
0E00
0C00
1800
3800
3000
7F80
FF80
ENDCHAR
STARTCHAR Zcaron
ENCODING 381
SWIDTH 564 0
DWIDTH 12 0
BBX 10 19 1 0
BITMAP
7300
1E00
0C00
0000
FFC0
FF80
0100
0300
0600
0600
0C00
0C00
1800
1800
3000
2000
6000
FFC0
FFC0
ENDCHAR
STARTCHAR zcaron
ENCODING 382
SWIDTH 463 0
DWIDTH 10 0
BBX 9 15 0 0
BITMAP
3380
1E00
0C00
0000
7F80
7F00
0300
0600
0E00
0C00
1800
3800
3000
7F80
FF80
ENDCHAR
STARTCHAR longs
ENCODING 383
SWIDTH 240 0
DWIDTH 5 0
BBX 6 19 2 -4
BITMAP
78
FC
C8
80
80
80
80
80
80
80
80
80
80
80
80
80
80
80
80
ENDCHAR
STARTCHAR uni018F
ENCODING 399
SWIDTH 692 0
DWIDTH 15 0
BBX 12 15 1 0
BITMAP
1F80
7FC0
4060
0030
0030
0030
0010
FFF0
FFF0
C030
C030
4060
6060
3FC0
0F00
ENDCHAR
STARTCHAR florin
ENCODING 402
SWIDTH 529 0
DWIDTH 11 0
BBX 9 20 1 -5
BITMAP
0F80
0F80
1800
1800
1800
1800
7F00
7F00
1800
1800
1800
1800
1800
1800
1800
1800
1800
1800
F000
F000
ENDCHAR
STARTCHAR uni0197
ENCODING 407
SWIDTH 276 0
DWIDTH 6 0
BBX 7 15 -1 0
BITMAP
18
18
18
18
18
18
FE
FE
18
18
18
18
18
18
18
ENDCHAR
STARTCHAR uni019D
ENCODING 413
SWIDTH 767 0
DWIDTH 16 0
BBX 15 20 -1 -5
BITMAP
1806
1806
1C06
1E06
1B06
1B86
1986
18C6
1866
1836
181E
181E
180E
1806
1802
1800
1800
9800
F000
6000
ENDCHAR
STARTCHAR Ohorn
ENCODING 416
SWIDTH 795 0
DWIDTH 17 0
BBX 15 17 1 0
BITMAP
0018
0018
07F0
1FF0
3038
601C
600C
C004
C004
C006
C004
C004
600C
600C
3038
1FF0
07C0
ENDCHAR
STARTCHAR ohorn
ENCODING 417
SWIDTH 573 0
DWIDTH 12 0
BBX 11 13 1 0
BITMAP
0040
0060
1FE0
7FC0
6180
C0C0
C0C0
C040
C0C0
C0C0
6180
7F80
1E00
ENDCHAR
STARTCHAR Uhorn
ENCODING 431
SWIDTH 706 0
DWIDTH 15 0
BBX 14 18 2 0
BITMAP
0004
000C
000C
807C
8070
8060
8060
8060
8060
8060
8060
8060
8060
C060
C060
60C0
7F80
1F00
ENDCHAR
STARTCHAR uhorn
ENCODING 432
SWIDTH 557 0
DWIDTH 12 0
BBX 12 14 1 0
BITMAP
0010
0030
0030
C1F0
C1C0
C180
C180
C180
C180
C180
C180
C380
7EC0
3C80
ENDCHAR
STARTCHAR uni01C0
ENCODING 448
SWIDTH 278 0
DWIDTH 6 0
BBX 2 18 2 -1
BITMAP
C0
C0
C0
C0
C0
C0
C0
C0
C0
C0
C0
C0
C0
C0
C0
C0
C0
C0
ENDCHAR
STARTCHAR uni01C1
ENCODING 449
SWIDTH 426 0
DWIDTH 9 0
BBX 5 18 2 -1
BITMAP
88
88
88
88
88
88
88
88
88
88
88
88
88
88
88
88
88
88
ENDCHAR
STARTCHAR uni01C4
ENCODING 452
SWIDTH 1269 0
DWIDTH 27 0
BBX 25 19 2 0
BITMAP
00003180
00001B00
00000C00
00000000
FF03FE00
FFC3FE00
C0600C00
C0600C00
C0301800
C0301800
C0103000
C0103000
C0106000
C030C000
C030C000
C0618000
C0E18000
FFC3FF00
FF03FF00
ENDCHAR
STARTCHAR uni01C5
ENCODING 453
SWIDTH 1224 0
DWIDTH 26 0
BBX 22 15 2 0
BITMAP
FF01CC
FFC078
C06030
C06000
C031FC
C031FC
C01018
C01038
C01030
C03060
C03060
C060C0
C0E180
FFC1FC
FF03FC
ENDCHAR
STARTCHAR uni01C6
ENCODING 454
SWIDTH 1043 0
DWIDTH 22 0
BBX 20 15 1 0
BITMAP
018E70
0183C0
018180
018000
1F8FF0
7F8FE0
6180C0
C180C0
C18180
C18380
C18300
C18600
C18E00
7F8FF0
3CDFF0
ENDCHAR
STARTCHAR uni01C7
ENCODING 455
SWIDTH 1056 0
DWIDTH 22 0
BBX 18 15 2 0
BITMAP
C00040
C00040
C00040
C00040
C00040
C00040
C00040
C00040
C00040
C00040
C00040
C03040
C030C0
FF9F80
FF8F00
ENDCHAR
STARTCHAR uni01C8
ENCODING 456
SWIDTH 786 0
DWIDTH 17 0
BBX 13 20 2 -5
BITMAP
C018
C018
C000
C000
C018
C018
C018
C018
C018
C018
C018
C018
C018
FF98
FF98
0018
0018
0018
0078
0070
ENDCHAR
STARTCHAR uni01C9
ENCODING 457
SWIDTH 473 0
DWIDTH 10 0
BBX 7 20 2 -5
BITMAP
8E
8C
80
80
84
84
84
84
84
84
84
84
84
84
84
04
04
04
3C
1C
ENDCHAR
STARTCHAR uni01CA
ENCODING 458
SWIDTH 1268 0
DWIDTH 27 0
BBX 23 15 2 0
BITMAP
803006
C03006
E03006
E03006
F03006
D83006
CC3006
CE3006
C63006
C33006
C1B006
C0F106
C07184
C071FC
C030F8
ENDCHAR
STARTCHAR uni01CB
ENCODING 459
SWIDTH 988 0
DWIDTH 21 0
BBX 17 20 2 -5
BITMAP
803180
C03180
E03000
E03000
F03180
D83180
CC3180
CE3180
C63180
C33180
C1B180
C0F180
C07180
C07180
C03180
000180
000180
000180
000780
000700
ENDCHAR
STARTCHAR uni01CC
ENCODING 460
SWIDTH 790 0
DWIDTH 17 0
BBX 14 20 1 -5
BITMAP
000C
000C
0000
0000
CF0C
FF8C
618C
418C
418C
418C
418C
418C
418C
418C
418C
000C
000C
000C
003C
0038
ENDCHAR
STARTCHAR uni01CD
ENCODING 461
SWIDTH 681 0
DWIDTH 14 0
BBX 13 19 1 0
BITMAP
18C0
0F80
0600
0000
0200
0600
0700
0F00
0F00
0980
1980
18C0
30C0
3FC0
7FE0
6060
6030
C030
C018
ENDCHAR
STARTCHAR uni01CE
ENCODING 462
SWIDTH 504 0
DWIDTH 11 0
BBX 9 15 1 0
BITMAP
E600
3C00
1800
0000
3E00
FF00
4300
0300
3F00
FF00
C300
8300
C300
FF00
7D80
ENDCHAR
STARTCHAR uni01CF
ENCODING 463
SWIDTH 276 0
DWIDTH 6 0
BBX 6 19 0 0
BITMAP
CC
78
30
00
30
30
30
30
30
30
30
30
30
30
30
30
30
30
30
ENDCHAR
STARTCHAR uni01D0
ENCODING 464
SWIDTH 274 0
DWIDTH 6 0
BBX 6 15 0 0
BITMAP
D8
50
60
00
20
20
20
20
20
20
20
20
20
3C
38
ENDCHAR
STARTCHAR uni01D1
ENCODING 465
SWIDTH 795 0
DWIDTH 17 0
BBX 15 19 1 0
BITMAP
0C60
06C0
0380
0000
07C0
1FF0
3038
601C
600C
C004
C004
C006
C004
C004
600C
600C
3038
1FF0
07C0
ENDCHAR
STARTCHAR uni01D2
ENCODING 466
SWIDTH 573 0
DWIDTH 12 0
BBX 10 15 1 0
BITMAP
7380
1E00
0C00
0000
1E00
7F80
6180
C0C0
C0C0
C040
C0C0
C0C0
6180
7F80
1E00
ENDCHAR
STARTCHAR uni01D3
ENCODING 467
SWIDTH 706 0
DWIDTH 15 0
BBX 11 19 2 0
BITMAP
3180
1B00
0E00
0000
8060
8060
8060
8060
8060
8060
8060
8060
8060
8060
C060
C060
60C0
7F80
1F00
ENDCHAR
STARTCHAR uni01D4
ENCODING 468
SWIDTH 557 0
DWIDTH 12 0
BBX 10 15 1 0
BITMAP
7300
1E00
0C00
0000
C180
C180
C180
C180
C180
C180
C180
C180
C380
7EC0
3C80
ENDCHAR
STARTCHAR uni01D5
ENCODING 469
SWIDTH 706 0
DWIDTH 15 0
BBX 11 21 2 0
BITMAP
3F80
3F80
0000
3180
3180
0000
8060
8060
8060
8060
8060
8060
8060
8060
8060
8060
C060
C060
60C0
7F80
1F00
ENDCHAR
STARTCHAR uni01D6
ENCODING 470
SWIDTH 557 0
DWIDTH 12 0
BBX 10 17 1 0
BITMAP
7F00
7F00
0000
7300
2300
0000
C180
C180
C180
C180
C180
C180
C180
C180
C380
7EC0
3C80
ENDCHAR
STARTCHAR uni01D7
ENCODING 471
SWIDTH 706 0
DWIDTH 15 0
BBX 11 22 2 0
BITMAP
0080
0380
0600
0400
3180
3180
0000
8060
8060
8060
8060
8060
8060
8060
8060
8060
8060
C060
C060
60C0
7F80
1F00
ENDCHAR
STARTCHAR uni01D8
ENCODING 472
SWIDTH 557 0
DWIDTH 12 0
BBX 10 19 1 0
BITMAP
0300
0600
0400
0C00
0000
7300
2300
0000
C180
C180
C180
C180
C180
C180
C180
C180
C380
7EC0
3C80
ENDCHAR
STARTCHAR uni01D9
ENCODING 473
SWIDTH 706 0
DWIDTH 15 0
BBX 11 22 2 0
BITMAP
3180
1B00
0E00
0000
3180
3180
0000
8060
8060
8060
8060
8060
8060
8060
8060
8060
8060
C060
C060
60C0
7F80
1F00
ENDCHAR
STARTCHAR uni01DA
ENCODING 474
SWIDTH 557 0
DWIDTH 12 0
BBX 10 19 1 0
BITMAP
7300
1E00
0C00
0000
0000
7300
2300
0000
C180
C180
C180
C180
C180
C180
C180
C180
C380
7EC0
3C80
ENDCHAR
STARTCHAR uni01DB
ENCODING 475
SWIDTH 706 0
DWIDTH 15 0
BBX 11 22 2 0
BITMAP
2000
7800
0C00
0400
3180
3180
0000
8060
8060
8060
8060
8060
8060
8060
8060
8060
8060
C060
C060
60C0
7F80
1F00
ENDCHAR
STARTCHAR uni01DC
ENCODING 476
SWIDTH 557 0
DWIDTH 12 0
BBX 10 19 1 0
BITMAP
2000
7000
1800
0C00
0800
7300
2300
0000
C180
C180
C180
C180
C180
C180
C180
C180
C380
7EC0
3C80
ENDCHAR
STARTCHAR uni01DE
ENCODING 478
SWIDTH 681 0
DWIDTH 14 0
BBX 13 21 1 0
BITMAP
1FC0
1FC0
0000
19C0
1980
0000
0200
0600
0700
0F00
0F00
0980
1980
18C0
30C0
3FC0
7FE0
6060
6030
C030
C018
ENDCHAR
STARTCHAR uni01DF
ENCODING 479
SWIDTH 504 0
DWIDTH 11 0
BBX 9 17 1 0
BITMAP
FE00
FE00
0000
E600
4600
0000
3E00
FF00
4300
0300
3F00
FF00
C300
8300
C300
FF00
7D80
ENDCHAR
STARTCHAR uni01E0
ENCODING 480
SWIDTH 681 0
DWIDTH 14 0
BBX 13 21 1 0
BITMAP
3FC0
3FC0
0000
0600
0600
0000
0200
0600
0700
0F00
0F00
0980
1980
18C0
30C0
3FC0
7FE0
6060
6030
C030
C018
ENDCHAR
STARTCHAR uni01E1
ENCODING 481
SWIDTH 504 0
DWIDTH 11 0
BBX 9 18 1 0
BITMAP
FE00
FE00
0000
1800
1800
0000
0000
3E00
FF00
4300
0300
3F00
FF00
C300
8300
C300
FF00
7D80
ENDCHAR
STARTCHAR uni01E2
ENCODING 482
SWIDTH 894 0
DWIDTH 19 0
BBX 18 18 0 0
BITMAP
01FC00
01FC00
000000
00FF80
00FF80
01E000
016000
036000
026000
067E00
0C7E00
0C6000
1FE000
1FE000
306000
306000
607FC0
E07FC0
ENDCHAR
STARTCHAR uni01E3
ENCODING 483
SWIDTH 789 0
DWIDTH 17 0
BBX 15 14 1 0
BITMAP
0FE0
0FE0
0000
3C78
FFFC
4384
0306
1F0C
7FFC
C3E0
8300
C784
FFFE
78F8
ENDCHAR
STARTCHAR Gcaron
ENCODING 486
SWIDTH 730 0
DWIDTH 15 0
BBX 13 19 1 0
BITMAP
0C60
06C0
0380
0000
07C0
1FE0
3030
6010
6000
C000
C000
C1F8
C1F8
C008
4018
6018
3030
1FE0
0FC0
ENDCHAR
STARTCHAR gcaron
ENCODING 487
SWIDTH 582 0
DWIDTH 12 0
BBX 11 21 1 -5
BITMAP
3380
1B00
0E00
0000
0000
1FC0
3FC0
2080
60C0
6080
7F80
FF00
8000
8000
FE00
FFC0
C0E0
C060
C060
7FC0
3F00
ENDCHAR
STARTCHAR uni01E8
ENCODING 488
SWIDTH 634 0
DWIDTH 13 0
BBX 11 19 2 0
BITMAP
3180
1B00
0E00
0000
C1C0
C180
C300
C300
C600
C600
CC00
F800
EC00
CC00
C600
C300
C180
C1C0
C0E0
ENDCHAR
STARTCHAR uni01E9
ENCODING 489
SWIDTH 518 0
DWIDTH 11 0
BBX 12 20 -1 0
BITMAP
C600
6C00
3800
0000
0000
1000
1000
1000
1000
1040
10C0
10C0
1180
1F80
1F00
1300
1180
10C0
1060
1070
ENDCHAR
STARTCHAR uni01EA
ENCODING 490
SWIDTH 795 0
DWIDTH 17 0
BBX 15 18 1 -3
BITMAP
07C0
1FF0
3038
601C
600C
C004
C004
C006
C004
C004
600C
600C
3038
1FF0
07E0
00C0
00F0
0078
ENDCHAR
STARTCHAR uni01EB
ENCODING 491
SWIDTH 573 0
DWIDTH 12 0
BBX 10 15 1 -4
BITMAP
1E00
7F80
6180
C0C0
C0C0
C040
C0C0
C0C0
6180
7F80
1F00
0600
0500
0780
0200
ENDCHAR
STARTCHAR uni01EC
ENCODING 492
SWIDTH 795 0
DWIDTH 17 0
BBX 15 21 1 -3
BITMAP
0FE0
0FE0
0000
07C0
1FF0
3038
601C
600C
C004
C004
C006
C004
C004
600C
600C
3038
1FF0
07E0
00C0
00F0
0078
ENDCHAR
STARTCHAR uni01ED
ENCODING 493
SWIDTH 573 0
DWIDTH 12 0
BBX 10 18 1 -4
BITMAP
7F80
7F80
0000
1E00
7F80
6180
C0C0
C0C0
C040
C0C0
C0C0
6180
7F80
1F00
0600
0500
0780
0200
ENDCHAR
STARTCHAR uni01F0
ENCODING 496
SWIDTH 237 0
DWIDTH 5 0
BBX 7 20 -1 -5
BITMAP
C6
6C
38
00
10
10
10
10
10
10
10
10
10
10
10
10
10
10
F0
70
ENDCHAR
STARTCHAR uni01F1
ENCODING 497
SWIDTH 1269 0
DWIDTH 27 0
BBX 24 15 2 0
BITMAP
FF03FE
FFC3FE
C0600C
C0600C
C03018
C03018
C01030
C01030
C01060
C030C0
C030C0
C06180
C0E180
FFC3FF
FF03FF
ENDCHAR
STARTCHAR uni01F2
ENCODING 498
SWIDTH 1198 0
DWIDTH 25 0
BBX 22 15 2 0
BITMAP
FF0000
FFC000
C06000
C06000
C031FC
C031FC
C01018
C01038
C01030
C03060
C03060
C060C0
C0E180
FFC1FC
FF03FC
ENDCHAR
STARTCHAR uni01F3
ENCODING 499
SWIDTH 1017 0
DWIDTH 21 0
BBX 20 15 1 0
BITMAP
018000
018000
018000
018000
1F8FF0
7F8FE0
6180C0
C180C0
C18180
C18380
C18300
C18600
C18E00
7F8FF0
3CDFF0
ENDCHAR
STARTCHAR uni01F4
ENCODING 500
SWIDTH 730 0
DWIDTH 15 0
BBX 13 19 1 0
BITMAP
0020
00E0
0180
0100
07C0
1FE0
3030
6010
6000
C000
C000
C1F8
C1F8
C008
4018
6018
3030
1FE0
0FC0
ENDCHAR
STARTCHAR uni01F5
ENCODING 501
SWIDTH 582 0
DWIDTH 12 0
BBX 11 21 1 -5
BITMAP
0180
0300
0600
0400
0000
1FC0
3FC0
2080
60C0
6080
7F80
FF00
8000
8000
FE00
FFC0
C0E0
C060
C060
7FC0
3F00
ENDCHAR
STARTCHAR uni01F8
ENCODING 504
SWIDTH 751 0
DWIDTH 16 0
BBX 12 19 2 0
BITMAP
1000
3800
0E00
0200
8030
C030
E030
E030
F030
D830
CC30
CE30
C630
C330
C1B0
C0F0
C070
C070
C030
ENDCHAR
STARTCHAR uni01F9
ENCODING 505
SWIDTH 553 0
DWIDTH 12 0
BBX 9 16 1 0
BITMAP
2000
3000
1800
0C00
0400
CF00
FF80
6180
4180
4180
4180
4180
4180
4180
4180
4180
ENDCHAR
STARTCHAR Aringacute
ENCODING 506
SWIDTH 681 0
DWIDTH 14 0
BBX 13 25 1 0
BITMAP
00C0
01C0
0700
0200
0200
0F00
0900
0F00
0700
0000
0200
0600
0700
0F00
0F00
0980
1980
18C0
30C0
3FC0
7FE0
6060
6030
C030
C018
ENDCHAR
STARTCHAR aringacute
ENCODING 507
SWIDTH 504 0
DWIDTH 11 0
BBX 9 22 1 0
BITMAP
0600
0E00
0C00
1800
0000
1800
3C00
2400
3C00
1800
0000
3E00
FF00
4300
0300
3F00
FF00
C300
8300
C300
FF00
7D80
ENDCHAR
STARTCHAR AEacute
ENCODING 508
SWIDTH 894 0
DWIDTH 19 0
BBX 18 19 0 0
BITMAP
000400
001C00
003000
002000
00FF80
00FF80
01E000
016000
036000
026000
067E00
0C7E00
0C6000
1FE000
1FE000
306000
306000
607FC0
E07FC0
ENDCHAR
STARTCHAR aeacute
ENCODING 509
SWIDTH 789 0
DWIDTH 17 0
BBX 15 16 1 0
BITMAP
0040
00C0
0180
0300
0000
3C78
FFFC
4384
0306
1F0C
7FFC
C3E0
8300
C784
FFFE
78F8
ENDCHAR
STARTCHAR Oslashacute
ENCODING 510
SWIDTH 795 0
DWIDTH 17 0
BBX 15 20 1 -1
BITMAP
0020
00E0
0180
0100
07F0
1FF0
3078
60DC
60CC
C084
C184
C106
C304
C204
660C
660C
3438
1FF0
0FC0
1800
ENDCHAR
STARTCHAR oslashacute
ENCODING 511
SWIDTH 585 0
DWIDTH 12 0
BBX 10 16 1 0
BITMAP
0300
0300
0600
0C00
0000
1F80
7F80
63C0
C2C0
C640
CC40
CC40
D8C0
70C0
7F80
7E00
ENDCHAR
STARTCHAR uni0200
ENCODING 512
SWIDTH 681 0
DWIDTH 14 0
BBX 13 19 1 0
BITMAP
4400
EE00
3B80
0900
0200
0600
0700
0F00
0F00
0980
1980
18C0
30C0
3FC0
7FE0
6060
6030
C030
C018
ENDCHAR
STARTCHAR uni0201
ENCODING 513
SWIDTH 504 0
DWIDTH 11 0
BBX 11 16 -1 0
BITMAP
4400
CC00
6600
3300
1100
0F80
3FC0
10C0
00C0
0FC0
3FC0
30C0
20C0
30C0
3FC0
1F60
ENDCHAR
STARTCHAR uni0202
ENCODING 514
SWIDTH 681 0
DWIDTH 14 0
BBX 13 19 1 0
BITMAP
0600
0F80
1980
0000
0200
0600
0700
0F00
0F00
0980
1980
18C0
30C0
3FC0
7FE0
6060
6030
C030
C018
ENDCHAR
STARTCHAR uni0203
ENCODING 515
SWIDTH 504 0
DWIDTH 11 0
BBX 9 16 1 0
BITMAP
1800
3C00
6600
6600
0000
3E00
FF00
4300
0300
3F00
FF00
C300
8300
C300
FF00
7D80
ENDCHAR
STARTCHAR uni0204
ENCODING 516
SWIDTH 607 0
DWIDTH 13 0
BBX 11 19 1 0
BITMAP
4C00
EE00
3B80
0900
7FC0
7FC0
6000
6000
6000
6000
7F00
7F00
6000
6000
6000
6000
6000
7FE0
7FE0
ENDCHAR
STARTCHAR uni0205
ENCODING 517
SWIDTH 521 0
DWIDTH 11 0
BBX 10 16 0 0
BITMAP
8800
CC00
6600
3300
1100
0F00
3F80
30C0
60C0
7FC0
7FC0
6000
6000
6080
3FC0
1F00
ENDCHAR
STARTCHAR uni0206
ENCODING 518
SWIDTH 607 0
DWIDTH 13 0
BBX 10 19 2 0
BITMAP
0C00
1F00
3300
0000
FF80
FF80
C000
C000
C000
C000
FE00
FE00
C000
C000
C000
C000
C000
FFC0
FFC0
ENDCHAR
STARTCHAR uni0207
ENCODING 519
SWIDTH 521 0
DWIDTH 11 0
BBX 9 16 1 0
BITMAP
0800
3E00
3300
2300
0000
1E00
7F00
6180
C180
FF80
FF80
C000
C000
C100
7F80
3E00
ENDCHAR
STARTCHAR uni0208
ENCODING 520
SWIDTH 276 0
DWIDTH 6 0
BBX 8 20 -3 0
BITMAP
44
EE
66
33
11
06
06
06
06
06
06
06
06
06
06
06
06
06
06
06
ENDCHAR
STARTCHAR uni0209
ENCODING 521
SWIDTH 274 0
DWIDTH 6 0
BBX 9 16 -3 0
BITMAP
8800
CC00
6600
3300
1100
0400
0400
0400
0400
0400
0400
0400
0400
0400
0780
0700
ENDCHAR
STARTCHAR uni020A
ENCODING 522
SWIDTH 276 0
DWIDTH 6 0
BBX 5 19 0 0
BITMAP
70
78
C8
C8
30
30
30
30
30
30
30
30
30
30
30
30
30
30
30
ENDCHAR
STARTCHAR uni020B
ENCODING 523
SWIDTH 274 0
DWIDTH 6 0
BBX 6 15 0 0
BITMAP
70
F8
D8
D8
20
20
20
20
20
20
20
20
20
3C
38
ENDCHAR
STARTCHAR uni020C
ENCODING 524
SWIDTH 795 0
DWIDTH 17 0
BBX 15 19 1 0
BITMAP
2200
7F00
1DC0
0440
07C0
1FF0
3038
601C
600C
C004
C004
C006
C004
C004
600C
600C
3038
1FF0
07C0
ENDCHAR
STARTCHAR uni020D
ENCODING 525
SWIDTH 573 0
DWIDTH 12 0
BBX 11 16 0 0
BITMAP
4400
EE00
7700
1980
1100
0F00
3FC0
30C0
6060
6060
6020
6060
6060
30C0
3FC0
0F00
ENDCHAR
STARTCHAR uni020E
ENCODING 526
SWIDTH 795 0
DWIDTH 17 0
BBX 15 19 1 0
BITMAP
0100
07C0
0C40
0000
07C0
1FF0
3038
601C
600C
C004
C004
C006
C004
C004
600C
600C
3038
1FF0
07C0
ENDCHAR
STARTCHAR uni020F
ENCODING 527
SWIDTH 573 0
DWIDTH 12 0
BBX 10 16 1 0
BITMAP
0C00
1F00
3300
3100
0000
1E00
7F80
6180
C0C0
C0C0
C040
C0C0
C0C0
6180
7F80
1E00
ENDCHAR
STARTCHAR uni0210
ENCODING 528
SWIDTH 634 0
DWIDTH 13 0
BBX 13 19 0 0
BITMAP
8800
FE00
3700
1100
3F80
3FC0
3060
3060
3060
3060
30C0
37C0
3700
3300
3180
30C0
3060
3070
3038
ENDCHAR
STARTCHAR uni0211
ENCODING 529
SWIDTH 376 0
DWIDTH 8 0
BBX 9 16 -1 0
BITMAP
4400
CC00
6600
3300
1100
3780
3F00
1800
1000
1000
1000
1000
1000
1000
1000
1000
ENDCHAR
STARTCHAR uni0212
ENCODING 530
SWIDTH 634 0
DWIDTH 13 0
BBX 11 19 2 0
BITMAP
1000
7C00
4600
0000
FE00
FF00
C180
C180
C180
C180
C300
DF00
DC00
CC00
C600
C300
C180
C1C0
C0E0
ENDCHAR
STARTCHAR uni0213
ENCODING 531
SWIDTH 376 0
DWIDTH 8 0
BBX 7 16 1 0
BITMAP
18
3C
66
66
00
DE
FC
60
40
40
40
40
40
40
40
40
ENDCHAR
STARTCHAR uni0214
ENCODING 532
SWIDTH 706 0
DWIDTH 15 0
BBX 11 19 2 0
BITMAP
8800
FE00
3700
1100
8060
8060
8060
8060
8060
8060
8060
8060
8060
8060
C060
C060
60C0
7F80
1F00
ENDCHAR
STARTCHAR uni0215
ENCODING 533
SWIDTH 557 0
DWIDTH 12 0
BBX 11 16 0 0
BITMAP
4400
CC00
6600
3300
1100
60C0
60C0
60C0
60C0
60C0
60C0
60C0
60C0
61C0
3F60
1E40
ENDCHAR
STARTCHAR uni0216
ENCODING 534
SWIDTH 706 0
DWIDTH 15 0
BBX 11 19 2 0
BITMAP
0400
1F00
1100
2080
8060
8060
8060
8060
8060
8060
8060
8060
8060
8060
C060
C060
60C0
7F80
1F00
ENDCHAR
STARTCHAR uni0217
ENCODING 535
SWIDTH 557 0
DWIDTH 12 0
BBX 10 16 1 0
BITMAP
0C00
1E00
3300
3300
0000
C180
C180
C180
C180
C180
C180
C180
C180
C380
7EC0
3C80
ENDCHAR
STARTCHAR uni0218
ENCODING 536
SWIDTH 557 0
DWIDTH 12 0
BBX 10 21 1 -6
BITMAP
1E00
3F00
6180
6000
6000
3000
1C00
0700
0180
00C0
00C0
C0C0
C180
7F80
1E00
0000
0000
0C00
0C00
0800
0800
ENDCHAR
STARTCHAR uni0219
ENCODING 537
SWIDTH 438 0
DWIDTH 9 0
BBX 8 17 1 -6
BITMAP
3C
7E
C0
C0
70
1C
06
03
83
FE
7C
00
00
18
18
10
10
ENDCHAR
STARTCHAR uni021A
ENCODING 538
SWIDTH 602 0
DWIDTH 13 0
BBX 11 21 1 -6
BITMAP
FFE0
FFE0
0C00
0C00
0C00
0C00
0C00
0C00
0C00
0C00
0C00
0C00
0C00
0C00
0C00
0000
0000
0400
0C00
0C00
0800
ENDCHAR
STARTCHAR uni021B
ENCODING 539
SWIDTH 348 0
DWIDTH 7 0
BBX 6 20 1 -6
BITMAP
C0
C0
C0
F8
F8
C0
C0
C0
C0
C0
C0
40
78
3C
00
00
18
30
30
20
ENDCHAR
STARTCHAR uni021E
ENCODING 542
SWIDTH 693 0
DWIDTH 15 0
BBX 11 19 2 0
BITMAP
7380
1E00
0C00
0000
C060
C060
C060
C060
C060
C060
FFE0
FFE0
C060
C060
C060
C060
C060
C060
C060
ENDCHAR
STARTCHAR uni021F
ENCODING 543
SWIDTH 550 0
DWIDTH 12 0
BBX 11 20 -1 0
BITMAP
C600
6C00
3800
0000
0000
1000
1000
1000
1000
17C0
1FE0
1860
1060
1060
1060
1060
1060
1060
1060
1060
ENDCHAR
STARTCHAR uni0226
ENCODING 550
SWIDTH 681 0
DWIDTH 14 0
BBX 13 18 1 0
BITMAP
0600
0600
0000
0200
0600
0700
0F00
0F00
0980
1980
18C0
30C0
3FC0
7FE0
6060
6030
C030
C018
ENDCHAR
STARTCHAR uni0227
ENCODING 551
SWIDTH 504 0
DWIDTH 11 0
BBX 9 15 1 0
BITMAP
1800
1800
0000
0000
3E00
FF00
4300
0300
3F00
FF00
C300
8300
C300
FF00
7D80
ENDCHAR
STARTCHAR uni0228
ENCODING 552
SWIDTH 607 0
DWIDTH 13 0
BBX 10 20 2 -5
BITMAP
FF80
FF80
C000
C000
C000
C000
FE00
FE00
C000
C000
C000
C000
C000
FFC0
FFC0
0C00
0E00
0200
0600
0C00
ENDCHAR
STARTCHAR uni0229
ENCODING 553
SWIDTH 521 0
DWIDTH 11 0
BBX 9 16 1 -5
BITMAP
1E00
7F00
6180
C180
C180
FF80
FF80
C000
C000
6100
3F80
0800
0C00
1600
0C00
0800
ENDCHAR
STARTCHAR uni022A
ENCODING 554
SWIDTH 795 0
DWIDTH 17 0
BBX 15 21 1 0
BITMAP
0FE0
0FE0
0000
0CE0
0C60
0000
07C0
1FF0
3038
601C
600C
C004
C004
C006
C004
C004
600C
600C
3038
1FF0
07C0
ENDCHAR
STARTCHAR uni022B
ENCODING 555
SWIDTH 573 0
DWIDTH 12 0
BBX 10 18 1 0
BITMAP
7F80
7F80
0000
0000
3300
3300
0000
1E00
7F80
6180
C0C0
C0C0
C040
C0C0
C0C0
6180
7F80
1E00
ENDCHAR
STARTCHAR uni022C
ENCODING 556
SWIDTH 795 0
DWIDTH 17 0
BBX 15 21 1 0
BITMAP
0FE0
0FE0
0000
07E0
0FC0
0000
07C0
1FF0
3038
601C
600C
C004
C004
C006
C004
C004
600C
600C
3038
1FF0
07C0
ENDCHAR
STARTCHAR uni022D
ENCODING 557
SWIDTH 573 0
DWIDTH 12 0
BBX 10 18 1 0
BITMAP
7F80
7F80
0000
0000
3F00
7F80
0000
1E00
7F80
6180
C0C0
C0C0
C040
C0C0
C0C0
6180
7F80
1E00
ENDCHAR
STARTCHAR uni0230
ENCODING 560
SWIDTH 795 0
DWIDTH 17 0
BBX 15 21 1 0
BITMAP
0FE0
0FE0
0000
0300
0300
0000
07C0
1FF0
3038
601C
600C
C004
C004
C006
C004
C004
600C
600C
3038
1FF0
07C0
ENDCHAR
STARTCHAR uni0231
ENCODING 561
SWIDTH 573 0
DWIDTH 12 0
BBX 10 18 1 0
BITMAP
7F80
7F80
0000
0C00
0C00
0000
0000
1E00
7F80
6180
C0C0
C0C0
C040
C0C0
C0C0
6180
7F80
1E00
ENDCHAR
STARTCHAR uni0232
ENCODING 562
SWIDTH 565 0
DWIDTH 12 0
BBX 10 18 1 0
BITMAP
7F00
7F00
0000
C0C0
C080
6180
6300
3300
3600
1E00
1C00
0C00
0C00
0C00
0C00
0C00
0C00
0C00
ENDCHAR
STARTCHAR uni0233
ENCODING 563
SWIDTH 493 0
DWIDTH 10 0
BBX 10 19 0 -5
BITMAP
3F80
3F80
0000
C0C0
6080
6180
3180
3180
1300
1B00
1B00
0E00
0E00
0600
0400
0C00
0C00
7800
3000
ENDCHAR
STARTCHAR uni0237
ENCODING 567
SWIDTH 237 0
DWIDTH 5 0
BBX 4 16 -1 -5
BITMAP
10
10
10
10
10
10
10
10
10
10
10
10
10
10
F0
70
ENDCHAR
STARTCHAR uni0244
ENCODING 580
SWIDTH 706 0
DWIDTH 15 0
BBX 13 15 1 0
BITMAP
4030
4030
4030
4030
4030
4030
4030
FFF8
FFF8
4030
6030
6030
3060
3FC0
0F80
ENDCHAR
STARTCHAR uni0259
ENCODING 601
SWIDTH 508 0
DWIDTH 11 0
BBX 9 11 1 0
BITMAP
7C00
FF00
8300
0180
3F80
7F80
C180
C100
C300
7E00
3C00
ENDCHAR
STARTCHAR uni0268
ENCODING 616
SWIDTH 274 0
DWIDTH 6 0
BBX 7 15 -1 0
BITMAP
30
30
00
00
10
10
10
10
FC
FC
10
10
10
1E
1C
ENDCHAR
STARTCHAR uni0272
ENCODING 626
SWIDTH 602 0
DWIDTH 13 0
BBX 11 15 -1 -4
BITMAP
33C0
3FE0
1860
1060
1060
1060
1060
1060
1060
1060
1060
1000
1000
F000
7000
ENDCHAR
STARTCHAR uni0289
ENCODING 649
SWIDTH 557 0
DWIDTH 12 0
BBX 10 11 1 0
BITMAP
C180
C180
C180
C180
FF80
FF80
C180
C180
4380
7EC0
3C80
ENDCHAR
STARTCHAR uni02B9
ENCODING 697
SWIDTH 239 0
DWIDTH 5 0
BBX 2 4 1 11
BITMAP
C0
40
40
40
ENDCHAR
STARTCHAR uni02BA
ENCODING 698
SWIDTH 372 0
DWIDTH 8 0
BBX 4 4 2 11
BITMAP
F0
F0
90
90
ENDCHAR
STARTCHAR uni02BC
ENCODING 700
SWIDTH 229 0
DWIDTH 5 0
BBX 3 6 1 9
BITMAP
40
60
60
40
C0
80
ENDCHAR
STARTCHAR circumflex
ENCODING 710
SWIDTH 360 0
DWIDTH 8 0
BBX 7 3 0 12
BITMAP
18
3C
E6
ENDCHAR
STARTCHAR caron
ENCODING 711
SWIDTH 381 0
DWIDTH 8 0
BBX 8 3 0 12
BITMAP
E7
3C
18
ENDCHAR
STARTCHAR breve
ENCODING 728
SWIDTH 398 0
DWIDTH 8 0
BBX 6 3 1 12
BITMAP
C4
CC
78
ENDCHAR
STARTCHAR dotaccent
ENCODING 729
SWIDTH 222 0
DWIDTH 5 0
BBX 2 2 1 13
BITMAP
C0
C0
ENDCHAR
STARTCHAR ring
ENCODING 730
SWIDTH 323 0
DWIDTH 7 0
BBX 5 5 1 12
BITMAP
70
F8
D8
F8
70
ENDCHAR
STARTCHAR ogonek
ENCODING 731
SWIDTH 282 0
DWIDTH 6 0
BBX 4 5 1 -4
BITMAP
70
40
C0
F0
70
ENDCHAR
STARTCHAR tilde
ENCODING 732
SWIDTH 442 0
DWIDTH 9 0
BBX 7 2 1 12
BITMAP
7E
FE
ENDCHAR
STARTCHAR hungarumlaut
ENCODING 733
SWIDTH 438 0
DWIDTH 9 0
BBX 8 4 1 12
BITMAP
33
66
CC
98
ENDCHAR
STARTCHAR gravecomb
ENCODING 768
SWIDTH 0 0
DWIDTH 0 0
BBX 4 5 -5 11
BITMAP
40
E0
60
30
10
ENDCHAR
STARTCHAR acutecomb
ENCODING 769
SWIDTH 0 0
DWIDTH 0 0
BBX 4 4 -5 12
BITMAP
30
30
60
C0
ENDCHAR
STARTCHAR uni0302
ENCODING 770
SWIDTH 0 0
DWIDTH 0 0
BBX 6 3 -7 12
BITMAP
30
78
CC
ENDCHAR
STARTCHAR tildecomb
ENCODING 771
SWIDTH 0 0
DWIDTH 0 0
BBX 7 2 -8 12
BITMAP
7E
FC
ENDCHAR
STARTCHAR uni0304
ENCODING 772
SWIDTH 0 0
DWIDTH 0 0
BBX 7 2 -8 12
BITMAP
FE
FE
ENDCHAR
STARTCHAR uni0306
ENCODING 774
SWIDTH 0 0
DWIDTH 0 0
BBX 6 3 -7 12
BITMAP
CC
CC
78
ENDCHAR
STARTCHAR uni0307
ENCODING 775
SWIDTH 0 0
DWIDTH 0 0
BBX 2 2 -3 13
BITMAP
C0
C0
ENDCHAR
STARTCHAR uni0308
ENCODING 776
SWIDTH 0 0
DWIDTH 0 0
BBX 6 2 -8 12
BITMAP
CC
CC
ENDCHAR
STARTCHAR hookabovecomb
ENCODING 777
SWIDTH 0 0
DWIDTH 0 0
BBX 4 5 -5 12
BITMAP
40
F0
B0
30
60
ENDCHAR
STARTCHAR uni030A
ENCODING 778
SWIDTH 0 0
DWIDTH 0 0
BBX 4 5 -5 12
BITMAP
E0
F0
90
F0
E0
ENDCHAR
STARTCHAR uni030B
ENCODING 779
SWIDTH 0 0
DWIDTH 0 0
BBX 8 4 -9 12
BITMAP
33
33
66
CC
ENDCHAR
STARTCHAR uni030C
ENCODING 780
SWIDTH 0 0
DWIDTH 0 0
BBX 8 3 -8 12
BITMAP
E7
3C
18
ENDCHAR
STARTCHAR uni030F
ENCODING 783
SWIDTH 0 0
DWIDTH 0 0
BBX 8 5 -9 11
BITMAP
44
EE
66
33
11
ENDCHAR
STARTCHAR uni0311
ENCODING 785
SWIDTH 0 0
DWIDTH 0 0
BBX 6 4 -7 12
BITMAP
30
F8
CC
8C
ENDCHAR
STARTCHAR uni0312
ENCODING 786
SWIDTH 0 0
DWIDTH 0 0
BBX 2 4 -3 12
BITMAP
C0
C0
C0
C0
ENDCHAR
STARTCHAR uni031B
ENCODING 795
SWIDTH 0 0
DWIDTH 0 0
BBX 4 4 -5 11
BITMAP
10
30
F0
60
ENDCHAR
STARTCHAR dotbelowcomb
ENCODING 803
SWIDTH 0 0
DWIDTH 0 0
BBX 2 2 -3 -3
BITMAP
C0
C0
ENDCHAR
STARTCHAR uni0324
ENCODING 804
SWIDTH 0 0
DWIDTH 0 0
BBX 6 2 -8 -4
BITMAP
CC
CC
ENDCHAR
STARTCHAR uni0326
ENCODING 806
SWIDTH 0 0
DWIDTH 0 0
BBX 3 4 -4 -6
BITMAP
60
60
40
C0
ENDCHAR
STARTCHAR uni0327
ENCODING 807
SWIDTH 0 0
DWIDTH 0 0
BBX 3 5 -4 -5
BITMAP
C0
E0
20
60
C0
ENDCHAR
STARTCHAR uni0328
ENCODING 808
SWIDTH 0 0
DWIDTH 0 0
BBX 4 5 -5 -4
BITMAP
30
60
C0
F0
70
ENDCHAR
STARTCHAR uni032D
ENCODING 813
SWIDTH 0 0
DWIDTH 0 0
BBX 6 3 -7 -5
BITMAP
30
78
CC
ENDCHAR
STARTCHAR uni032E
ENCODING 814
SWIDTH 0 0
DWIDTH 0 0
BBX 6 3 -7 -5
BITMAP
CC
CC
78
ENDCHAR
STARTCHAR uni0331
ENCODING 817
SWIDTH 0 0
DWIDTH 0 0
BBX 7 2 -8 -3
BITMAP
FE
FE
ENDCHAR
STARTCHAR uni0335
ENCODING 821
SWIDTH 0 0
DWIDTH 0 0
BBX 7 2 -8 5
BITMAP
FE
FE
ENDCHAR
STARTCHAR uni0336
ENCODING 822
SWIDTH 0 0
DWIDTH 0 0
BBX 9 2 -11 5
BITMAP
FF80
FF80
ENDCHAR
STARTCHAR uni0337
ENCODING 823
SWIDTH 0 0
DWIDTH 0 0
BBX 6 5 -7 6
BITMAP
04
0C
38
E0
40
ENDCHAR
STARTCHAR uni0338
ENCODING 824
SWIDTH 0 0
DWIDTH 0 0
BBX 8 16 -8 -1
BITMAP
03
03
06
06
04
0C
08
18
18
10
30
20
60
60
C0
C0
ENDCHAR
STARTCHAR uni0340
ENCODING 832
SWIDTH 0 0
DWIDTH 0 0
BBX 4 5 -5 11
BITMAP
40
E0
60
30
10
ENDCHAR
STARTCHAR uni0341
ENCODING 833
SWIDTH 0 0
DWIDTH 0 0
BBX 4 4 -2 12
BITMAP
30
70
60
C0
ENDCHAR
STARTCHAR uni0344
ENCODING 836
SWIDTH 0 0
DWIDTH 0 0
BBX 7 7 -5 16
BITMAP
CE
C4
00
04
0C
18
30
ENDCHAR
STARTCHAR uni0374
ENCODING 884
SWIDTH 317 0
DWIDTH 7 0
BBX 2 4 2 11
BITMAP
C0
C0
C0
40
ENDCHAR
STARTCHAR uni037E
ENCODING 894
SWIDTH 246 0
DWIDTH 5 0
BBX 3 12 1 -2
BITMAP
60
60
00
00
00
00
00
00
60
40
40
C0
ENDCHAR
STARTCHAR anoteleia
ENCODING 903
SWIDTH 285 0
DWIDTH 6 0
BBX 2 3 2 5
BITMAP
C0
C0
C0
ENDCHAR
STARTCHAR uni0394
ENCODING 916
SWIDTH 582 0
DWIDTH 12 0
BBX 10 14 1 0
BITMAP
0C00
1E00
1E00
1A00
3300
3300
3100
2180
6180
6180
40C0
C0C0
FFC0
FFC0
ENDCHAR
STARTCHAR uni03A9
ENCODING 937
SWIDTH 641 0
DWIDTH 13 0
BBX 11 15 1 0
BITMAP
0400
1F80
30C0
60C0
6060
6060
4060
4060
6060
6040
60C0
30C0
3180
F9E0
F9E0
ENDCHAR
STARTCHAR uni03BC
ENCODING 956
SWIDTH 552 0
DWIDTH 12 0
BBX 9 16 2 -5
BITMAP
8300
8300
8300
8300
8300
8300
8300
8300
8700
FD00
F980
8000
8000
8000
8000
8000
ENDCHAR
STARTCHAR omicron
ENCODING 959
SWIDTH 573 0
DWIDTH 12 0
BBX 10 11 1 0
BITMAP
1E00
7F80
6180
C0C0
C0C0
C040
C0C0
C0C0
6180
7F80
1E00
ENDCHAR
STARTCHAR pi
ENCODING 960
SWIDTH 568 0
DWIDTH 12 0
BBX 11 12 0 0
BITMAP
0020
FFE0
FFC0
1880
1880
1080
1080
1080
1080
1080
30E0
3060
ENDCHAR
STARTCHAR uni03D6
ENCODING 982
SWIDTH 568 0
DWIDTH 12 0
BBX 11 12 0 0
BITMAP
0020
FFE0
FFC0
1880
1880
1080
1080
1080
1080
1080
30E0
3060
ENDCHAR
STARTCHAR uni0400
ENCODING 1024
SWIDTH 607 0
DWIDTH 13 0
BBX 10 19 2 0
BITMAP
6000
7000
1800
0800
FF80
FF80
C000
C000
C000
C000
FE00
FE00
C000
C000
C000
C000
C000
FFC0
FFC0
ENDCHAR
STARTCHAR uni0401
ENCODING 1025
SWIDTH 607 0
DWIDTH 13 0
BBX 10 18 2 0
BITMAP
7300
2300
0000
FF80
FF80
C000
C000
C000
C000
FE00
FE00
C000
C000
C000
C000
C000
FFC0
FFC0
ENDCHAR
STARTCHAR uni040D.dup1
ENCODING 1037
SWIDTH 751 0
DWIDTH 16 0
BBX 12 19 2 0
BITMAP
1000
3800
0E00
0400
C010
C030
C070
C0F0
C1F0
C1B0
C330
C630
CC30
CC30
D830
F030
E030
C030
8030
ENDCHAR
STARTCHAR uni0410
ENCODING 1040
SWIDTH 681 0
DWIDTH 14 0
BBX 13 15 1 0
BITMAP
0200
0600
0700
0F00
0F00
0980
1980
18C0
30C0
3FC0
7FE0
6060
6030
C030
C018
ENDCHAR
STARTCHAR uni0411
ENCODING 1041
SWIDTH 588 0
DWIDTH 12 0
BBX 9 15 2 0
BITMAP
FF00
FF00
C000
C000
C000
C000
F800
FF00
C380
C180
C080
C080
C180
FF00
FE00
ENDCHAR
STARTCHAR uni0412
ENCODING 1042
SWIDTH 615 0
DWIDTH 13 0
BBX 10 15 2 0
BITMAP
FE00
FF00
C180
C180
C180
C180
FF00
FF00
C180
C0C0
C0C0
C0C0
C180
FF80
FE00
ENDCHAR
STARTCHAR uni0413
ENCODING 1043
SWIDTH 549 0
DWIDTH 12 0
BBX 9 15 2 0
BITMAP
FF80
FF80
C000
C000
C000
C000
C000
C000
C000
C000
C000
C000
C000
C000
C000
ENDCHAR
STARTCHAR uni0414
ENCODING 1044
SWIDTH 753 0
DWIDTH 16 0
BBX 14 18 1 -3
BITMAP
07F0
07F0
0630
0430
0430
0C30
0C30
0830
1830
1830
3030
3030
6030
FFFC
FFFC
800C
800C
800C
ENDCHAR
STARTCHAR uni0415
ENCODING 1045
SWIDTH 607 0
DWIDTH 13 0
BBX 10 15 2 0
BITMAP
FF80
FF80
C000
C000
C000
C000
FE00
FE00
C000
C000
C000
C000
C000
FFC0
FFC0
ENDCHAR
STARTCHAR uni0416
ENCODING 1046
SWIDTH 921 0
DWIDTH 19 0
BBX 17 16 1 0
BITMAP
800080
C0C180
40C180
60C100
60C300
20C300
30C600
1FFC00
0FFC00
18CE00
30C200
20C300
60C300
60C100
C0C180
C0C080
ENDCHAR
STARTCHAR uni0417
ENCODING 1047
SWIDTH 588 0
DWIDTH 12 0
BBX 10 15 1 0
BITMAP
3E00
FF80
4180
00C0
0080
0180
3F00
3F80
00C0
00C0
0040
00C0
80C0
FF80
3E00
ENDCHAR
STARTCHAR uni0418
ENCODING 1048
SWIDTH 751 0
DWIDTH 16 0
BBX 12 15 2 0
BITMAP
C010
C030
C070
C0F0
C1F0
C1B0
C330
C630
CC30
CC30
D830
F030
E030
C030
8030
ENDCHAR
STARTCHAR uni0419
ENCODING 1049
SWIDTH 751 0
DWIDTH 16 0
BBX 12 19 2 0
BITMAP
1980
1980
0F00
0000
C010
C030
C070
C0F0
C1F0
C1B0
C330
C630
CC30
CC30
D830
F030
E030
C030
8030
ENDCHAR
STARTCHAR uni041A
ENCODING 1050
SWIDTH 668 0
DWIDTH 14 0
BBX 11 15 2 0
BITMAP
C0E0
C1E0
C100
C100
C300
C200
FE00
FE00
C700
C300
C180
C180
C0C0
C0C0
C060
ENDCHAR
STARTCHAR uni041B
ENCODING 1051
SWIDTH 723 0
DWIDTH 15 0
BBX 12 15 1 0
BITMAP
1FF0
1FF0
1830
1830
1830
1830
1830
1830
1830
1830
1830
1030
3030
F030
E030
ENDCHAR
STARTCHAR uni041C
ENCODING 1052
SWIDTH 824 0
DWIDTH 17 0
BBX 13 15 2 0
BITMAP
8008
C018
E018
E038
F068
D8E8
DCC8
CF88
C708
C208
C008
C008
C008
C008
C008
ENDCHAR
STARTCHAR uni041D
ENCODING 1053
SWIDTH 693 0
DWIDTH 15 0
BBX 11 15 2 0
BITMAP
C060
C060
C060
C060
C060
C060
FFE0
FFE0
C060
C060
C060
C060
C060
C060
C060
ENDCHAR
STARTCHAR uni041E
ENCODING 1054
SWIDTH 795 0
DWIDTH 17 0
BBX 15 15 1 0
BITMAP
07C0
1FF0
3038
601C
600C
C004
C004
C006
C004
C004
600C
600C
3038
1FF0
07C0
ENDCHAR
STARTCHAR uni041F
ENCODING 1055
SWIDTH 703 0
DWIDTH 15 0
BBX 11 15 2 0
BITMAP
FFE0
FFE0
C060
C060
C060
C060
C060
C060
C060
C060
C060
C060
C060
C060
C060
ENDCHAR
STARTCHAR uni0420
ENCODING 1056
SWIDTH 566 0
DWIDTH 12 0
BBX 9 15 2 0
BITMAP
FE00
FF00
C100
C180
C180
C180
C180
C300
FE00
F000
C000
C000
C000
C000
C000
ENDCHAR
STARTCHAR uni0421
ENCODING 1057
SWIDTH 716 0
DWIDTH 15 0
BBX 13 15 1 0
BITMAP
07C0
1FF0
3030
6010
6000
C000
C000
C000
C000
C000
4000
6008
3038
1FF0
07C0
ENDCHAR
STARTCHAR uni0422
ENCODING 1058
SWIDTH 602 0
DWIDTH 13 0
BBX 11 15 1 0
BITMAP
FFE0
FFE0
0C00
0C00
0C00
0C00
0C00
0C00
0C00
0C00
0C00
0C00
0C00
0C00
0C00
ENDCHAR
STARTCHAR uni0423
ENCODING 1059
SWIDTH 633 0
DWIDTH 13 0
BBX 12 15 1 0
BITMAP
C030
4060
6060
20C0
30C0
1180
1980
0900
0F00
0600
0600
0400
0C00
7800
F000
ENDCHAR
STARTCHAR uni0424
ENCODING 1060
SWIDTH 811 0
DWIDTH 17 0
BBX 15 16 1 -1
BITMAP
0100
0380
1FF0
3938
610C
4104
C106
C106
C106
C106
C106
610C
3118
1FF0
07C0
0100
ENDCHAR
STARTCHAR uni0425
ENCODING 1061
SWIDTH 631 0
DWIDTH 13 0
BBX 12 15 1 0
BITMAP
C060
60C0
6180
3180
1B00
1F00
0E00
0C00
1E00
1B00
3300
3180
60C0
60E0
C070
ENDCHAR
STARTCHAR uni0426
ENCODING 1062
SWIDTH 731 0
DWIDTH 15 0
BBX 13 18 2 -3
BITMAP
C060
C060
C060
C060
C060
C060
C060
C060
C060
C060
C060
C060
C060
FFF8
FFF8
0018
0018
0018
ENDCHAR
STARTCHAR uni0427
ENCODING 1063
SWIDTH 648 0
DWIDTH 14 0
BBX 11 15 1 0
BITMAP
C060
C060
C060
C060
C060
C060
C0E0
40E0
7FE0
3E60
0060
0060
0060
0060
0060
ENDCHAR
STARTCHAR uni0428
ENCODING 1064
SWIDTH 988 0
DWIDTH 21 0
BBX 17 15 2 0
BITMAP
C08180
C08180
C08180
C08180
C08180
C08180
C08180
C08180
C08180
C08180
C08180
C08180
C08180
FFFF80
FFFF80
ENDCHAR
STARTCHAR uni0429
ENCODING 1065
SWIDTH 988 0
DWIDTH 21 0
BBX 19 18 2 -3
BITMAP
C08180
C08180
C08180
C08180
C08180
C08180
C08180
C08180
C08180
C08180
C08180
C08180
C08180
FFFFE0
FFFFE0
000060
000060
000060
ENDCHAR
STARTCHAR uni042A
ENCODING 1066
SWIDTH 686 0
DWIDTH 14 0
BBX 13 15 1 0
BITMAP
F800
F800
1800
1800
1800
1800
1F00
1FE0
1830
1830
1818
1810
1830
1FF0
1FC0
ENDCHAR
STARTCHAR uni042B
ENCODING 1067
SWIDTH 860 0
DWIDTH 18 0
BBX 14 15 2 0
BITMAP
C00C
C00C
C00C
C00C
C00C
C00C
F80C
FF0C
C38C
C18C
C08C
C08C
C18C
FF0C
FE0C
ENDCHAR
STARTCHAR uni042C
ENCODING 1068
SWIDTH 584 0
DWIDTH 12 0
BBX 9 15 2 0
BITMAP
C000
C000
C000
C000
C000
C000
F800
FF00
C380
C180
C080
C080
C180
FF00
FE00
ENDCHAR
STARTCHAR uni042D
ENCODING 1069
SWIDTH 633 0
DWIDTH 13 0
BBX 11 16 1 0
BITMAP
1800
FF00
C380
00C0
00C0
0060
0060
1FE0
1FE0
0060
0060
0060
00C0
8180
FF00
7E00
ENDCHAR
STARTCHAR uni042E
ENCODING 1070
SWIDTH 971 0
DWIDTH 20 0
BBX 17 15 2 0
BITMAP
C0F800
C3FE00
C70700
C60300
CC0180
CC0180
F80180
F80080
C80180
CC0180
CC0180
C60300
C70700
C3FE00
C0F800
ENDCHAR
STARTCHAR uni042F
ENCODING 1071
SWIDTH 634 0
DWIDTH 13 0
BBX 10 15 1 0
BITMAP
0FC0
3FC0
3040
2040
6040
6040
3040
3F40
1F40
0F40
1C40
1840
3040
E040
C040
ENDCHAR
STARTCHAR uni0430
ENCODING 1072
SWIDTH 504 0
DWIDTH 11 0
BBX 9 11 1 0
BITMAP
3E00
FF00
4300
0300
3F00
FF00
C300
8300
C300
FF00
7D80
ENDCHAR
STARTCHAR uni0431
ENCODING 1073
SWIDTH 559 0
DWIDTH 12 0
BBX 10 16 1 0
BITMAP
0380
1F80
3800
6000
6000
5E00
FF80
E180
C0C0
C0C0
C0C0
C0C0
C0C0
6180
7F00
1E00
ENDCHAR
STARTCHAR uni0432
ENCODING 1074
SWIDTH 521 0
DWIDTH 11 0
BBX 8 11 2 0
BITMAP
FC
FE
82
82
FE
FE
83
83
83
FF
FE
ENDCHAR
STARTCHAR uni0433
ENCODING 1075
SWIDTH 444 0
DWIDTH 9 0
BBX 7 11 2 0
BITMAP
FE
FE
80
80
80
80
80
80
80
80
80
ENDCHAR
STARTCHAR uni0434
ENCODING 1076
SWIDTH 586 0
DWIDTH 12 0
BBX 12 13 0 -2
BITMAP
0FC0
0FC0
0840
0840
1840
1840
1840
3040
3040
FFF0
FFF0
C030
C030
ENDCHAR
STARTCHAR uni0435
ENCODING 1077
SWIDTH 520 0
DWIDTH 11 0
BBX 9 11 1 0
BITMAP
1E00
7F00
6180
C180
FF80
FF80
C000
C000
C100
7F80
3E00
ENDCHAR
STARTCHAR uni0436
ENCODING 1078
SWIDTH 721 0
DWIDTH 15 0
BBX 13 12 1 0
BITMAP
8008
C208
C218
4210
6230
3FE0
3FE0
3230
6230
4218
C218
8208
ENDCHAR
STARTCHAR uni0437
ENCODING 1079
SWIDTH 478 0
DWIDTH 10 0
BBX 9 11 0 0
BITMAP
7E00
7F00
0180
0180
1F00
1F80
0180
0080
0180
FF00
3E00
ENDCHAR
STARTCHAR uni0438
ENCODING 1080
SWIDTH 610 0
DWIDTH 13 0
BBX 10 11 1 0
BITMAP
C0C0
C1C0
41C0
43C0
46C0
4EC0
4CC0
58C0
70C0
70C0
60C0
ENDCHAR
STARTCHAR uni0439
ENCODING 1081
SWIDTH 610 0
DWIDTH 13 0
BBX 10 15 1 0
BITMAP
3100
3300
1E00
0000
C0C0
C1C0
41C0
43C0
46C0
4EC0
4CC0
58C0
70C0
70C0
60C0
ENDCHAR
STARTCHAR uni043A
ENCODING 1082
SWIDTH 540 0
DWIDTH 11 0
BBX 9 13 2 -1
BITMAP
0100
8180
8300
8200
8600
8C00
F800
FC00
8600
8200
8300
8180
0080
ENDCHAR
STARTCHAR uni043B
ENCODING 1083
SWIDTH 569 0
DWIDTH 12 0
BBX 10 11 0 0
BITMAP
1FC0
1FC0
1840
1840
1840
1840
1040
1040
1040
7040
E040
ENDCHAR
STARTCHAR uni043C
ENCODING 1084
SWIDTH 728 0
DWIDTH 15 0
BBX 13 11 1 0
BITMAP
6030
7030
7070
5070
58D8
48D8
4C98
C598
C718
C318
C008
ENDCHAR
STARTCHAR uni043D
ENCODING 1085
SWIDTH 578 0
DWIDTH 12 0
BBX 10 11 1 0
BITMAP
C0C0
C0C0
40C0
40C0
40C0
7FC0
7FC0
40C0
40C0
40C0
40C0
ENDCHAR
STARTCHAR uni043E
ENCODING 1086
SWIDTH 573 0
DWIDTH 12 0
BBX 10 11 1 0
BITMAP
1E00
7F80
6180
C0C0
C0C0
C040
C0C0
C0C0
6180
7F80
1E00
ENDCHAR
STARTCHAR uni043F
ENCODING 1087
SWIDTH 572 0
DWIDTH 12 0
BBX 8 11 2 0
BITMAP
FF
FF
81
81
81
81
81
81
81
81
81
ENDCHAR
STARTCHAR uni0440
ENCODING 1088
SWIDTH 554 0
DWIDTH 12 0
BBX 10 16 1 -5
BITMAP
5E00
FF80
6180
60C0
40C0
40C0
40C0
4080
4180
7F00
7E00
4000
4000
4000
4000
4000
ENDCHAR
STARTCHAR uni0441
ENCODING 1089
SWIDTH 491 0
DWIDTH 10 0
BBX 9 11 1 0
BITMAP
1E00
7F00
6100
C000
C000
C000
C000
C000
C080
7F80
1E00
ENDCHAR
STARTCHAR uni0442
ENCODING 1090
SWIDTH 518 0
DWIDTH 11 0
BBX 11 11 0 0
BITMAP
FFE0
FFE0
0400
0400
0400
0400
0400
0400
0400
0400
0400
ENDCHAR
STARTCHAR uni0443
ENCODING 1091
SWIDTH 493 0
DWIDTH 10 0
BBX 10 16 0 -5
BITMAP
C0C0
6080
6180
3180
3180
1300
1B00
1B00
0E00
0E00
0600
0400
0C00
0C00
7800
3000
ENDCHAR
STARTCHAR uni0444
ENCODING 1092
SWIDTH 715 0
DWIDTH 15 0
BBX 13 18 1 -3
BITMAP
0200
0200
0200
0F80
3FE0
7270
C218
C218
8208
8208
C218
C218
6230
3FE0
0F80
0200
0200
0200
ENDCHAR
STARTCHAR uni0445
ENCODING 1093
SWIDTH 473 0
DWIDTH 10 0
BBX 9 11 0 0
BITMAP
E180
6300
3300
1E00
1E00
0C00
1E00
1E00
3300
6300
6180
ENDCHAR
STARTCHAR uni0446
ENCODING 1094
SWIDTH 607 0
DWIDTH 13 0
BBX 10 14 2 -3
BITMAP
8180
8180
8180
8180
8180
8180
8180
8180
8180
FFC0
FFC0
0040
0040
0040
ENDCHAR
STARTCHAR uni0447
ENCODING 1095
SWIDTH 519 0
DWIDTH 11 0
BBX 8 11 1 0
BITMAP
C1
C1
C1
C1
C1
C3
FF
7D
01
01
01
ENDCHAR
STARTCHAR uni0448
ENCODING 1096
SWIDTH 828 0
DWIDTH 17 0
BBX 14 11 2 0
BITMAP
830C
830C
830C
830C
830C
830C
830C
830C
830C
FFFC
FFFC
ENDCHAR
STARTCHAR uni0449
ENCODING 1097
SWIDTH 850 0
DWIDTH 18 0
BBX 15 14 2 -3
BITMAP
830C
830C
830C
830C
830C
830C
830C
830C
830C
FFFE
FFFE
0002
0002
0002
ENDCHAR
STARTCHAR uni044A
ENCODING 1098
SWIDTH 590 0
DWIDTH 12 0
BBX 12 11 0 0
BITMAP
F800
F800
1800
1800
1FC0
1FE0
1830
1830
1830
1FE0
1FC0
ENDCHAR
STARTCHAR uni044B
ENCODING 1099
SWIDTH 722 0
DWIDTH 15 0
BBX 13 11 1 0
BITMAP
C018
C018
4018
4018
7F18
7F98
4198
4198
4198
7F98
7F18
ENDCHAR
STARTCHAR uni044C
ENCODING 1100
SWIDTH 511 0
DWIDTH 11 0
BBX 8 11 2 0
BITMAP
80
80
80
80
FC
FF
83
83
83
FF
FC
ENDCHAR
STARTCHAR uni044D
ENCODING 1101
SWIDTH 504 0
DWIDTH 11 0
BBX 9 11 1 0
BITMAP
FC00
FE00
0300
0100
3F80
3F80
0180
0300
0300
FE00
FC00
ENDCHAR
STARTCHAR uni044E
ENCODING 1102
SWIDTH 806 0
DWIDTH 17 0
BBX 14 11 2 0
BITMAP
83E0
87F0
8C18
980C
F80C
F80C
980C
980C
8C18
87F8
83E0
ENDCHAR
STARTCHAR uni044F
ENCODING 1103
SWIDTH 534 0
DWIDTH 11 0
BBX 9 11 1 0
BITMAP
3F80
7F80
C180
C180
C180
7F80
1F80
1980
3180
E180
C180
ENDCHAR
STARTCHAR uni0450
ENCODING 1104
SWIDTH 520 0
DWIDTH 11 0
BBX 9 16 1 0
BITMAP
2000
7000
3800
0800
0800
1E00
7F00
6180
C180
FF80
FF80
C000
C000
C100
7F80
3E00
ENDCHAR
STARTCHAR uni0451
ENCODING 1105
SWIDTH 520 0
DWIDTH 11 0
BBX 9 14 1 0
BITMAP
6300
6300
0000
1E00
7F00
6180
C180
FF80
FF80
C000
C000
C100
7F80
3E00
ENDCHAR
STARTCHAR uni040D
ENCODING 1117
SWIDTH 751 0
DWIDTH 16 0
BBX 12 19 2 0
BITMAP
1000
3800
0E00
0400
C010
C030
C070
C0F0
C1F0
C1B0
C330
C630
CC30
CC30
D830
F030
E030
C030
8030
ENDCHAR
STARTCHAR uni0E3F
ENCODING 3647
SWIDTH 612 0
DWIDTH 13 0
BBX 9 18 2 -2
BITMAP
0800
0800
0800
FE00
CB00
C980
C980
CB00
FE00
CB00
C980
C880
C880
C980
CB80
FF00
0800
0800
ENDCHAR
STARTCHAR uni1E02
ENCODING 7682
SWIDTH 615 0
DWIDTH 13 0
BBX 10 18 2 0
BITMAP
1800
1800
0000
FE00
FF00
C180
C180
C180
C180
FF00
FF00
C180
C0C0
C0C0
C0C0
C180
FF80
FE00
ENDCHAR
STARTCHAR uni1E03
ENCODING 7683
SWIDTH 549 0
DWIDTH 12 0
BBX 10 19 1 0
BITMAP
E000
4000
0000
0000
4000
4000
4000
4000
5E00
7F00
6180
4080
40C0
40C0
40C0
4080
4180
7F00
7E00
ENDCHAR
STARTCHAR uni1E08
ENCODING 7688
SWIDTH 716 0
DWIDTH 15 0
BBX 13 25 1 -5
BITMAP
0040
00E0
01C0
0300
0000
07C0
1FF0
3030
6010
6000
C000
C000
C000
C000
C000
4000
6008
3038
1FF0
0FC0
0300
0380
0180
0380
0300
ENDCHAR
STARTCHAR uni1E09
ENCODING 7689
SWIDTH 491 0
DWIDTH 10 0
BBX 9 22 1 -5
BITMAP
0200
0300
0600
0C00
0800
0000
1E00
7F00
6100
C000
C000
C000
C000
C000
C000
6180
3F00
0C00
0E00
0600
0E00
0800
ENDCHAR
STARTCHAR uni1E0A
ENCODING 7690
SWIDTH 735 0
DWIDTH 15 0
BBX 12 18 2 0
BITMAP
0600
0600
0000
FF00
FFC0
C060
C060
C030
C030
C010
C010
C010
C030
C030
C060
C0E0
FFC0
FF00
ENDCHAR
STARTCHAR uni1E0B
ENCODING 7691
SWIDTH 554 0
DWIDTH 12 0
BBX 10 19 1 0
BITMAP
0180
0180
0000
0000
0180
0180
0180
0180
1F80
7F80
6180
C180
C180
C180
C180
C180
C180
7F80
3CC0
ENDCHAR
STARTCHAR uni1E0C
ENCODING 7692
SWIDTH 735 0
DWIDTH 15 0
BBX 12 18 2 -3
BITMAP
FF00
FFC0
C060
C060
C030
C030
C010
C010
C010
C030
C030
C060
C0E0
FFC0
FF00
0000
0E00
0C00
ENDCHAR
STARTCHAR uni1E0D
ENCODING 7693
SWIDTH 554 0
DWIDTH 12 0
BBX 10 18 1 -3
BITMAP
0180
0180
0180
0180
1F80
7F80
6180
C180
C180
C180
C180
C180
C180
7F80
3CC0
0000
1C00
0800
ENDCHAR
STARTCHAR uni1E0E
ENCODING 7694
SWIDTH 735 0
DWIDTH 15 0
BBX 12 18 2 -3
BITMAP
FF00
FFC0
C060
C060
C030
C030
C010
C010
C010
C030
C030
C060
C0E0
FFC0
FF00
0000
3F80
3F80
ENDCHAR
STARTCHAR uni1E0F
ENCODING 7695
SWIDTH 554 0
DWIDTH 12 0
BBX 10 18 1 -3
BITMAP
0180
0180
0180
0180
1F80
7F80
6180
C180
C180
C180
C180
C180
C180
7F80
3CC0
0000
7F00
7F00
ENDCHAR
STARTCHAR uni1E14
ENCODING 7700
SWIDTH 607 0
DWIDTH 13 0
BBX 10 22 2 0
BITMAP
2000
7000
1C00
0800
7F80
7F80
0000
FF80
FF80
C000
C000
C000
C000
FE00
FE00
C000
C000
C000
C000
C000
FFC0
FFC0
ENDCHAR
STARTCHAR uni1E15
ENCODING 7701
SWIDTH 521 0
DWIDTH 11 0
BBX 9 19 1 0
BITMAP
2000
7000
3800
1800
0800
7F00
7F00
0000
1E00
7F00
6180
C180
FF80
FF80
C000
C000
C100
7F80
3E00
ENDCHAR
STARTCHAR uni1E16
ENCODING 7702
SWIDTH 607 0
DWIDTH 13 0
BBX 10 22 2 0
BITMAP
0100
0380
0E00
0800
7F80
7F80
0000
FF80
FF80
C000
C000
C000
C000
FE00
FE00
C000
C000
C000
C000
C000
FFC0
FFC0
ENDCHAR
STARTCHAR uni1E17
ENCODING 7703
SWIDTH 521 0
DWIDTH 11 0
BBX 9 19 1 0
BITMAP
0300
0600
0C00
0800
0000
7F00
7F00
0000
1E00
7F00
6180
C180
FF80
FF80
C000
C000
C100
7F80
3E00
ENDCHAR
STARTCHAR uni1E1C
ENCODING 7708
SWIDTH 607 0
DWIDTH 13 0
BBX 10 24 2 -5
BITMAP
3300
3300
1E00
0C00
FF80
FF80
C000
C000
C000
C000
FE00
FE00
C000
C000
C000
C000
C000
FFC0
FFC0
0C00
0E00
0200
0600
0C00
ENDCHAR
STARTCHAR uni1E1D
ENCODING 7709
SWIDTH 521 0
DWIDTH 11 0
BBX 9 20 1 -5
BITMAP
6300
3200
3E00
0000
1E00
7F00
6180
C180
C180
FF80
FF80
C000
C000
6100
3F80
0800
0C00
1600
0C00
0800
ENDCHAR
STARTCHAR uni1E1E
ENCODING 7710
SWIDTH 579 0
DWIDTH 12 0
BBX 9 18 2 0
BITMAP
1800
1800
0000
FF80
FF80
C000
C000
C000
C000
FF00
FF00
C000
C000
C000
C000
C000
C000
C000
ENDCHAR
STARTCHAR uni1E1F
ENCODING 7711
SWIDTH 348 0
DWIDTH 7 0
BBX 7 20 1 0
BITMAP
18
18
00
00
3C
3E
60
60
60
FC
FC
60
60
60
60
60
60
60
60
60
ENDCHAR
STARTCHAR uni1E20
ENCODING 7712
SWIDTH 730 0
DWIDTH 15 0
BBX 13 18 1 0
BITMAP
0FE0
0FE0
0000
07C0
1FE0
3030
6010
6000
C000
C000
C1F8
C1F8
C008
4018
6018
3030
1FE0
0FC0
ENDCHAR
STARTCHAR uni1E21
ENCODING 7713
SWIDTH 582 0
DWIDTH 12 0
BBX 11 19 1 -5
BITMAP
3F80
3F80
0000
1FC0
3FC0
2080
60C0
6080
7F80
FF00
8000
8000
FE00
FFC0
C0E0
C060
C060
7FC0
3F00
ENDCHAR
STARTCHAR uni1E24
ENCODING 7716
SWIDTH 693 0
DWIDTH 15 0
BBX 11 18 2 -3
BITMAP
C060
C060
C060
C060
C060
C060
FFE0
FFE0
C060
C060
C060
C060
C060
C060
C060
0000
0C00
0C00
ENDCHAR
STARTCHAR uni1E25
ENCODING 7717
SWIDTH 550 0
DWIDTH 12 0
BBX 8 18 2 -3
BITMAP
80
80
80
80
BE
FF
C3
83
83
83
83
83
83
83
83
00
18
18
ENDCHAR
STARTCHAR uni1E2A
ENCODING 7722
SWIDTH 693 0
DWIDTH 15 0
BBX 11 20 2 -5
BITMAP
C060
C060
C060
C060
C060
C060
FFE0
FFE0
C060
C060
C060
C060
C060
C060
C060
0000
0000
3100
3300
1E00
ENDCHAR
STARTCHAR uni1E2B
ENCODING 7723
SWIDTH 550 0
DWIDTH 12 0
BBX 8 20 2 -5
BITMAP
80
80
80
80
BE
FF
C3
83
83
83
83
83
83
83
83
00
00
46
66
7C
ENDCHAR
STARTCHAR uni1E2E
ENCODING 7726
SWIDTH 276 0
DWIDTH 6 0
BBX 7 22 0 0
BITMAP
04
0E
38
20
CC
CC
00
30
30
30
30
30
30
30
30
30
30
30
30
30
30
30
ENDCHAR
STARTCHAR uni1E2F
ENCODING 7727
SWIDTH 274 0
DWIDTH 6 0
BBX 7 20 -1 0
BITMAP
08
0C
0C
18
10
00
CE
CC
00
10
10
10
10
10
10
10
10
10
1E
1C
ENDCHAR
STARTCHAR uni1E36
ENCODING 7734
SWIDTH 549 0
DWIDTH 12 0
BBX 9 18 2 -3
BITMAP
C000
C000
C000
C000
C000
C000
C000
C000
C000
C000
C000
C000
C000
FF80
FF80
0000
1C00
1800
ENDCHAR
STARTCHAR uni1E37
ENCODING 7735
SWIDTH 236 0
DWIDTH 5 0
BBX 3 18 1 -3
BITMAP
40
40
40
40
40
40
40
40
40
40
40
40
40
40
40
00
E0
40
ENDCHAR
STARTCHAR uni1E3A
ENCODING 7738
SWIDTH 549 0
DWIDTH 12 0
BBX 9 18 2 -3
BITMAP
C000
C000
C000
C000
C000
C000
C000
C000
C000
C000
C000
C000
C000
FF80
FF80
0000
7F00
7F00
ENDCHAR
STARTCHAR uni1E3B
ENCODING 7739
SWIDTH 236 0
DWIDTH 5 0
BBX 7 18 -1 -3
BITMAP
10
10
10
10
10
10
10
10
10
10
10
10
10
10
10
00
FE
FE
ENDCHAR
STARTCHAR uni1E40
ENCODING 7744
SWIDTH 824 0
DWIDTH 17 0
BBX 13 18 2 0
BITMAP
0300
0300
0000
8008
C018
E018
E038
F068
D8E8
DCC8
CF88
C708
C208
C008
C008
C008
C008
C008
ENDCHAR
STARTCHAR uni1E41
ENCODING 7745
SWIDTH 809 0
DWIDTH 17 0
BBX 15 15 1 0
BITMAP
0380
0100
0000
0000
DE78
FFFC
6186
4186
4186
4186
4186
4186
4186
4186
4186
ENDCHAR
STARTCHAR uni1E42
ENCODING 7746
SWIDTH 824 0
DWIDTH 17 0
BBX 13 18 2 -3
BITMAP
8008
C018
E018
E038
F068
D8E8
DCC8
CF88
C708
C208
C008
C008
C008
C008
C008
0000
0300
0300
ENDCHAR
STARTCHAR uni1E43
ENCODING 7747
SWIDTH 809 0
DWIDTH 17 0
BBX 15 14 1 -3
BITMAP
DE78
FFFC
6186
4186
4186
4186
4186
4186
4186
4186
4186
0000
0380
0100
ENDCHAR
STARTCHAR uni1E44
ENCODING 7748
SWIDTH 751 0
DWIDTH 16 0
BBX 12 18 2 0
BITMAP
0600
0600
0000
8030
C030
E030
E030
F030
D830
CC30
CE30
C630
C330
C1B0
C0F0
C070
C070
C030
ENDCHAR
STARTCHAR uni1E45
ENCODING 7749
SWIDTH 553 0
DWIDTH 12 0
BBX 9 15 1 0
BITMAP
0C00
0C00
0000
0000
CF00
FF80
6180
4180
4180
4180
4180
4180
4180
4180
4180
ENDCHAR
STARTCHAR uni1E46
ENCODING 7750
SWIDTH 751 0
DWIDTH 16 0
BBX 12 18 2 -3
BITMAP
8030
C030
E030
E030
F030
D830
CC30
CE30
C630
C330
C1B0
C0F0
C070
C070
C030
0000
0600
0600
ENDCHAR
STARTCHAR uni1E47
ENCODING 7751
SWIDTH 553 0
DWIDTH 12 0
BBX 9 14 1 -3
BITMAP
CF00
FF80
6180
4180
4180
4180
4180
4180
4180
4180
4180
0000
0C00
0C00
ENDCHAR
STARTCHAR uni1E48
ENCODING 7752
SWIDTH 751 0
DWIDTH 16 0
BBX 12 18 2 -3
BITMAP
8030
C030
E030
E030
F030
D830
CC30
CE30
C630
C330
C1B0
C0F0
C070
C070
C030
0000
1FC0
1FC0
ENDCHAR
STARTCHAR uni1E49
ENCODING 7753
SWIDTH 553 0
DWIDTH 12 0
BBX 9 14 1 -3
BITMAP
CF00
FF80
6180
4180
4180
4180
4180
4180
4180
4180
4180
0000
7F80
7F80
ENDCHAR
STARTCHAR uni1E4C
ENCODING 7756
SWIDTH 795 0
DWIDTH 17 0
BBX 15 22 1 0
BITMAP
0020
00E0
0180
0100
07E0
0FC0
0000
07C0
1FF0
3038
601C
600C
C004
C004
C006
C004
C004
600C
600C
3038
1FF0
07C0
ENDCHAR
STARTCHAR uni1E4D
ENCODING 7757
SWIDTH 573 0
DWIDTH 12 0
BBX 10 20 1 0
BITMAP
0300
0300
0600
0C00
0000
0000
3F00
7F80
0000
1E00
7F80
6180
C0C0
C0C0
C040
C0C0
C0C0
6180
7F80
1E00
ENDCHAR
STARTCHAR uni1E4E
ENCODING 7758
SWIDTH 795 0
DWIDTH 17 0
BBX 15 21 1 0
BITMAP
0CE0
0C40
0000
07E0
0FC0
0000
07C0
1FF0
3038
601C
600C
C004
C004
C006
C004
C004
600C
600C
3038
1FF0
07C0
ENDCHAR
STARTCHAR uni1E4F
ENCODING 7759
SWIDTH 573 0
DWIDTH 12 0
BBX 10 18 1 0
BITMAP
3300
3300
0000
0000
3F00
7F80
0000
1E00
7F80
6180
C0C0
C0C0
C040
C0C0
C0C0
6180
7F80
1E00
ENDCHAR
STARTCHAR uni1E50
ENCODING 7760
SWIDTH 795 0
DWIDTH 17 0
BBX 15 22 1 0
BITMAP
0800
1E00
0700
0100
0FE0
0FE0
0000
07C0
1FF0
3038
601C
600C
C004
C004
C006
C004
C004
600C
600C
3038
1FF0
07C0
ENDCHAR
STARTCHAR uni1E51
ENCODING 7761
SWIDTH 573 0
DWIDTH 12 0
BBX 10 19 1 0
BITMAP
2000
3000
1800
0C00
0400
7F80
7F80
0000
1E00
7F80
6180
C0C0
C0C0
C040
C0C0
C0C0
6180
7F80
1E00
ENDCHAR
STARTCHAR uni1E52
ENCODING 7762
SWIDTH 795 0
DWIDTH 17 0
BBX 15 22 1 0
BITMAP
0020
00E0
0180
0100
0FE0
0FE0
0000
07C0
1FF0
3038
601C
600C
C004
C004
C006
C004
C004
600C
600C
3038
1FF0
07C0
ENDCHAR
STARTCHAR uni1E53
ENCODING 7763
SWIDTH 573 0
DWIDTH 12 0
BBX 10 19 1 0
BITMAP
0300
0300
0600
0C00
0000
7F80
7F80
0000
1E00
7F80
6180
C0C0
C0C0
C040
C0C0
C0C0
6180
7F80
1E00
ENDCHAR
STARTCHAR uni1E56
ENCODING 7766
SWIDTH 566 0
DWIDTH 12 0
BBX 9 18 2 0
BITMAP
1800
1800
0000
FE00
FF00
C100
C180
C180
C180
C180
C300
FE00
F000
C000
C000
C000
C000
C000
ENDCHAR
STARTCHAR uni1E57
ENCODING 7767
SWIDTH 554 0
DWIDTH 12 0
BBX 10 20 1 -5
BITMAP
0C00
0C00
0000
0000
5E00
FF80
6180
60C0
40C0
40C0
40C0
4080
4180
7F00
7E00
4000
4000
4000
4000
4000
ENDCHAR
STARTCHAR uni1E5A
ENCODING 7770
SWIDTH 634 0
DWIDTH 13 0
BBX 11 18 2 -3
BITMAP
FE00
FF00
C180
C180
C180
C180
C300
DF00
DC00
CC00
C600
C300
C180
C1C0
C0E0
0000
0C00
0C00
ENDCHAR
STARTCHAR uni1E5B
ENCODING 7771
SWIDTH 376 0
DWIDTH 8 0
BBX 7 14 1 -3
BITMAP
DE
FC
60
40
40
40
40
40
40
40
40
00
60
60
ENDCHAR
STARTCHAR uni1E5E
ENCODING 7774
SWIDTH 634 0
DWIDTH 13 0
BBX 11 18 2 -3
BITMAP
FE00
FF00
C180
C180
C180
C180
C300
DF00
DC00
CC00
C600
C300
C180
C1C0
C0E0
0000
7F00
7F00
ENDCHAR
STARTCHAR uni1E5F
ENCODING 7775
SWIDTH 376 0
DWIDTH 8 0
BBX 9 14 -1 -3
BITMAP
3780
3F00
1800
1000
1000
1000
1000
1000
1000
1000
1000
0000
FE00
FE00
ENDCHAR
STARTCHAR uni1E60
ENCODING 7776
SWIDTH 557 0
DWIDTH 12 0
BBX 10 18 1 0
BITMAP
0C00
0C00
0000
1E00
3F00
6180
6000
6000
3000
1C00
0700
0180
00C0
00C0
C0C0
C180
7F80
1E00
ENDCHAR
STARTCHAR uni1E61
ENCODING 7777
SWIDTH 438 0
DWIDTH 9 0
BBX 8 15 1 0
BITMAP
38
18
00
00
3C
7E
C0
C0
70
1C
06
03
83
FE
7C
ENDCHAR
STARTCHAR uni1E62
ENCODING 7778
SWIDTH 557 0
DWIDTH 12 0
BBX 10 18 1 -3
BITMAP
1E00
3F00
6180
6000
6000
3000
1C00
0700
0180
00C0
00C0
C0C0
C180
7F80
1E00
0000
0C00
0C00
ENDCHAR
STARTCHAR uni1E63
ENCODING 7779
SWIDTH 438 0
DWIDTH 9 0
BBX 8 14 1 -3
BITMAP
3C
7E
C0
C0
70
1C
06
03
83
FE
7C
00
18
18
ENDCHAR
STARTCHAR uni1E64
ENCODING 7780
SWIDTH 557 0
DWIDTH 12 0
BBX 10 23 1 0
BITMAP
0C00
0C00
0000
0000
0100
0380
0E00
0400
1E00
3F00
6180
6000
6000
3000
1C00
0700
0180
00C0
00C0
C0C0
C180
7F80
1E00
ENDCHAR
STARTCHAR uni1E65
ENCODING 7781
SWIDTH 438 0
DWIDTH 9 0
BBX 8 20 1 0
BITMAP
38
18
00
00
06
0C
18
10
00
3C
7E
C0
C0
70
1C
06
03
83
FE
7C
ENDCHAR
STARTCHAR uni1E66
ENCODING 7782
SWIDTH 557 0
DWIDTH 12 0
BBX 10 22 1 0
BITMAP
0C00
0C00
0000
3180
1E00
0C00
0000
1E00
3F00
6180
6000
6000
3000
1C00
0700
0180
00C0
00C0
C0C0
C180
7F80
1E00
ENDCHAR
STARTCHAR uni1E67
ENCODING 7783
SWIDTH 438 0
DWIDTH 9 0
BBX 8 19 1 0
BITMAP
38
18
00
00
E6
2C
38
00
3C
7E
C0
C0
70
1C
06
03
83
FE
7C
ENDCHAR
STARTCHAR uni1E68
ENCODING 7784
SWIDTH 557 0
DWIDTH 12 0
BBX 10 21 1 -3
BITMAP
0C00
0C00
0000
1E00
3F00
6180
6000
6000
3000
1C00
0700
0180
00C0
00C0
C0C0
C180
7F80
1E00
0000
0C00
0C00
ENDCHAR
STARTCHAR uni1E69
ENCODING 7785
SWIDTH 438 0
DWIDTH 9 0
BBX 8 18 1 -3
BITMAP
38
18
00
00
3C
7E
C0
C0
70
1C
06
03
83
FE
7C
00
18
18
ENDCHAR
STARTCHAR uni1E6A
ENCODING 7786
SWIDTH 602 0
DWIDTH 13 0
BBX 11 18 1 0
BITMAP
0C00
0C00
0000
FFE0
FFE0
0C00
0C00
0C00
0C00
0C00
0C00
0C00
0C00
0C00
0C00
0C00
0C00
0C00
ENDCHAR
STARTCHAR uni1E6B
ENCODING 7787
SWIDTH 348 0
DWIDTH 7 0
BBX 6 18 1 0
BITMAP
C0
C0
00
00
C0
C0
C0
F8
F8
C0
C0
C0
C0
C0
C0
40
78
3C
ENDCHAR
STARTCHAR uni1E6C
ENCODING 7788
SWIDTH 602 0
DWIDTH 13 0
BBX 11 18 1 -3
BITMAP
FFE0
FFE0
0C00
0C00
0C00
0C00
0C00
0C00
0C00
0C00
0C00
0C00
0C00
0C00
0C00
0000
0E00
0C00
ENDCHAR
STARTCHAR uni1E6D
ENCODING 7789
SWIDTH 348 0
DWIDTH 7 0
BBX 6 17 1 -3
BITMAP
C0
C0
C0
F8
F8
C0
C0
C0
C0
C0
C0
40
78
3C
00
38
10
ENDCHAR
STARTCHAR uni1E6E
ENCODING 7790
SWIDTH 602 0
DWIDTH 13 0
BBX 11 18 1 -3
BITMAP
FFE0
FFE0
0C00
0C00
0C00
0C00
0C00
0C00
0C00
0C00
0C00
0C00
0C00
0C00
0C00
0000
3F80
3F80
ENDCHAR
STARTCHAR uni1E6F
ENCODING 7791
SWIDTH 348 0
DWIDTH 7 0
BBX 7 17 1 -3
BITMAP
C0
C0
C0
F8
F8
C0
C0
C0
C0
C0
C0
40
78
3C
00
FE
FE
ENDCHAR
STARTCHAR uni1E78
ENCODING 7800
SWIDTH 706 0
DWIDTH 15 0
BBX 11 22 2 0
BITMAP
0080
0380
0600
0400
1F80
3F80
0000
8060
8060
8060
8060
8060
8060
8060
8060
8060
8060
C060
C060
60C0
7F80
1F00
ENDCHAR
STARTCHAR uni1E79
ENCODING 7801
SWIDTH 557 0
DWIDTH 12 0
BBX 10 19 1 0
BITMAP
0300
0600
0400
0C00
0000
3F00
7F00
0000
C180
C180
C180
C180
C180
C180
C180
C180
C380
7EC0
3C80
ENDCHAR
STARTCHAR uni1E7A
ENCODING 7802
SWIDTH 706 0
DWIDTH 15 0
BBX 11 21 2 0
BITMAP
3180
3180
0000
3F80
3F80
0000
8060
8060
8060
8060
8060
8060
8060
8060
8060
8060
C060
C060
60C0
7F80
1F00
ENDCHAR
STARTCHAR uni1E7B
ENCODING 7803
SWIDTH 557 0
DWIDTH 12 0
BBX 10 17 1 0
BITMAP
7300
2300
0000
7F00
7F00
0000
C180
C180
C180
C180
C180
C180
C180
C180
C380
7EC0
3C80
ENDCHAR
STARTCHAR Wgrave
ENCODING 7808
SWIDTH 1027 0
DWIDTH 22 0
BBX 20 19 1 0
BITMAP
030000
038000
00E000
004000
806030
C06020
40E060
60F060
60B040
2190C0
3198C0
3118C0
110880
130D80
1B0D80
1A0D00
0E0700
0E0700
0C0600
ENDCHAR
STARTCHAR wgrave
ENCODING 7809
SWIDTH 772 0
DWIDTH 16 0
BBX 16 16 0 0
BITMAP
0200
0600
0300
0180
0080
C183
6182
61C6
33C6
3344
326C
166C
1E28
1E38
0C38
0C10
ENDCHAR
STARTCHAR Wacute
ENCODING 7810
SWIDTH 1027 0
DWIDTH 22 0
BBX 20 19 1 0
BITMAP
000800
001C00
007000
004000
806030
C06020
40E060
60F060
60B040
2190C0
3198C0
3118C0
110880
130D80
1B0D80
1A0D00
0E0700
0E0700
0C0600
ENDCHAR
STARTCHAR wacute
ENCODING 7811
SWIDTH 772 0
DWIDTH 16 0
BBX 16 16 0 0
BITMAP
0020
0060
00C0
0180
0000
C183
6182
61C6
33C6
3344
326C
166C
1E28
1E38
0C38
0C10
ENDCHAR
STARTCHAR Wdieresis
ENCODING 7812
SWIDTH 1027 0
DWIDTH 22 0
BBX 20 18 1 0
BITMAP
039800
019800
000000
806030
C06020
40E060
60F060
60B040
2190C0
3198C0
3118C0
110880
130D80
1B0D80
1A0D00
0E0700
0E0700
0C0600
ENDCHAR
STARTCHAR wdieresis
ENCODING 7813
SWIDTH 772 0
DWIDTH 16 0
BBX 16 14 0 0
BITMAP
0670
0620
0000
C183
6182
61C6
33C6
3344
326C
166C
1E28
1E38
0C38
0C10
ENDCHAR
STARTCHAR uni1E8E
ENCODING 7822
SWIDTH 565 0
DWIDTH 12 0
BBX 10 18 1 0
BITMAP
0C00
0C00
0000
C0C0
C080
6180
6300
3300
3600
1E00
1C00
0C00
0C00
0C00
0C00
0C00
0C00
0C00
ENDCHAR
STARTCHAR uni1E8F
ENCODING 7823
SWIDTH 493 0
DWIDTH 10 0
BBX 10 20 0 -5
BITMAP
0E00
0600
0000
0000
C0C0
6080
6180
3180
3180
1300
1B00
1B00
0E00
0E00
0600
0400
0C00
0C00
7800
3000
ENDCHAR
STARTCHAR uni1E92
ENCODING 7826
SWIDTH 564 0
DWIDTH 12 0
BBX 10 18 1 -3
BITMAP
FFC0
FF80
0100
0300
0600
0600
0C00
0C00
1800
1800
3000
2000
6000
FFC0
FFC0
0000
0C00
0C00
ENDCHAR
STARTCHAR uni1E93
ENCODING 7827
SWIDTH 463 0
DWIDTH 10 0
BBX 9 14 0 -3
BITMAP
7F80
7F00
0300
0600
0E00
0C00
1800
3800
3000
7F80
FF80
0000
0C00
0C00
ENDCHAR
STARTCHAR uni1E97
ENCODING 7831
SWIDTH 348 0
DWIDTH 7 0
BBX 8 17 -1 0
BITMAP
CE
CC
00
30
30
30
3E
3E
30
30
30
30
30
30
10
1E
0F
ENDCHAR
STARTCHAR uni1E9E
ENCODING 7838
SWIDTH 651 0
DWIDTH 14 0
BBX 11 15 2 0
BITMAP
FFC0
FF80
C300
C600
C600
CE00
CF80
C1C0
C040
C060
C060
C040
C0C0
CFC0
CF00
ENDCHAR
STARTCHAR uni1EA0
ENCODING 7840
SWIDTH 681 0
DWIDTH 14 0
BBX 13 18 1 -3
BITMAP
0200
0600
0700
0F00
0F00
0980
1980
18C0
30C0
3FC0
7FE0
6060
6030
C030
C018
0000
0600
0600
ENDCHAR
STARTCHAR uni1EA1
ENCODING 7841
SWIDTH 504 0
DWIDTH 11 0
BBX 9 14 1 -3
BITMAP
3E00
FF00
4300
0300
3F00
FF00
C300
8300
C300
FF00
7D80
0000
3800
1800
ENDCHAR
STARTCHAR uni1EA2
ENCODING 7842
SWIDTH 681 0
DWIDTH 14 0
BBX 13 21 1 0
BITMAP
0200
0F00
0580
0100
0700
0000
0200
0600
0700
0F00
0F00
0980
1980
18C0
30C0
3FC0
7FE0
6060
6030
C030
C018
ENDCHAR
STARTCHAR uni1EA3
ENCODING 7843
SWIDTH 504 0
DWIDTH 11 0
BBX 9 17 1 0
BITMAP
1000
3C00
2C00
0C00
1800
0000
3E00
FF00
4300
0300
3F00
FF00
C300
8300
C300
FF00
7D80
ENDCHAR
STARTCHAR uni1EA4
ENCODING 7844
SWIDTH 681 0
DWIDTH 14 0
BBX 14 21 1 0
BITMAP
0008
003C
0270
0F40
19C0
0000
0200
0600
0700
0F00
0F00
0980
1980
18C0
30C0
3FC0
7FE0
6060
6030
C030
C018
ENDCHAR
STARTCHAR uni1EA5
ENCODING 7845
SWIDTH 504 0
DWIDTH 11 0
BBX 10 18 1 0
BITMAP
00C0
00C0
0180
1B00
3C00
6600
0000
3E00
FF00
4300
0300
3F00
FF00
C300
8300
C300
FF00
7D80
ENDCHAR
STARTCHAR uni1EA6
ENCODING 7846
SWIDTH 681 0
DWIDTH 14 0
BBX 13 21 1 0
BITMAP
0200
0380
02C0
0F40
19C0
0000
0200
0600
0700
0F00
0F00
0980
1980
18C0
30C0
3FC0
7FE0
6060
6030
C030
C018
ENDCHAR
STARTCHAR uni1EA7
ENCODING 7847
SWIDTH 504 0
DWIDTH 11 0
BBX 9 18 1 0
BITMAP
0400
0C00
0600
1B00
3D00
6600
0000
3E00
FF00
4300
0300
3F00
FF00
C300
8300
C300
FF00
7D80
ENDCHAR
STARTCHAR uni1EA8
ENCODING 7848
SWIDTH 681 0
DWIDTH 14 0
BBX 13 23 1 0
BITMAP
0060
00F0
00B0
0030
0260
0F00
19C0
0000
0200
0600
0700
0F00
0F00
0980
1980
18C0
30C0
3FC0
7FE0
6060
6030
C030
C018
ENDCHAR
STARTCHAR uni1EA9
ENCODING 7849
SWIDTH 504 0
DWIDTH 11 0
BBX 9 19 1 0
BITMAP
0100
0780
0480
0180
1900
3E00
6600
0000
3E00
FF00
4300
0300
3F00
FF00
C300
8300
C300
FF00
7D80
ENDCHAR
STARTCHAR uni1EAA
ENCODING 7850
SWIDTH 681 0
DWIDTH 14 0
BBX 13 22 1 0
BITMAP
1F80
1FC0
0000
0200
0F00
19C0
0000
0200
0600
0700
0F00
0F00
0980
1980
18C0
30C0
3FC0
7FE0
6060
6030
C030
C018
ENDCHAR
STARTCHAR uni1EAB
ENCODING 7851
SWIDTH 504 0
DWIDTH 11 0
BBX 9 18 1 0
BITMAP
7E00
FF00
0000
1800
3C00
6600
0000
3E00
FF00
4300
0300
3F00
FF00
C300
8300
C300
FF00
7D80
ENDCHAR
STARTCHAR uni1EAC
ENCODING 7852
SWIDTH 681 0
DWIDTH 14 0
BBX 13 22 1 -3
BITMAP
0200
0F00
19C0
0000
0200
0600
0700
0F00
0F00
0980
1980
18C0
30C0
3FC0
7FE0
6060
6030
C030
C018
0000
0600
0600
ENDCHAR
STARTCHAR uni1EAD
ENCODING 7853
SWIDTH 504 0
DWIDTH 11 0
BBX 9 18 1 -3
BITMAP
1800
3C00
6600
0000
3E00
FF00
4300
0300
3F00
FF00
C300
8300
C300
FF00
7D80
0000
3800
1800
ENDCHAR
STARTCHAR uni1EAE
ENCODING 7854
SWIDTH 681 0
DWIDTH 14 0
BBX 13 23 1 0
BITMAP
00C0
01C0
0700
0200
1880
1F80
0F00
0000
0200
0600
0700
0F00
0F00
0980
1980
18C0
30C0
3FC0
7FE0
6060
6030
C030
C018
ENDCHAR
STARTCHAR uni1EAF
ENCODING 7855
SWIDTH 504 0
DWIDTH 11 0
BBX 9 20 1 0
BITMAP
0600
0C00
0C00
1800
0000
4600
6600
3C00
0000
3E00
FF00
4300
0300
3F00
FF00
C300
8300
C300
FF00
7D80
ENDCHAR
STARTCHAR uni1EB0
ENCODING 7856
SWIDTH 681 0
DWIDTH 14 0
BBX 13 23 1 0
BITMAP
1000
3800
0E00
0200
1880
1F80
0F00
0000
0200
0600
0700
0F00
0F00
0980
1980
18C0
30C0
3FC0
7FE0
6060
6030
C030
C018
ENDCHAR
STARTCHAR uni1EB1
ENCODING 7857
SWIDTH 504 0
DWIDTH 11 0
BBX 9 20 1 0
BITMAP
4000
E000
3000
1800
1000
4600
6600
3C00
0000
3E00
FF00
4300
0300
3F00
FF00
C300
8300
C300
FF00
7D80
ENDCHAR
STARTCHAR uni1EB2
ENCODING 7858
SWIDTH 681 0
DWIDTH 14 0
BBX 13 25 1 0
BITMAP
0200
0F00
0580
0100
0700
0000
1880
1F80
0F00
0000
0200
0600
0700
0F00
0F00
0980
1980
18C0
30C0
3FC0
7FE0
6060
6030
C030
C018
ENDCHAR
STARTCHAR uni1EB3
ENCODING 7859
SWIDTH 504 0
DWIDTH 11 0
BBX 9 21 1 0
BITMAP
1000
3C00
2C00
0C00
1800
0000
4600
6600
3C00
0000
3E00
FF00
4300
0300
3F00
FF00
C300
8300
C300
FF00
7D80
ENDCHAR
STARTCHAR uni1EB4
ENCODING 7860
SWIDTH 681 0
DWIDTH 14 0
BBX 13 22 1 0
BITMAP
1F80
1FC0
0000
1880
1F80
0F00
0000
0200
0600
0700
0F00
0F00
0980
1980
18C0
30C0
3FC0
7FE0
6060
6030
C030
C018
ENDCHAR
STARTCHAR uni1EB5
ENCODING 7861
SWIDTH 504 0
DWIDTH 11 0
BBX 9 18 1 0
BITMAP
7E00
FF00
0000
4600
6600
3C00
0000
3E00
FF00
4300
0300
3F00
FF00
C300
8300
C300
FF00
7D80
ENDCHAR
STARTCHAR uni1EB6
ENCODING 7862
SWIDTH 681 0
DWIDTH 14 0
BBX 13 22 1 -3
BITMAP
1880
1F80
0F00
0000
0200
0600
0700
0F00
0F00
0980
1980
18C0
30C0
3FC0
7FE0
6060
6030
C030
C018
0000
0600
0600
ENDCHAR
STARTCHAR uni1EB7
ENCODING 7863
SWIDTH 504 0
DWIDTH 11 0
BBX 9 18 1 -3
BITMAP
4600
6600
3C00
0000
3E00
FF00
4300
0300
3F00
FF00
C300
8300
C300
FF00
7D80
0000
3800
1800
ENDCHAR
STARTCHAR uni1EB8
ENCODING 7864
SWIDTH 607 0
DWIDTH 13 0
BBX 10 18 2 -3
BITMAP
FF80
FF80
C000
C000
C000
C000
FE00
FE00
C000
C000
C000
C000
C000
FFC0
FFC0
0000
0C00
0C00
ENDCHAR
STARTCHAR uni1EB9
ENCODING 7865
SWIDTH 521 0
DWIDTH 11 0
BBX 9 14 1 -3
BITMAP
1E00
7F00
6180
C180
FF80
FF80
C000
C000
C100
7F80
3E00
0000
0C00
0C00
ENDCHAR
STARTCHAR uni1EBA
ENCODING 7866
SWIDTH 607 0
DWIDTH 13 0
BBX 10 21 2 0
BITMAP
0400
1E00
0A00
0600
0E00
0000
FF80
FF80
C000
C000
C000
C000
FE00
FE00
C000
C000
C000
C000
C000
FFC0
FFC0
ENDCHAR
STARTCHAR uni1EBB
ENCODING 7867
SWIDTH 521 0
DWIDTH 11 0
BBX 9 17 1 0
BITMAP
0800
3C00
1600
0400
0C00
1000
1E00
7F00
6180
C180
FF80
FF80
C000
C000
C100
7F80
3E00
ENDCHAR
STARTCHAR uni1EBC
ENCODING 7868
SWIDTH 607 0
DWIDTH 13 0
BBX 10 18 2 0
BITMAP
3F00
7F80
0000
FF80
FF80
C000
C000
C000
C000
FE00
FE00
C000
C000
C000
C000
C000
FFC0
FFC0
ENDCHAR
STARTCHAR uni1EBD
ENCODING 7869
SWIDTH 521 0
DWIDTH 11 0
BBX 9 14 1 0
BITMAP
3F00
7F00
0000
1E00
7F00
6180
C180
FF80
FF80
C000
C000
C100
7F80
3E00
ENDCHAR
STARTCHAR uni1EBE
ENCODING 7870
SWIDTH 607 0
DWIDTH 13 0
BBX 12 21 2 0
BITMAP
0010
0070
0CC0
1E80
3380
0000
FF80
FF80
C000
C000
C000
C000
FE00
FE00
C000
C000
C000
C000
C000
FFC0
FFC0
ENDCHAR
STARTCHAR uni1EBF
ENCODING 7871
SWIDTH 521 0
DWIDTH 11 0
BBX 11 18 1 0
BITMAP
0060
00C0
00C0
1D80
1400
7700
0000
1E00
7F00
6180
C180
FF80
FF80
C000
C000
C100
7F80
3E00
ENDCHAR
STARTCHAR uni1EC0
ENCODING 7872
SWIDTH 607 0
DWIDTH 13 0
BBX 10 21 2 0
BITMAP
0400
0F00
0D80
1E80
3380
0000
FF80
FF80
C000
C000
C000
C000
FE00
FE00
C000
C000
C000
C000
C000
FFC0
FFC0
ENDCHAR
STARTCHAR uni1EC1
ENCODING 7873
SWIDTH 521 0
DWIDTH 11 0
BBX 9 18 1 0
BITMAP
0400
0E00
0300
1D80
1F00
7700
0000
1E00
7F00
6180
C180
FF80
FF80
C000
C000
C100
7F80
3E00
ENDCHAR
STARTCHAR uni1EC2
ENCODING 7874
SWIDTH 607 0
DWIDTH 13 0
BBX 11 23 2 0
BITMAP
0080
01E0
0160
0060
0CC0
1E00
3380
0000
FF80
FF80
C000
C000
C000
C000
FE00
FE00
C000
C000
C000
C000
C000
FFC0
FFC0
ENDCHAR
STARTCHAR uni1EC3
ENCODING 7875
SWIDTH 521 0
DWIDTH 11 0
BBX 10 19 1 0
BITMAP
0100
03C0
02C0
00C0
1D80
1E00
7700
0000
1E00
7F00
6180
C180
FF80
FF80
C000
C000
C100
7F80
3E00
ENDCHAR
STARTCHAR uni1EC4
ENCODING 7876
SWIDTH 607 0
DWIDTH 13 0
BBX 10 22 2 0
BITMAP
3F00
7F80
0000
0C00
1E00
3380
0000
FF80
FF80
C000
C000
C000
C000
FE00
FE00
C000
C000
C000
C000
C000
FFC0
FFC0
ENDCHAR
STARTCHAR uni1EC5
ENCODING 7877
SWIDTH 521 0
DWIDTH 11 0
BBX 9 18 1 0
BITMAP
3F00
7F00
0000
1C00
1400
7700
0000
1E00
7F00
6180
C180
FF80
FF80
C000
C000
C100
7F80
3E00
ENDCHAR
STARTCHAR uni1EC6
ENCODING 7878
SWIDTH 607 0
DWIDTH 13 0
BBX 10 22 2 -3
BITMAP
0C00
1E00
3380
0000
FF80
FF80
C000
C000
C000
C000
FE00
FE00
C000
C000
C000
C000
C000
FFC0
FFC0
0000
0C00
0C00
ENDCHAR
STARTCHAR uni1EC7
ENCODING 7879
SWIDTH 521 0
DWIDTH 11 0
BBX 9 18 1 -3
BITMAP
1C00
1E00
7700
0000
1E00
7F00
6180
C180
FF80
FF80
C000
C000
C100
7F80
3E00
0000
0C00
0C00
ENDCHAR
STARTCHAR uni1EC8
ENCODING 7880
SWIDTH 276 0
DWIDTH 6 0
BBX 4 21 1 0
BITMAP
20
F0
B0
30
60
00
60
60
60
60
60
60
60
60
60
60
60
60
60
60
60
ENDCHAR
STARTCHAR uni1EC9
ENCODING 7881
SWIDTH 274 0
DWIDTH 6 0
BBX 5 17 1 0
BITMAP
40
E0
B0
20
E0
00
40
40
40
40
40
40
40
40
40
78
70
ENDCHAR
STARTCHAR uni1ECA
ENCODING 7882
SWIDTH 276 0
DWIDTH 6 0
BBX 2 18 2 -3
BITMAP
C0
C0
C0
C0
C0
C0
C0
C0
C0
C0
C0
C0
C0
C0
C0
00
C0
C0
ENDCHAR
STARTCHAR uni1ECB
ENCODING 7883
SWIDTH 236 0
DWIDTH 5 0
BBX 3 18 1 -3
BITMAP
E0
40
00
00
40
40
40
40
40
40
40
40
40
40
40
00
E0
40
ENDCHAR
STARTCHAR uni1ECC
ENCODING 7884
SWIDTH 795 0
DWIDTH 17 0
BBX 15 19 1 -4
BITMAP
07C0
1FF0
3038
601C
600C
C004
C004
C006
C004
C004
600C
600C
3038
1FF0
07C0
0000
0000
0380
0100
ENDCHAR
STARTCHAR uni1ECD
ENCODING 7885
SWIDTH 573 0
DWIDTH 12 0
BBX 10 14 1 -3
BITMAP
1E00
7F80
6180
C0C0
C0C0
C040
C0C0
C0C0
6180
7F80
1E00
0000
0C00
0C00
ENDCHAR
STARTCHAR uni1ECE
ENCODING 7886
SWIDTH 795 0
DWIDTH 17 0
BBX 15 21 1 0
BITMAP
0100
0380
02C0
00C0
0380
0000
07C0
1FF0
3038
601C
600C
C004
C004
C006
C004
C004
600C
600C
3038
1FF0
07C0
ENDCHAR
STARTCHAR uni1ECF
ENCODING 7887
SWIDTH 573 0
DWIDTH 12 0
BBX 10 17 1 0
BITMAP
0400
1E00
1200
0600
0400
0800
1E00
7F80
6180
C0C0
C0C0
C040
C0C0
C0C0
6180
7F80
1E00
ENDCHAR
STARTCHAR uni1ED0
ENCODING 7888
SWIDTH 795 0
DWIDTH 17 0
BBX 15 21 1 0
BITMAP
0004
000E
0138
03A0
0EE0
0000
07C0
1FF0
3038
601C
600C
C004
C004
C006
C004
C004
600C
600C
3038
1FF0
07C0
ENDCHAR
STARTCHAR uni1ED1
ENCODING 7889
SWIDTH 573 0
DWIDTH 12 0
BBX 12 18 1 0
BITMAP
0030
0060
00C0
0D80
1E00
3300
0000
1E00
7F80
6180
C0C0
C0C0
C040
C0C0
C0C0
6180
7F80
1E00
ENDCHAR
STARTCHAR uni1ED2
ENCODING 7890
SWIDTH 795 0
DWIDTH 17 0
BBX 15 21 1 0
BITMAP
0180
01C0
0170
03A0
0EE0
0000
07C0
1FF0
3038
601C
600C
C004
C004
C006
C004
C004
600C
600C
3038
1FF0
07C0
ENDCHAR
STARTCHAR uni1ED3
ENCODING 7891
SWIDTH 573 0
DWIDTH 12 0
BBX 10 18 1 0
BITMAP
0200
0600
0300
0D80
1E80
3300
0000
1E00
7F80
6180
C0C0
C0C0
C040
C0C0
C0C0
6180
7F80
1E00
ENDCHAR
STARTCHAR uni1ED4
ENCODING 7892
SWIDTH 795 0
DWIDTH 17 0
BBX 15 23 1 0
BITMAP
0010
0078
0048
0018
0130
0380
0EE0
0000
07C0
1FF0
3038
601C
600C
C004
C004
C006
C004
C004
600C
600C
3038
1FF0
07C0
ENDCHAR
STARTCHAR uni1ED5
ENCODING 7893
SWIDTH 573 0
DWIDTH 12 0
BBX 10 19 1 0
BITMAP
0080
03C0
0140
0040
0CC0
1F00
3300
0000
1E00
7F80
6180
C0C0
C0C0
C040
C0C0
C0C0
6180
7F80
1E00
ENDCHAR
STARTCHAR uni1ED6
ENCODING 7894
SWIDTH 795 0
DWIDTH 17 0
BBX 15 22 1 0
BITMAP
07E0
0FC0
0000
0100
0380
0EE0
0000
07C0
1FF0
3038
601C
600C
C004
C004
C006
C004
C004
600C
600C
3038
1FF0
07C0
ENDCHAR
STARTCHAR uni1ED7
ENCODING 7895
SWIDTH 573 0
DWIDTH 12 0
BBX 10 18 1 0
BITMAP
3F00
7F80
0000
0C00
1E00
3300
0000
1E00
7F80
6180
C0C0
C0C0
C040
C0C0
C0C0
6180
7F80
1E00
ENDCHAR
STARTCHAR uni1ED8
ENCODING 7896
SWIDTH 795 0
DWIDTH 17 0
BBX 15 23 1 -4
BITMAP
0100
0380
0EE0
0000
07C0
1FF0
3038
601C
600C
C004
C004
C006
C004
C004
600C
600C
3038
1FF0
07C0
0000
0000
0380
0100
ENDCHAR
STARTCHAR uni1ED9
ENCODING 7897
SWIDTH 573 0
DWIDTH 12 0
BBX 10 18 1 -3
BITMAP
0C00
1E00
3300
0000
1E00
7F80
6180
C0C0
C0C0
C040
C0C0
C0C0
6180
7F80
1E00
0000
0C00
0C00
ENDCHAR
STARTCHAR uni1EDA
ENCODING 7898
SWIDTH 795 0
DWIDTH 17 0
BBX 15 19 1 0
BITMAP
0020
00E0
0198
0118
07F0
1FF0
3038
601C
600C
C004
C004
C006
C004
C004
600C
600C
3038
1FF0
07C0
ENDCHAR
STARTCHAR uni1EDB
ENCODING 7899
SWIDTH 573 0
DWIDTH 12 0
BBX 11 16 1 0
BITMAP
0300
0300
0600
0C40
0060
1FE0
7FC0
6180
C0C0
C0C0
C040
C0C0
C0C0
6180
7F80
1E00
ENDCHAR
STARTCHAR uni1EDC
ENCODING 7900
SWIDTH 795 0
DWIDTH 17 0
BBX 15 19 1 0
BITMAP
0800
1E00
0718
0118
07F0
1FF0
3038
601C
600C
C004
C004
C006
C004
C004
600C
600C
3038
1FF0
07C0
ENDCHAR
STARTCHAR uni1EDD
ENCODING 7901
SWIDTH 573 0
DWIDTH 12 0
BBX 11 16 1 0
BITMAP
2000
3000
1800
0C40
0460
1FE0
7FC0
6180
C0C0
C0C0
C040
C0C0
C0C0
6180
7F80
1E00
ENDCHAR
STARTCHAR uni1EDE
ENCODING 7902
SWIDTH 795 0
DWIDTH 17 0
BBX 15 21 1 0
BITMAP
0100
0380
02C0
00C0
0398
0018
07F0
1FF0
3038
601C
600C
C004
C004
C006
C004
C004
600C
600C
3038
1FF0
07C0
ENDCHAR
STARTCHAR uni1EDF
ENCODING 7903
SWIDTH 573 0
DWIDTH 12 0
BBX 11 17 1 0
BITMAP
0400
1E00
1200
0600
0440
0860
1FE0
7FC0
6180
C0C0
C0C0
C040
C0C0
C0C0
6180
7F80
1E00
ENDCHAR
STARTCHAR uni1EE0
ENCODING 7904
SWIDTH 795 0
DWIDTH 17 0
BBX 15 18 1 0
BITMAP
07E0
0FD8
0018
07F0
1FF0
3038
601C
600C
C004
C004
C006
C004
C004
600C
600C
3038
1FF0
07C0
ENDCHAR
STARTCHAR uni1EE1
ENCODING 7905
SWIDTH 573 0
DWIDTH 12 0
BBX 11 14 1 0
BITMAP
3F00
7FC0
0060
1FE0
7FC0
6180
C0C0
C0C0
C040
C0C0
C0C0
6180
7F80
1E00
ENDCHAR
STARTCHAR uni1EE2
ENCODING 7906
SWIDTH 795 0
DWIDTH 17 0
BBX 15 21 1 -4
BITMAP
0018
0018
07F0
1FF0
3038
601C
600C
C004
C004
C006
C004
C004
600C
600C
3038
1FF0
07C0
0000
0000
0380
0100
ENDCHAR
STARTCHAR uni1EE3
ENCODING 7907
SWIDTH 573 0
DWIDTH 12 0
BBX 11 16 1 -3
BITMAP
0040
0060
1FE0
7FC0
6180
C0C0
C0C0
C040
C0C0
C0C0
6180
7F80
1E00
0000
0C00
0C00
ENDCHAR
STARTCHAR uni1EE4
ENCODING 7908
SWIDTH 706 0
DWIDTH 15 0
BBX 11 18 2 -3
BITMAP
8060
8060
8060
8060
8060
8060
8060
8060
8060
8060
C060
C060
60C0
7F80
1F00
0000
0E00
0400
ENDCHAR
STARTCHAR uni1EE5
ENCODING 7909
SWIDTH 557 0
DWIDTH 12 0
BBX 10 14 1 -3
BITMAP
C180
C180
C180
C180
C180
C180
C180
C180
C380
7EC0
3C80
0000
0C00
0C00
ENDCHAR
STARTCHAR uni1EE6
ENCODING 7910
SWIDTH 706 0
DWIDTH 15 0
BBX 11 21 2 0
BITMAP
0400
0F00
0B00
0300
0600
0000
8060
8060
8060
8060
8060
8060
8060
8060
8060
8060
C060
C060
60C0
7F80
1F00
ENDCHAR
STARTCHAR uni1EE7
ENCODING 7911
SWIDTH 557 0
DWIDTH 12 0
BBX 10 17 1 0
BITMAP
0800
1E00
1600
0600
0C00
0000
C180
C180
C180
C180
C180
C180
C180
C180
C380
7EC0
3C80
ENDCHAR
STARTCHAR uni1EE8
ENCODING 7912
SWIDTH 706 0
DWIDTH 15 0
BBX 14 19 2 0
BITMAP
0080
0384
060C
040C
807C
8070
8060
8060
8060
8060
8060
8060
8060
8060
C060
C060
60C0
7F80
1F00
ENDCHAR
STARTCHAR uni1EE9
ENCODING 7913
SWIDTH 557 0
DWIDTH 12 0
BBX 12 16 1 0
BITMAP
0300
0600
0410
0C30
0030
C1F0
C1C0
C180
C180
C180
C180
C180
C180
C380
7EC0
3C80
ENDCHAR
STARTCHAR uni1EEA
ENCODING 7914
SWIDTH 706 0
DWIDTH 15 0
BBX 14 19 2 0
BITMAP
2000
7804
0C0C
040C
807C
8070
8060
8060
8060
8060
8060
8060
8060
8060
C060
C060
60C0
7F80
1F00
ENDCHAR
STARTCHAR uni1EEB
ENCODING 7915
SWIDTH 557 0
DWIDTH 12 0
BBX 12 16 1 0
BITMAP
2000
7000
1810
0C30
0830
C1F0
C1C0
C180
C180
C180
C180
C180
C180
C380
7EC0
3C80
ENDCHAR
STARTCHAR uni1EEC
ENCODING 7916
SWIDTH 706 0
DWIDTH 15 0
BBX 14 21 2 0
BITMAP
0400
0F00
0B00
0304
060C
000C
807C
8070
8060
8060
8060
8060
8060
8060
8060
8060
C060
C060
60C0
7F80
1F00
ENDCHAR
STARTCHAR uni1EED
ENCODING 7917
SWIDTH 557 0
DWIDTH 12 0
BBX 12 17 1 0
BITMAP
0800
1E00
1600
0610
0C30
0030
C1F0
C1C0
C180
C180
C180
C180
C180
C180
C380
7EC0
3C80
ENDCHAR
STARTCHAR uni1EEE
ENCODING 7918
SWIDTH 706 0
DWIDTH 15 0
BBX 14 18 2 0
BITMAP
1F84
3F8C
000C
807C
8070
8060
8060
8060
8060
8060
8060
8060
8060
C060
C060
60C0
7F80
1F00
ENDCHAR
STARTCHAR uni1EEF
ENCODING 7919
SWIDTH 557 0
DWIDTH 12 0
BBX 12 14 1 0
BITMAP
3F10
7F30
0030
C1F0
C1C0
C180
C180
C180
C180
C180
C180
C380
7EC0
3C80
ENDCHAR
STARTCHAR uni1EF0
ENCODING 7920
SWIDTH 706 0
DWIDTH 15 0
BBX 14 21 2 -3
BITMAP
0004
000C
000C
807C
8070
8060
8060
8060
8060
8060
8060
8060
8060
C060
C060
60C0
7F80
1F00
0000
0E00
0400
ENDCHAR
STARTCHAR uni1EF1
ENCODING 7921
SWIDTH 557 0
DWIDTH 12 0
BBX 12 17 1 -3
BITMAP
0010
0030
0030
C1F0
C1C0
C180
C180
C180
C180
C180
C180
C380
7EC0
3C80
0000
0C00
0C00
ENDCHAR
STARTCHAR Ygrave
ENCODING 7922
SWIDTH 565 0
DWIDTH 12 0
BBX 10 19 1 0
BITMAP
6000
7000
1800
0800
C0C0
C080
6180
6300
3300
3600
1E00
1C00
0C00
0C00
0C00
0C00
0C00
0C00
0C00
ENDCHAR
STARTCHAR ygrave
ENCODING 7923
SWIDTH 493 0
DWIDTH 10 0
BBX 10 21 0 -5
BITMAP
1000
3800
0C00
0600
0400
C0C0
6080
6180
3180
3180
1300
1B00
1B00
0E00
0E00
0600
0400
0C00
0C00
7800
3000
ENDCHAR
STARTCHAR uni1EF4
ENCODING 7924
SWIDTH 565 0
DWIDTH 12 0
BBX 10 18 1 -3
BITMAP
C0C0
C080
6180
6300
3300
3600
1E00
1C00
0C00
0C00
0C00
0C00
0C00
0C00
0C00
0000
0C00
0C00
ENDCHAR
STARTCHAR uni1EF5
ENCODING 7925
SWIDTH 493 0
DWIDTH 10 0
BBX 10 16 0 -5
BITMAP
C0C0
6080
6180
3180
3180
1300
1B00
1B00
0E00
0E00
0600
0400
0DC0
0D80
7800
3000
ENDCHAR
STARTCHAR uni1EF6
ENCODING 7926
SWIDTH 565 0
DWIDTH 12 0
BBX 10 21 1 0
BITMAP
0400
1E00
1600
0600
0C00
0000
C0C0
C080
6180
6300
3300
3600
1E00
1C00
0C00
0C00
0C00
0C00
0C00
0C00
0C00
ENDCHAR
STARTCHAR uni1EF7
ENCODING 7927
SWIDTH 493 0
DWIDTH 10 0
BBX 10 22 0 -5
BITMAP
0400
1E00
0B00
0300
0600
0800
C0C0
6080
6180
3180
3180
1300
1B00
1B00
0E00
0E00
0600
0400
0C00
0C00
7800
3000
ENDCHAR
STARTCHAR uni1EF8
ENCODING 7928
SWIDTH 565 0
DWIDTH 12 0
BBX 10 18 1 0
BITMAP
3F00
7F00
0000
C0C0
C080
6180
6300
3300
3600
1E00
1C00
0C00
0C00
0C00
0C00
0C00
0C00
0C00
ENDCHAR
STARTCHAR uni1EF9
ENCODING 7929
SWIDTH 493 0
DWIDTH 10 0
BBX 10 19 0 -5
BITMAP
1F80
3F80
0000
C0C0
6080
6180
3180
3180
1300
1B00
1B00
0E00
0E00
0600
0400
0C00
0C00
7800
3000
ENDCHAR
STARTCHAR endash
ENCODING 8211
SWIDTH 588 0
DWIDTH 12 0
BBX 9 2 2 6
BITMAP
FF80
FF80
ENDCHAR
STARTCHAR emdash
ENCODING 8212
SWIDTH 743 0
DWIDTH 16 0
BBX 12 2 2 6
BITMAP
FFF0
FFF0
ENDCHAR
STARTCHAR quoteleft
ENCODING 8216
SWIDTH 250 0
DWIDTH 5 0
BBX 2 5 2 11
BITMAP
80
C0
80
80
80
ENDCHAR
STARTCHAR quoteright
ENCODING 8217
SWIDTH 250 0
DWIDTH 5 0
BBX 3 5 1 9
BITMAP
40
60
60
C0
40
ENDCHAR
STARTCHAR quotesinglbase
ENCODING 8218
SWIDTH 250 0
DWIDTH 5 0
BBX 3 5 1 -3
BITMAP
40
60
60
C0
40
ENDCHAR
STARTCHAR quotedblleft
ENCODING 8220
SWIDTH 378 0
DWIDTH 8 0
BBX 5 5 2 11
BITMAP
90
D8
B0
F0
90
ENDCHAR
STARTCHAR quotedblright
ENCODING 8221
SWIDTH 381 0
DWIDTH 8 0
BBX 4 5 2 9
BITMAP
D0
D0
D0
B0
90
ENDCHAR
STARTCHAR quotedblbase
ENCODING 8222
SWIDTH 371 0
DWIDTH 8 0
BBX 5 4 1 -2
BITMAP
78
68
68
D8
ENDCHAR
STARTCHAR dagger
ENCODING 8224
SWIDTH 526 0
DWIDTH 11 0
BBX 9 16 1 -1
BITMAP
0800
0800
0800
0800
FF80
FF80
0800
0800
0800
0800
0800
0800
0800
0800
0800
0800
ENDCHAR
STARTCHAR daggerdbl
ENCODING 8225
SWIDTH 556 0
DWIDTH 12 0
BBX 9 16 1 -1
BITMAP
0C00
0C00
0C00
0C00
FF80
FF80
0C00
0C00
0C00
0C00
FF80
FF80
0C00
0C00
0C00
0C00
ENDCHAR
STARTCHAR bullet
ENCODING 8226
SWIDTH 326 0
DWIDTH 7 0
BBX 4 4 1 5
BITMAP
70
F0
F0
70
ENDCHAR
STARTCHAR ellipsis
ENCODING 8230
SWIDTH 568 0
DWIDTH 12 0
BBX 8 2 2 0
BITMAP
DB
DB
ENDCHAR
STARTCHAR perthousand
ENCODING 8240
SWIDTH 1169 0
DWIDTH 25 0
BBX 22 11 1 0
BITMAP
386000
7C4000
C4C000
C48000
7D8000
399C38
033E7C
0362C4
0262C4
063E7C
041C78
ENDCHAR
STARTCHAR minute
ENCODING 8242
SWIDTH 317 0
DWIDTH 7 0
BBX 2 4 2 11
BITMAP
C0
C0
C0
40
ENDCHAR
STARTCHAR second
ENCODING 8243
SWIDTH 494 0
DWIDTH 10 0
BBX 6 4 2 11
BITMAP
CC
CC
CC
4C
ENDCHAR
STARTCHAR guilsinglleft
ENCODING 8249
SWIDTH 369 0
DWIDTH 8 0
BBX 6 10 1 0
BITMAP
0C
18
30
E0
C0
C0
70
38
1C
08
ENDCHAR
STARTCHAR guilsinglright
ENCODING 8250
SWIDTH 368 0
DWIDTH 8 0
BBX 6 10 1 0
BITMAP
C0
60
30
18
0C
1C
38
60
C0
80
ENDCHAR
STARTCHAR uni203D
ENCODING 8253
SWIDTH 472 0
DWIDTH 10 0
BBX 8 15 1 0
BITMAP
7C
FE
83
83
63
63
66
6C
38
20
20
20
00
30
30
ENDCHAR
STARTCHAR fraction
ENCODING 8260
SWIDTH 204 0
DWIDTH 4 0
BBX 6 11 -1 0
BITMAP
0C
0C
08
18
10
30
30
60
60
40
C0
ENDCHAR
STARTCHAR uni2070
ENCODING 8304
SWIDTH 355 0
DWIDTH 7 0
BBX 6 7 1 4
BITMAP
70
F8
8C
8C
8C
F8
70
ENDCHAR
STARTCHAR uni2074
ENCODING 8308
SWIDTH 309 0
DWIDTH 6 0
BBX 6 7 0 4
BITMAP
30
30
38
78
7C
FC
18
ENDCHAR
STARTCHAR uni2075
ENCODING 8309
SWIDTH 323 0
DWIDTH 7 0
BBX 5 7 1 4
BITMAP
F0
F0
F0
F8
18
F8
F0
ENDCHAR
STARTCHAR uni2076
ENCODING 8310
SWIDTH 328 0
DWIDTH 7 0
BBX 5 8 1 3
BITMAP
30
F0
E0
F8
D8
D8
F8
20
ENDCHAR
STARTCHAR uni2077
ENCODING 8311
SWIDTH 294 0
DWIDTH 6 0
BBX 5 7 1 4
BITMAP
F8
F0
30
30
60
60
C0
ENDCHAR
STARTCHAR uni2078
ENCODING 8312
SWIDTH 324 0
DWIDTH 7 0
BBX 5 7 1 4
BITMAP
70
F8
D8
F8
98
F8
70
ENDCHAR
STARTCHAR uni2079
ENCODING 8313
SWIDTH 328 0
DWIDTH 7 0
BBX 5 8 1 3
BITMAP
70
F8
98
F8
78
18
F0
40
ENDCHAR
STARTCHAR colonmonetary
ENCODING 8353
SWIDTH 763 0
DWIDTH 16 0
BBX 14 17 1 -1
BITMAP
0198
0190
07F0
0FF0
1F78
3278
3640
64C0
6C80
6980
7900
7B00
3308
3E1C
2FF8
67E0
CC00
ENDCHAR
STARTCHAR franc
ENCODING 8355
SWIDTH 687 0
DWIDTH 14 0
BBX 12 14 1 0
BITMAP
1FF0
1FF0
1800
1800
1800
1800
1FE0
1FE0
1800
1800
FF00
FF00
1800
1800
ENDCHAR
STARTCHAR lira
ENCODING 8356
SWIDTH 559 0
DWIDTH 12 0
BBX 10 14 1 0
BITMAP
0FC0
1F80
3000
2000
2000
FE00
FE00
2000
FE00
FE00
2000
2000
7FC0
6F80
ENDCHAR
STARTCHAR uni20A6
ENCODING 8358
SWIDTH 942 0
DWIDTH 20 0
BBX 16 14 2 0
BITMAP
200C
300C
380C
3C0C
3C0C
FFFF
FFFF
318C
FFFF
FFFF
306C
303C
301C
300C
ENDCHAR
STARTCHAR peseta
ENCODING 8359
SWIDTH 1303 0
DWIDTH 27 0
BBX 23 14 3 0
BITMAP
FC0000
FE6000
836000
836000
837C7C
837CFC
8360C0
FE60C0
F86078
80600C
806006
806086
803DFE
801C78
ENDCHAR
STARTCHAR uni20A8
ENCODING 8360
SWIDTH 1065 0
DWIDTH 22 0
BBX 18 14 3 0
BITMAP
F80000
FE0000
860000
830600
830F80
831880
BE1800
BE1C00
B80700
8C0180
8600C0
8710C0
83BF80
81CF00
ENDCHAR
STARTCHAR uni20A9
ENCODING 8361
SWIDTH 1081 0
DWIDTH 23 0
BBX 19 14 2 0
BITMAP
804060
C0C060
C0E040
40E0C0
60E0C0
61A0C0
EF5EE0
331180
FFFFE0
FFFFE0
1E0B00
1E0E00
0C0E00
0C0600
ENDCHAR
STARTCHAR dong
ENCODING 8363
SWIDTH 593 0
DWIDTH 12 0
BBX 11 19 1 -4
BITMAP
0180
0FE0
0FE0
0180
1F80
7F80
6180
C180
C180
C180
C180
C180
E180
7FE0
3CE0
0000
0000
FF80
FF80
ENDCHAR
STARTCHAR Euro
ENCODING 8364
SWIDTH 680 0
DWIDTH 14 0
BBX 12 14 1 0
BITMAP
07E0
0FE0
1800
1000
3000
7F80
FF80
7F80
FF00
3000
1000
1810
0FF0
07E0
ENDCHAR
STARTCHAR uni20AD
ENCODING 8365
SWIDTH 695 0
DWIDTH 15 0
BBX 12 14 1 0
BITMAP
3060
30C0
30C0
3180
3180
3300
FFC0
FFC0
3300
3180
3180
30C0
3070
3070
ENDCHAR
STARTCHAR uni20B1
ENCODING 8369
SWIDTH 789 0
DWIDTH 17 0
BBX 13 14 2 0
BITMAP
1F00
1F80
10C0
FFF8
FFF8
FFF8
FFF8
1FC0
1F80
1000
1000
1000
1000
1000
ENDCHAR
STARTCHAR uni20B2
ENCODING 8370
SWIDTH 737 0
DWIDTH 15 0
BBX 12 18 2 -1
BITMAP
0600
0600
0600
0F80
3FC0
7660
E620
C600
8600
86F0
86F0
8630
C630
C620
76E0
3FC0
0F00
0600
ENDCHAR
STARTCHAR uni20B5
ENCODING 8373
SWIDTH 735 0
DWIDTH 15 0
BBX 12 18 2 -2
BITMAP
0200
0200
0F80
1FC0
7260
6220
C200
C200
8200
8200
8200
C200
C220
6230
3AE0
1FC0
0200
0200
ENDCHAR
STARTCHAR uni20B9
ENCODING 8377
SWIDTH 675 0
DWIDTH 14 0
BBX 10 14 2 0
BITMAP
FFC0
FFC0
0600
0200
FFC0
FFC0
0600
7E00
7800
1800
0C00
0600
03C0
01C0
ENDCHAR
STARTCHAR uni20BA
ENCODING 8378
SWIDTH 727 0
DWIDTH 15 0
BBX 12 14 2 0
BITMAP
3000
3000
3000
3E00
FC00
F200
3E00
F000
B000
3000
3030
3060
3FE0
3F80
ENDCHAR
STARTCHAR uni20BC
ENCODING 8380
SWIDTH 743 0
DWIDTH 16 0
BBX 12 16 2 0
BITMAP
0600
0600
0600
3F80
76C0
6660
C620
C620
C630
C630
C630
C630
C030
C030
C030
C030
ENDCHAR
STARTCHAR uni20BD
ENCODING 8381
SWIDTH 640 0
DWIDTH 13 0
BBX 10 14 2 0
BITMAP
3E00
3F80
2180
20C0
20C0
20C0
20C0
FF80
FE00
2000
FE00
FE00
2000
2000
ENDCHAR
STARTCHAR uni20BF
ENCODING 8383
SWIDTH 612 0
DWIDTH 13 0
BBX 9 18 2 -2
BITMAP
3600
3600
FE00
FF00
C100
C180
C180
C300
FE00
FF00
C180
C080
C080
C180
FF00
FE00
3600
3600
ENDCHAR
STARTCHAR uni2116
ENCODING 8470
SWIDTH 1251 0
DWIDTH 26 0
BBX 23 15 2 0
BITMAP
803070
C030F8
E0318C
E0318C
F0318C
D830F8
CC3070
CE3000
C630FE
C330FE
C1B000
C0F000
C07000
C07000
C03000
ENDCHAR
STARTCHAR trademark
ENCODING 8482
SWIDTH 751 0
DWIDTH 16 0
BBX 12 6 1 7
BITMAP
FB30
3330
33B0
33F0
33D0
33D0
ENDCHAR
STARTCHAR uni2126
ENCODING 8486
SWIDTH 677 0
DWIDTH 14 0
BBX 11 15 2 0
BITMAP
0C00
3F00
6180
40C0
C0C0
C0C0
C0C0
C0C0
C0C0
C0C0
60C0
6180
2180
F3E0
F3E0
ENDCHAR
STARTCHAR estimated
ENCODING 8494
SWIDTH 760 0
DWIDTH 16 0
BBX 13 12 2 0
BITMAP
1F80
38E0
6060
E070
E070
FFF8
E000
E000
E000
6020
7070
1FC0
ENDCHAR
STARTCHAR uni2153
ENCODING 8531
SWIDTH 761 0
DWIDTH 16 0
BBX 15 12 0 -1
BITMAP
F0C0
70C0
3080
3180
311C
333E
331E
061E
0606
0426
0C3E
0008
ENDCHAR
STARTCHAR uni2154
ENCODING 8532
SWIDTH 849 0
DWIDTH 18 0
BBX 16 12 1 -1
BITMAP
7060
F840
98C0
30C0
608E
F99F
F90F
030E
0303
0613
063F
0004
ENDCHAR
STARTCHAR uni2155
ENCODING 8533
SWIDTH 763 0
DWIDTH 16 0
BBX 15 11 0 0
BITMAP
F0C0
70C0
3080
3180
313E
333E
333C
063E
0602
043E
0C1C
ENDCHAR
STARTCHAR oneeighth
ENCODING 8539
SWIDTH 764 0
DWIDTH 16 0
BBX 15 11 0 0
BITMAP
F0C0
70C0
3080
3180
311C
333E
3336
063E
0632
043E
0C1C
ENDCHAR
STARTCHAR threeeighths
ENCODING 8540
SWIDTH 849 0
DWIDTH 18 0
BBX 17 11 0 0
BITMAP
783000
7C2000
3C6000
386000
0CC700
4CCF80
FC8D80
318F80
010980
030F80
030700
ENDCHAR
STARTCHAR fiveeighths
ENCODING 8541
SWIDTH 851 0
DWIDTH 18 0
BBX 16 11 1 0
BITMAP
F060
F040
F0C0
F8C0
188E
F99F
F11B
031F
031B
061F
060E
ENDCHAR
STARTCHAR seveneighths
ENCODING 8542
SWIDTH 822 0
DWIDTH 17 0
BBX 16 11 1 0
BITMAP
F860
F0C0
3080
3180
619C
633E
C31E
021E
0633
043E
0C1E
ENDCHAR
STARTCHAR partialdiff
ENCODING 8706
SWIDTH 613 0
DWIDTH 13 0
BBX 10 14 1 0
BITMAP
3F00
3380
0080
00C0
00C0
00C0
3FC0
73C0
60C0
C0C0
C0C0
4180
6380
3F00
ENDCHAR
STARTCHAR uni2206
ENCODING 8710
SWIDTH 622 0
DWIDTH 13 0
BBX 11 14 1 0
BITMAP
0E00
0E00
0A00
1B00
1B00
1100
3180
3180
2080
60C0
60C0
4040
FFE0
FFE0
ENDCHAR
STARTCHAR product
ENCODING 8719
SWIDTH 653 0
DWIDTH 14 0
BBX 11 15 1 -1
BITMAP
FFE0
FFE0
20C0
20C0
20C0
20C0
20C0
20C0
20C0
20C0
20C0
20C0
20C0
20C0
20C0
ENDCHAR
STARTCHAR summation
ENCODING 8721
SWIDTH 594 0
DWIDTH 12 0
BBX 9 16 2 -2
BITMAP
FF80
FF80
C000
C000
6000
3000
1800
0C00
0C00
1800
3000
7000
6000
C000
FF80
FF80
ENDCHAR
STARTCHAR minus
ENCODING 8722
SWIDTH 583 0
DWIDTH 12 0
BBX 8 2 2 5
BITMAP
FF
FF
ENDCHAR
STARTCHAR uni2215
ENCODING 8725
SWIDTH 454 0
DWIDTH 10 0
BBX 7 15 1 -1
BITMAP
02
06
06
0C
0C
0C
18
18
10
30
30
60
60
60
C0
ENDCHAR
STARTCHAR uni2219
ENCODING 8729
SWIDTH 326 0
DWIDTH 7 0
BBX 4 4 1 5
BITMAP
70
F0
F0
70
ENDCHAR
STARTCHAR radical
ENCODING 8730
SWIDTH 625 0
DWIDTH 13 0
BBX 11 20 1 -2
BITMAP
0060
0060
0060
0040
00C0
00C0
00C0
00C0
0080
0180
7180
F180
3180
1100
1900
1B00
1B00
0B00
0F00
0E00
ENDCHAR
STARTCHAR infinity
ENCODING 8734
SWIDTH 683 0
DWIDTH 14 0
BBX 10 8 2 2
BITMAP
7380
FBC0
CEC0
CC40
CC40
CE40
FFC0
7380
ENDCHAR
STARTCHAR integral
ENCODING 8747
SWIDTH 459 0
DWIDTH 10 0
BBX 8 23 1 -5
BITMAP
0F
1F
10
10
10
10
10
18
18
18
18
18
18
18
18
18
18
18
18
18
18
F8
F0
ENDCHAR
STARTCHAR approxequal
ENCODING 8776
SWIDTH 577 0
DWIDTH 12 0
BBX 8 6 2 3
BITMAP
7F
FF
00
00
7F
FF
ENDCHAR
STARTCHAR notequal
ENCODING 8800
SWIDTH 582 0
DWIDTH 12 0
BBX 9 11 2 0
BITMAP
0300
0600
0600
FF80
FF80
1800
FF80
FF80
3000
2000
6000
ENDCHAR
STARTCHAR lessequal
ENCODING 8804
SWIDTH 534 0
DWIDTH 11 0
BBX 7 11 2 1
BITMAP
02
0E
3C
F0
C0
F0
1E
06
02
FE
FE
ENDCHAR
STARTCHAR greaterequal
ENCODING 8805
SWIDTH 537 0
DWIDTH 11 0
BBX 8 11 2 1
BITMAP
80
E0
7C
0F
07
1E
78
E0
80
FF
FF
ENDCHAR
STARTCHAR lozenge
ENCODING 9674
SWIDTH 554 0
DWIDTH 12 0
BBX 9 14 1 0
BITMAP
0C00
1C00
1E00
3300
2300
6180
C180
C180
6180
2300
3300
1E00
1C00
0C00
ENDCHAR
STARTCHAR uni2766
ENCODING 10086
SWIDTH 617 0
DWIDTH 13 0
BBX 10 16 1 0
BITMAP
0800
1C00
0400
1F00
3F80
7FC0
7FC0
FFC0
7FC0
7FC0
60C0
60C0
60C0
3B80
1F00
0400
ENDCHAR
STARTCHAR fi
ENCODING 64257
SWIDTH 551 0
DWIDTH 12 0
BBX 9 20 2 -5
BITMAP
7800
FC00
C800
8000
8000
FE00
FE00
8600
8600
8600
8600
8600
8600
8780
8380
8000
8000
8000
8000
8000
ENDCHAR
STARTCHAR fl
ENCODING 64258
SWIDTH 521 0
DWIDTH 11 0
BBX 10 20 1 -5
BITMAP
3C00
7E00
4200
4300
4300
C300
C300
C300
C300
FB00
FB00
C300
C300
C380
C1C0
C000
C000
C000
C000
C000
ENDCHAR
STARTCHAR u1F330
ENCODING 127792
SWIDTH 617 0
DWIDTH 13 0
BBX 10 16 1 0
BITMAP
0800
1C00
0400
1F00
3F80
7FC0
7FC0
FFC0
7FC0
7FC0
60C0
60C0
60C0
3B80
1F00
0400
ENDCHAR
STARTCHAR .notdef
ENCODING -1
SWIDTH 600 0
DWIDTH 13 0
BBX 1 1 0 0
BITMAP
00
ENDCHAR
STARTCHAR A.ss01
ENCODING -1
SWIDTH 754 0
DWIDTH 16 0
BBX 14 15 1 0
BITMAP
0100
0180
0380
0380
06C0
0640
0460
0C60
0C30
1FF0
1FF0
1818
3018
F00C
E00C
ENDCHAR
STARTCHAR A.swsh
ENCODING -1
SWIDTH 778 0
DWIDTH 16 0
BBX 15 15 1 0
BITMAP
0080
0180
0180
03C0
0240
0660
0660
0430
0FF0
0FF0
1818
1808
B00C
F00C
E006
ENDCHAR
STARTCHAR Aacute.ss01
ENCODING -1
SWIDTH 754 0
DWIDTH 16 0
BBX 14 19 1 0
BITMAP
0020
00F0
01C0
0100
0100
0180
0380
0380
06C0
0640
0460
0C60
0C30
1FF0
1FF0
1818
3018
F00C
E00C
ENDCHAR
STARTCHAR Abreve.ss01
ENCODING -1
SWIDTH 754 0
DWIDTH 16 0
BBX 14 19 1 0
BITMAP
0460
07C0
03C0
0000
0100
0180
0380
0380
06C0
0640
0460
0C60
0C30
1FF0
1FF0
1818
3018
F00C
E00C
ENDCHAR
STARTCHAR uni1EAE.ss01
ENCODING -1
SWIDTH 754 0
DWIDTH 16 0
BBX 14 23 1 0
BITMAP
0020
00F0
01C0
0100
0460
07C0
03C0
0000
0100
0180
0380
0380
06C0
0640
0460
0C60
0C30
1FF0
1FF0
1818
3018
F00C
E00C
ENDCHAR
STARTCHAR uni1EB6.ss01
ENCODING -1
SWIDTH 754 0
DWIDTH 16 0
BBX 14 22 1 -3
BITMAP
0460
07C0
03C0
0000
0100
0180
0380
0380
06C0
0640
0460
0C60
0C30
1FF0
1FF0
1818
3018
F00C
E00C
0000
0180
0180
ENDCHAR
STARTCHAR uni1EB0.ss01
ENCODING -1
SWIDTH 754 0
DWIDTH 16 0
BBX 14 23 1 0
BITMAP
0800
0E00
0300
0100
0460
07C0
03C0
0000
0100
0180
0380
0380
06C0
0640
0460
0C60
0C30
1FF0
1FF0
1818
3018
F00C
E00C
ENDCHAR
STARTCHAR uni1EB2.ss01
ENCODING -1
SWIDTH 754 0
DWIDTH 16 0
BBX 14 25 1 0
BITMAP
0080
03C0
02C0
00C0
0180
0000
0460
07C0
03C0
0000
0100
0180
0380
0380
06C0
0640
0460
0C60
0C30
1FF0
1FF0
1818
3018
F00C
E00C
ENDCHAR
STARTCHAR uni1EB4.ss01
ENCODING -1
SWIDTH 754 0
DWIDTH 16 0
BBX 14 22 1 0
BITMAP
07E0
0FE0
0000
0460
07C0
03C0
0000
0100
0180
0380
0380
06C0
0640
0460
0C60
0C30
1FF0
1FF0
1818
3018
F00C
E00C
ENDCHAR
STARTCHAR uni01CD.ss01
ENCODING -1
SWIDTH 754 0
DWIDTH 16 0
BBX 14 19 1 0
BITMAP
0C60
06C0
0380
0000
0100
0180
0380
0380
06C0
0640
0460
0C60
0C30
1FF0
1FF0
1818
3018
F00C
E00C
ENDCHAR
STARTCHAR Acircumflex.ss01
ENCODING -1
SWIDTH 754 0
DWIDTH 16 0
BBX 14 19 1 0
BITMAP
0100
0380
0EE0
0000
0100
0180
0380
0380
06C0
0640
0460
0C60
0C30
1FF0
1FF0
1818
3018
F00C
E00C
ENDCHAR
STARTCHAR uni1EA4.ss01
ENCODING -1
SWIDTH 754 0
DWIDTH 16 0
BBX 15 21 1 0
BITMAP
0006
000E
0138
0390
0EE0
0000
0100
0180
0380
0380
06C0
0640
0460
0C60
0C30
1FF0
1FF0
1818
3018
F00C
E00C
ENDCHAR
STARTCHAR uni1EAC.ss01
ENCODING -1
SWIDTH 754 0
DWIDTH 16 0
BBX 14 22 1 -3
BITMAP
0100
0380
0EE0
0000
0100
0180
0380
0380
06C0
0640
0460
0C60
0C30
1FF0
1FF0
1818
3018
F00C
E00C
0000
0180
0180
ENDCHAR
STARTCHAR uni1EA6.ss01
ENCODING -1
SWIDTH 754 0
DWIDTH 16 0
BBX 14 21 1 0
BITMAP
0080
01C0
0170
0390
0EE0
0000
0100
0180
0380
0380
06C0
0640
0460
0C60
0C30
1FF0
1FF0
1818
3018
F00C
E00C
ENDCHAR
STARTCHAR uni1EA8.ss01
ENCODING -1
SWIDTH 754 0
DWIDTH 16 0
BBX 14 23 1 0
BITMAP
0010
0078
002C
0008
0138
0380
0EE0
0000
0100
0180
0380
0380
06C0
0640
0460
0C60
0C30
1FF0
1FF0
1818
3018
F00C
E00C
ENDCHAR
STARTCHAR uni1EAA.ss01
ENCODING -1
SWIDTH 754 0
DWIDTH 16 0
BBX 14 22 1 0
BITMAP
07E0
0FE0
0000
0100
0380
0EE0
0000
0100
0180
0380
0380
06C0
0640
0460
0C60
0C30
1FF0
1FF0
1818
3018
F00C
E00C
ENDCHAR
STARTCHAR uni0200.ss01
ENCODING -1
SWIDTH 754 0
DWIDTH 16 0
BBX 14 19 1 0
BITMAP
3200
3F80
0DC0
0440
0100
0180
0380
0380
06C0
0640
0460
0C60
0C30
1FF0
1FF0
1818
3018
F00C
E00C
ENDCHAR
STARTCHAR Adieresis.ss01
ENCODING -1
SWIDTH 754 0
DWIDTH 16 0
BBX 14 18 1 0
BITMAP
0E60
0C60
0000
0100
0180
0380
0380
06C0
0640
0460
0C60
0C30
1FF0
1FF0
1818
3018
F00C
E00C
ENDCHAR
STARTCHAR uni01DE.ss01
ENCODING -1
SWIDTH 754 0
DWIDTH 16 0
BBX 14 21 1 0
BITMAP
0FE0
0FE0
0000
0E60
0C60
0000
0100
0180
0380
0380
06C0
0640
0460
0C60
0C30
1FF0
1FF0
1818
3018
F00C
E00C
ENDCHAR
STARTCHAR uni0226.ss01
ENCODING -1
SWIDTH 754 0
DWIDTH 16 0
BBX 14 18 1 0
BITMAP
0180
0180
0000
0100
0180
0380
0380
06C0
0640
0460
0C60
0C30
1FF0
1FF0
1818
3018
F00C
E00C
ENDCHAR
STARTCHAR uni1EA0.ss01
ENCODING -1
SWIDTH 754 0
DWIDTH 16 0
BBX 14 18 1 -3
BITMAP
0100
0180
0380
0380
06C0
0640
0460
0C60
0C30
1FF0
1FF0
1818
3018
F00C
E00C
0000
0180
0180
ENDCHAR
STARTCHAR uni01E0.ss01
ENCODING -1
SWIDTH 754 0
DWIDTH 16 0
BBX 14 21 1 0
BITMAP
0FE0
0FE0
0000
0180
0180
0000
0100
0180
0380
0380
06C0
0640
0460
0C60
0C30
1FF0
1FF0
1818
3018
F00C
E00C
ENDCHAR
STARTCHAR Agrave.ss01
ENCODING -1
SWIDTH 754 0
DWIDTH 16 0
BBX 14 19 1 0
BITMAP
0800
0E00
0300
0100
0100
0180
0380
0380
06C0
0640
0460
0C60
0C30
1FF0
1FF0
1818
3018
F00C
E00C
ENDCHAR
STARTCHAR uni1EA2.ss01
ENCODING -1
SWIDTH 754 0
DWIDTH 16 0
BBX 14 21 1 0
BITMAP
0080
03C0
02C0
00C0
0180
0000
0100
0180
0380
0380
06C0
0640
0460
0C60
0C30
1FF0
1FF0
1818
3018
F00C
E00C
ENDCHAR
STARTCHAR uni0202.ss01
ENCODING -1
SWIDTH 754 0
DWIDTH 16 0
BBX 14 19 1 0
BITMAP
0100
07C0
0660
0000
0100
0180
0380
0380
06C0
0640
0460
0C60
0C30
1FF0
1FF0
1818
3018
F00C
E00C
ENDCHAR
STARTCHAR Amacron.ss01
ENCODING -1
SWIDTH 754 0
DWIDTH 16 0
BBX 14 18 1 0
BITMAP
0FE0
0FE0
0000
0100
0180
0380
0380
06C0
0640
0460
0C60
0C30
1FF0
1FF0
1818
3018
F00C
E00C
ENDCHAR
STARTCHAR Aogonek.ss01
ENCODING -1
SWIDTH 754 0
DWIDTH 16 0
BBX 15 20 1 -5
BITMAP
0100
0180
0380
0280
06C0
0640
0460
0C60
0FF0
1FF0
1810
1018
3018
F00C
E00C
000C
0018
0012
001E
0008
ENDCHAR
STARTCHAR Aring.ss01
ENCODING -1
SWIDTH 754 0
DWIDTH 16 0
BBX 14 21 1 0
BITMAP
0100
03C0
06C0
07C0
0380
0000
0100
0180
0380
0380
06C0
0640
0460
0C60
0C30
1FF0
1FF0
1818
3018
F00C
E00C
ENDCHAR
STARTCHAR Aringacute.ss01
ENCODING -1
SWIDTH 754 0
DWIDTH 16 0
BBX 14 25 1 0
BITMAP
0020
00F0
01C0
0100
0100
03C0
06C0
07C0
0380
0000
0100
0180
0380
0380
06C0
0640
0460
0C60
0C30
1FF0
1FF0
1818
3018
F00C
E00C
ENDCHAR
STARTCHAR Atilde.ss01
ENCODING -1
SWIDTH 754 0
DWIDTH 16 0
BBX 14 18 1 0
BITMAP
07E0
0FE0
0000
0100
0180
0380
0380
06C0
0640
0460
0C60
0C30
1FF0
1FF0
1818
3018
F00C
E00C
ENDCHAR
STARTCHAR AE.ss01
ENCODING -1
SWIDTH 962 0
DWIDTH 20 0
BBX 19 15 0 0
BITMAP
007FE0
007FE0
00F000
00F000
01B000
01B000
033F80
033F80
063000
07F000
0FF000
083000
183000
703FE0
F03FE0
ENDCHAR
STARTCHAR AEacute.ss01
ENCODING -1
SWIDTH 962 0
DWIDTH 20 0
BBX 19 19 0 0
BITMAP
000200
000F00
001C00
001000
007FE0
007FE0
00F000
00F000
01B000
01B000
033F80
033F80
063000
07F000
0FF000
083000
183000
703FE0
F03FE0
ENDCHAR
STARTCHAR uni01E2.ss01
ENCODING -1
SWIDTH 962 0
DWIDTH 20 0
BBX 19 18 0 0
BITMAP
00FE00
00FE00
000000
007FE0
007FE0
00F000
00F000
01B000
01B000
033F80
033F80
063000
07F000
0FF000
083000
183000
703FE0
F03FE0
ENDCHAR
STARTCHAR B.ss01
ENCODING -1
SWIDTH 674 0
DWIDTH 14 0
BBX 12 15 1 0
BITMAP
7F80
FFC0
3060
3020
3020
3060
37C0
37C0
3060
3030
3030
3030
3030
3FE0
3F80
ENDCHAR
STARTCHAR B.swsh
ENCODING -1
SWIDTH 676 0
DWIDTH 14 0
BBX 12 15 1 0
BITMAP
7F80
FFE0
8060
F020
B020
3060
37C0
37C0
3060
3030
3030
3030
3030
3FE0
3FC0
ENDCHAR
STARTCHAR uni1E02.ss01
ENCODING -1
SWIDTH 674 0
DWIDTH 14 0
BBX 12 18 1 0
BITMAP
0600
0600
0000
7F80
FFC0
3060
3020
3020
3060
37C0
37C0
3060
3030
3030
3030
3030
3FE0
3F80
ENDCHAR
STARTCHAR C.ss01
ENCODING -1
SWIDTH 720 0
DWIDTH 15 0
BBX 13 15 1 0
BITMAP
07C0
1FE0
3030
6010
60F0
C020
C000
C000
C000
C000
6000
6008
3018
1FF0
07C0
ENDCHAR
STARTCHAR C.swsh
ENCODING -1
SWIDTH 720 0
DWIDTH 15 0
BBX 13 15 1 0
BITMAP
07C0
1FF0
3030
6010
6070
C020
C000
C000
C000
C000
4000
6008
3018
1FF0
07C0
ENDCHAR
STARTCHAR Cacute.ss01
ENCODING -1
SWIDTH 720 0
DWIDTH 15 0
BBX 13 19 1 0
BITMAP
0060
00E0
0380
0100
07C0
1FE0
3030
6010
60F0
C020
C000
C000
C000
C000
6000
6008
3018
1FF0
07C0
ENDCHAR
STARTCHAR Ccaron.ss01
ENCODING -1
SWIDTH 720 0
DWIDTH 15 0
BBX 13 19 1 0
BITMAP
0C60
07C0
0300
0000
07C0
1FE0
3030
6010
60F0
C020
C000
C000
C000
C000
6000
6008
3018
1FF0
07C0
ENDCHAR
STARTCHAR Ccedilla.ss01
ENCODING -1
SWIDTH 720 0
DWIDTH 15 0
BBX 13 20 1 -5
BITMAP
07C0
1FE0
3030
6010
60F0
C020
C000
C000
C000
C000
6000
6008
3018
1FF0
0FC0
0300
0380
0080
0180
0300
ENDCHAR
STARTCHAR uni1E08.ss01
ENCODING -1
SWIDTH 720 0
DWIDTH 15 0
BBX 13 25 1 -5
BITMAP
0020
00E0
03C0
0100
0000
07C0
1FE0
3030
6010
60F0
C020
C000
C000
C000
C000
6000
6008
3018
1FF0
0FC0
0300
0380
0080
0180
0300
ENDCHAR
STARTCHAR Ccircumflex.ss01
ENCODING -1
SWIDTH 720 0
DWIDTH 15 0
BBX 13 19 1 0
BITMAP
0100
0780
0CE0
0000
07C0
1FE0
3030
6010
60F0
C020
C000
C000
C000
C000
6000
6008
3018
1FF0
07C0
ENDCHAR
STARTCHAR Cdotaccent.ss01
ENCODING -1
SWIDTH 720 0
DWIDTH 15 0
BBX 13 18 1 0
BITMAP
0300
0300
0000
07C0
1FE0
3030
6010
60F0
C020
C000
C000
C000
C000
6000
6008
3018
1FF0
07C0
ENDCHAR
STARTCHAR D.ss01
ENCODING -1
SWIDTH 797 0
DWIDTH 17 0
BBX 15 15 1 0
BITMAP
7FE0
FFF0
3018
300C
300C
3004
3006
3006
3006
3004
300C
300C
3018
3FF0
3FC0
ENDCHAR
STARTCHAR D.swsh
ENCODING -1
SWIDTH 805 0
DWIDTH 17 0
BBX 15 15 1 0
BITMAP
7FE0
FFF0
B018
F00C
7004
3006
3006
3006
3006
3006
300C
300C
3018
3FF0
3FC0
ENDCHAR
STARTCHAR uni01F1.ss01
ENCODING -1
SWIDTH 1365 0
DWIDTH 29 0
BBX 27 15 1 0
BITMAP
7FE07FC0
FFF07F80
30180180
300C0300
300C0300
30040600
30060400
30060C00
30061800
30041800
300C3000
300C3000
30186040
3FF07FE0
3FC0C780
ENDCHAR
STARTCHAR uni01C4.ss01
ENCODING -1
SWIDTH 1365 0
DWIDTH 29 0
BBX 27 19 1 0
BITMAP
00006300
00003600
00001C00
00000000
7FE07FC0
FFF07F80
30180180
300C0300
300C0300
30040600
30060400
30060C00
30061800
30041800
300C3000
300C3000
30186040
3FF07FE0
3FC0C780
ENDCHAR
STARTCHAR Eth.ss01
ENCODING -1
SWIDTH 797 0
DWIDTH 17 0
BBX 15 15 1 0
BITMAP
7FE0
FFF0
3018
300C
300C
3004
FF06
FF06
3006
3004
300C
300C
3018
3FF0
3FC0
ENDCHAR
STARTCHAR Dcaron.ss01
ENCODING -1
SWIDTH 797 0
DWIDTH 17 0
BBX 15 19 1 0
BITMAP
0C60
07C0
0180
0000
7FE0
FFF0
3018
300C
300C
3004
3006
3006
3006
3004
300C
300C
3018
3FF0
3FC0
ENDCHAR
STARTCHAR Dcroat.ss01
ENCODING -1
SWIDTH 797 0
DWIDTH 17 0
BBX 15 15 1 0
BITMAP
7FE0
FFF0
3018
300C
300C
3004
FF06
FF06
3006
3004
300C
300C
3018
3FF0
3FC0
ENDCHAR
STARTCHAR uni1E0A.ss01
ENCODING -1
SWIDTH 735 0
DWIDTH 15 0
BBX 12 18 2 0
BITMAP
0600
0600
0000
FF00
FFC0
C060
C060
C030
C030
C010
C010
C010
C030
C030
C060
C0E0
FFC0
FF00
ENDCHAR
STARTCHAR uni1E0C.ss01
ENCODING -1
SWIDTH 735 0
DWIDTH 15 0
BBX 12 18 2 -3
BITMAP
FF00
FFC0
C060
C060
C030
C030
C010
C010
C010
C030
C030
C060
C0E0
FFC0
FF00
0000
0E00
0C00
ENDCHAR
STARTCHAR uni01F2.ss01
ENCODING -1
SWIDTH 1198 0
DWIDTH 25 0
BBX 22 15 2 0
BITMAP
FF0000
FFC000
C06000
C06000
C031FC
C031FC
C01018
C01038
C01030
C03060
C03060
C060C0
C0E180
FFC1FC
FF03FC
ENDCHAR
STARTCHAR uni01C5.ss01
ENCODING -1
SWIDTH 1224 0
DWIDTH 26 0
BBX 22 15 2 0
BITMAP
FF01CC
FFC078
C06030
C06000
C031FC
C031FC
C01018
C01038
C01030
C03060
C03060
C060C0
C0E180
FFC1FC
FF03FC
ENDCHAR
STARTCHAR E.ss01
ENCODING -1
SWIDTH 651 0
DWIDTH 14 0
BBX 12 15 1 0
BITMAP
7FF0
FFF0
B000
3000
3000
3000
3F80
3F80
3000
3000
3000
3000
3000
3FF0
3FF0
ENDCHAR
STARTCHAR E.swsh
ENCODING -1
SWIDTH 663 0
DWIDTH 14 0
BBX 12 15 1 0
BITMAP
7FF0
FFF0
8000
F000
B000
3000
3F80
3F80
3000
3000
3000
3000
3000
3FF0
3FF0
ENDCHAR
STARTCHAR Eacute.ss01
ENCODING -1
SWIDTH 651 0
DWIDTH 14 0
BBX 12 19 1 0
BITMAP
0040
00E0
0380
0200
7FF0
FFF0
B000
3000
3000
3000
3F80
3F80
3000
3000
3000
3000
3000
3FF0
3FF0
ENDCHAR
STARTCHAR Ebreve.ss01
ENCODING -1
SWIDTH 651 0
DWIDTH 14 0
BBX 12 19 1 0
BITMAP
0CC0
0FC0
0780
0000
7FF0
FFF0
B000
3000
3000
3000
3F80
3F80
3000
3000
3000
3000
3000
3FF0
3FF0
ENDCHAR
STARTCHAR Ecaron.ss01
ENCODING -1
SWIDTH 651 0
DWIDTH 14 0
BBX 12 19 1 0
BITMAP
1CE0
0780
0300
0000
7FF0
FFF0
B000
3000
3000
3000
3F80
3F80
3000
3000
3000
3000
3000
3FF0
3FF0
ENDCHAR
STARTCHAR uni0228.ss01
ENCODING -1
SWIDTH 651 0
DWIDTH 14 0
BBX 12 20 1 -5
BITMAP
7FF0
FFF0
3000
3000
3000
3000
3F80
3F80
3000
3000
3000
3000
3000
3FF0
3FF0
0300
0380
0080
0180
0200
ENDCHAR
STARTCHAR Ecircumflex.ss01
ENCODING -1
SWIDTH 651 0
DWIDTH 14 0
BBX 12 19 1 0
BITMAP
0300
0780
0CC0
0000
7FF0
FFF0
B000
3000
3000
3000
3F80
3F80
3000
3000
3000
3000
3000
3FF0
3FF0
ENDCHAR
STARTCHAR uni1EBE.ss01
ENCODING -1
SWIDTH 651 0
DWIDTH 14 0
BBX 14 21 1 0
BITMAP
0004
001C
0330
07A0
0CC0
0000
7FF0
FFF0
B000
3000
3000
3000
3F80
3F80
3000
3000
3000
3000
3000
3FF0
3FF0
ENDCHAR
STARTCHAR uni1EC6.ss01
ENCODING -1
SWIDTH 651 0
DWIDTH 14 0
BBX 12 22 1 -3
BITMAP
0300
0780
0CC0
0000
7FF0
FFF0
B000
3000
3000
3000
3F80
3F80
3000
3000
3000
3000
3000
3FF0
3FF0
0000
0300
0300
ENDCHAR
STARTCHAR uni1EC0.ss01
ENCODING -1
SWIDTH 651 0
DWIDTH 14 0
BBX 12 21 1 0
BITMAP
0100
03C0
03E0
07A0
0CC0
0000
7FF0
FFF0
B000
3000
3000
3000
3F80
3F80
3000
3000
3000
3000
3000
3FF0
3FF0
ENDCHAR
STARTCHAR uni1EC2.ss01
ENCODING -1
SWIDTH 651 0
DWIDTH 14 0
BBX 13 23 1 0
BITMAP
0020
0078
0058
0018
0330
0780
0CC0
0000
7FF0
FFF0
B000
3000
3000
3000
3F80
3F80
3000
3000
3000
3000
3000
3FF0
3FF0
ENDCHAR
STARTCHAR uni1EC4.ss01
ENCODING -1
SWIDTH 651 0
DWIDTH 14 0
BBX 12 22 1 0
BITMAP
0FC0
1FE0
0000
0300
0780
0CC0
0000
7FF0
FFF0
B000
3000
3000
3000
3F80
3F80
3000
3000
3000
3000
3000
3FF0
3FF0
ENDCHAR
STARTCHAR uni0204.ss01
ENCODING -1
SWIDTH 607 0
DWIDTH 13 0
BBX 11 19 1 0
BITMAP
4C00
EE00
3B80
0900
7FC0
7FC0
6000
6000
6000
6000
7F00
7F00
6000
6000
6000
6000
6000
7FE0
7FE0
ENDCHAR
STARTCHAR Edieresis.ss01
ENCODING -1
SWIDTH 651 0
DWIDTH 14 0
BBX 12 18 1 0
BITMAP
0CC0
0CC0
0000
7FF0
FFF0
B000
3000
3000
3000
3F80
3F80
3000
3000
3000
3000
3000
3FF0
3FF0
ENDCHAR
STARTCHAR Edotaccent.ss01
ENCODING -1
SWIDTH 651 0
DWIDTH 14 0
BBX 12 18 1 0
BITMAP
0300
0300
0000
7FF0
FFF0
B000
3000
3000
3000
3F80
3F80
3000
3000
3000
3000
3000
3FF0
3FF0
ENDCHAR
STARTCHAR uni1EB8.ss01
ENCODING -1
SWIDTH 651 0
DWIDTH 14 0
BBX 12 18 1 -3
BITMAP
7FF0
FFF0
B000
3000
3000
3000
3F80
3F80
3000
3000
3000
3000
3000
3FF0
3FF0
0000
0300
0300
ENDCHAR
STARTCHAR Egrave.ss01
ENCODING -1
SWIDTH 651 0
DWIDTH 14 0
BBX 12 19 1 0
BITMAP
0800
1C00
0700
0200
7FF0
FFF0
B000
3000
3000
3000
3F80
3F80
3000
3000
3000
3000
3000
3FF0
3FF0
ENDCHAR
STARTCHAR uni1EBA.ss01
ENCODING -1
SWIDTH 651 0
DWIDTH 14 0
BBX 12 21 1 0
BITMAP
0100
0780
0280
0180
0300
0000
7FF0
FFF0
B000
3000
3000
3000
3F80
3F80
3000
3000
3000
3000
3000
3FF0
3FF0
ENDCHAR
STARTCHAR uni0206.ss01
ENCODING -1
SWIDTH 607 0
DWIDTH 13 0
BBX 10 19 2 0
BITMAP
0C00
1F00
3300
0000
FF80
FF80
C000
C000
C000
C000
FE00
FE00
C000
C000
C000
C000
C000
FFC0
FFC0
ENDCHAR
STARTCHAR Emacron.ss01
ENCODING -1
SWIDTH 651 0
DWIDTH 14 0
BBX 12 18 1 0
BITMAP
1FE0
1FE0
0000
7FF0
FFF0
B000
3000
3000
3000
3F80
3F80
3000
3000
3000
3000
3000
3FF0
3FF0
ENDCHAR
STARTCHAR uni1E16.ss01
ENCODING -1
SWIDTH 651 0
DWIDTH 14 0
BBX 12 22 1 0
BITMAP
0040
00E0
0380
0200
1FE0
1FE0
0000
7FF0
FFF0
B000
3000
3000
3000
3F80
3F80
3000
3000
3000
3000
3000
3FF0
3FF0
ENDCHAR
STARTCHAR uni1E14.ss01
ENCODING -1
SWIDTH 651 0
DWIDTH 14 0
BBX 12 22 1 0
BITMAP
0800
1C00
0700
0200
1FE0
1FE0
0000
7FF0
FFF0
B000
3000
3000
3000
3F80
3F80
3000
3000
3000
3000
3000
3FF0
3FF0
ENDCHAR
STARTCHAR Eogonek.ss01
ENCODING -1
SWIDTH 651 0
DWIDTH 14 0
BBX 12 20 1 -5
BITMAP
7FF0
FFF0
3000
3000
3000
3000
3F80
3F80
3000
3000
3000
3000
3000
3FF0
3FF0
0060
00C0
00D0
00F0
0020
ENDCHAR
STARTCHAR uni1EBC.ss01
ENCODING -1
SWIDTH 651 0
DWIDTH 14 0
BBX 12 18 1 0
BITMAP
0FC0
1FE0
0000
7FF0
FFF0
B000
3000
3000
3000
3F80
3F80
3000
3000
3000
3000
3000
3FF0
3FF0
ENDCHAR
STARTCHAR F.ss01
ENCODING -1
SWIDTH 638 0
DWIDTH 13 0
BBX 12 15 1 0
BITMAP
FFF0
FFF0
B000
3000
3000
3000
3F80
3F80
3000
3000
3000
3000
3000
3000
3000
ENDCHAR
STARTCHAR F.swsh
ENCODING -1
SWIDTH 649 0
DWIDTH 14 0
BBX 12 15 1 0
BITMAP
7FF0
FFF0
8000
F000
B000
3000
3F80
3F80
3000
3000
3000
3000
3000
3000
3000
ENDCHAR
STARTCHAR uni1E1E.ss01
ENCODING -1
SWIDTH 638 0
DWIDTH 13 0
BBX 12 18 1 0
BITMAP
0600
0600
0000
FFF0
FFF0
B000
3000
3000
3000
3F80
3F80
3000
3000
3000
3000
3000
3000
3000
ENDCHAR
STARTCHAR G.ss01
ENCODING -1
SWIDTH 734 0
DWIDTH 15 0
BBX 13 15 1 0
BITMAP
07C0
1FF0
3030
6010
6070
C020
C000
C1F8
C1F8
C008
4018
6018
3030
1FE0
07C0
ENDCHAR
STARTCHAR G.swsh
ENCODING -1
SWIDTH 749 0
DWIDTH 16 0
BBX 13 20 1 -5
BITMAP
07C0
1FF0
3030
6010
6070
C020
C000
C000
C008
C008
6008
6018
3038
1FE8
07C8
0008
0008
0008
0038
0078
ENDCHAR
STARTCHAR uni01F4.ss01
ENCODING -1
SWIDTH 734 0
DWIDTH 15 0
BBX 13 19 1 0
BITMAP
0060
00E0
0380
0100
07C0
1FF0
3030
6010
6070
C020
C000
C1F8
C1F8
C008
4018
6018
3030
1FE0
07C0
ENDCHAR
STARTCHAR Gbreve.ss01
ENCODING -1
SWIDTH 734 0
DWIDTH 15 0
BBX 13 19 1 0
BITMAP
0C40
07C0
0780
0000
07C0
1FF0
3030
6010
6070
C020
C000
C1F8
C1F8
C008
4018
6018
3030
1FE0
07C0
ENDCHAR
STARTCHAR Gcaron.ss01
ENCODING -1
SWIDTH 734 0
DWIDTH 15 0
BBX 13 19 1 0
BITMAP
0C60
06C0
0380
0000
07C0
1FF0
3030
6010
6070
C020
C000
C1F8
C1F8
C008
4018
6018
3030
1FE0
07C0
ENDCHAR
STARTCHAR Gcircumflex.ss01
ENCODING -1
SWIDTH 734 0
DWIDTH 15 0
BBX 13 19 1 0
BITMAP
0100
0380
0CE0
0000
07C0
1FF0
3030
6010
6070
C020
C000
C1F8
C1F8
C008
4018
6018
3030
1FE0
07C0
ENDCHAR
STARTCHAR uni0122.ss01
ENCODING -1
SWIDTH 734 0
DWIDTH 15 0
BBX 13 21 1 -6
BITMAP
07C0
1FF0
3030
6010
6070
C020
C000
C1F8
C1F8
C008
4018
6018
3030
1FE0
07C0
0000
0000
0300
0300
0300
0200
ENDCHAR
STARTCHAR Gdotaccent.ss01
ENCODING -1
SWIDTH 734 0
DWIDTH 15 0
BBX 13 18 1 0
BITMAP
0300
0300
0000
07C0
1FF0
3030
6010
6070
C020
C000
C1F8
C1F8
C008
4018
6018
3030
1FE0
07C0
ENDCHAR
STARTCHAR uni1E20.ss01
ENCODING -1
SWIDTH 730 0
DWIDTH 15 0
BBX 13 18 1 0
BITMAP
0FE0
0FE0
0000
07C0
1FE0
3030
6010
6000
C000
C000
C1F8
C1F8
C008
4018
6018
3030
1FE0
0FC0
ENDCHAR
STARTCHAR H.ss01
ENCODING -1
SWIDTH 727 0
DWIDTH 15 0
BBX 13 15 0 0
BITMAP
F008
7008
1008
1008
1008
1008
1FF8
1FF8
1008
1008
1008
1008
1008
1008
1008
ENDCHAR
STARTCHAR H.swsh
ENCODING -1
SWIDTH 747 0
DWIDTH 16 0
BBX 14 15 0 0
BITMAP
700C
F80C
180C
180C
180C
180C
1FFC
1FFC
180C
180C
180C
180C
180C
180C
180C
ENDCHAR
STARTCHAR Hbar.ss01
ENCODING -1
SWIDTH 727 0
DWIDTH 15 0
BBX 13 15 0 0
BITMAP
F008
7008
1008
1FF8
1FF8
1008
1FF8
1FF8
1008
1008
1008
1008
1008
1008
1008
ENDCHAR
STARTCHAR uni1E2A.ss01
ENCODING -1
SWIDTH 727 0
DWIDTH 15 0
BBX 13 20 0 -5
BITMAP
F008
7008
1008
1008
1008
1008
1FF8
1FF8
1008
1008
1008
1008
1008
1008
1008
0000
0000
0C60
06C0
07C0
ENDCHAR
STARTCHAR uni021E.ss01
ENCODING -1
SWIDTH 727 0
DWIDTH 15 0
BBX 13 19 0 0
BITMAP
0630
0360
0180
0000
F008
7008
1008
1008
1008
1008
1FF8
1FF8
1008
1008
1008
1008
1008
1008
1008
ENDCHAR
STARTCHAR Hcircumflex.ss01
ENCODING -1
SWIDTH 727 0
DWIDTH 15 0
BBX 13 19 0 0
BITMAP
0080
03C0
0670
0000
F008
7008
1008
1008
1008
1008
1FF8
1FF8
1008
1008
1008
1008
1008
1008
1008
ENDCHAR
STARTCHAR uni1E24.ss01
ENCODING -1
SWIDTH 727 0
DWIDTH 15 0
BBX 13 18 0 -3
BITMAP
F008
7008
1008
1008
1008
1008
1FF8
1FF8
1008
1008
1008
1008
1008
1008
1008
0000
0380
0180
ENDCHAR
STARTCHAR I.swsh
ENCODING -1
SWIDTH 328 0
DWIDTH 7 0
BBX 5 15 0 0
BITMAP
70
F8
18
18
18
18
18
18
18
18
18
18
18
18
18
ENDCHAR
STARTCHAR IJ.ss01
ENCODING -1
SWIDTH 802 0
DWIDTH 17 0
BBX 13 15 2 0
BITMAP
C7F8
C3F8
C018
C018
C018
C018
C018
C018
C018
C018
C018
C418
C618
C3F0
C1E0
ENDCHAR
STARTCHAR J.ss01
ENCODING -1
SWIDTH 526 0
DWIDTH 11 0
BBX 8 15 1 0
BITMAP
FF
7F
03
03
03
03
03
03
03
03
03
C3
C3
7E
3C
ENDCHAR
STARTCHAR uni00A40301
ENCODING -1
SWIDTH 517 0
DWIDTH 11 0
BBX 11 19 1 0
BITMAP
0060
00E0
0380
0100
0300
0300
0300
0300
0300
0300
0300
0300
0300
0300
0300
8300
C300
7E00
3C00
ENDCHAR
STARTCHAR Jcircumflex.ss01
ENCODING -1
SWIDTH 526 0
DWIDTH 11 0
BBX 8 19 1 0
BITMAP
08
3C
67
00
FF
7F
03
03
03
03
03
03
03
03
03
C3
C3
7E
3C
ENDCHAR
STARTCHAR K.ss01
ENCODING -1
SWIDTH 693 0
DWIDTH 15 0
BBX 14 15 0 0
BITMAP
F030
7030
1060
1060
10C0
1080
1180
1F00
1F00
1980
18C0
1860
1860
1838
181C
ENDCHAR
STARTCHAR K.swsh
ENCODING -1
SWIDTH 725 0
DWIDTH 15 0
BBX 15 15 0 0
BITMAP
7018
F830
1820
1860
1840
18C0
1980
1F80
1D80
18C0
18C0
1860
1830
183E
181C
ENDCHAR
STARTCHAR uni01E8.ss01
ENCODING -1
SWIDTH 693 0
DWIDTH 15 0
BBX 14 19 0 0
BITMAP
0CE0
0780
0300
0000
F030
7030
1060
1060
10C0
1080
1180
1F00
1F00
1980
18C0
1860
1860
1838
181C
ENDCHAR
STARTCHAR uni0136.ss01
ENCODING -1
SWIDTH 693 0
DWIDTH 15 0
BBX 14 21 0 -6
BITMAP
F030
7030
1060
1060
10C0
1080
1180
1F00
1F00
1980
18C0
1860
1860
1838
181C
0000
0000
0300
0300
0200
0200
ENDCHAR
STARTCHAR L.swsh
ENCODING -1
SWIDTH 593 0
DWIDTH 12 0
BBX 12 15 0 0
BITMAP
7000
F800
1800
1800
1800
1800
1800
1800
1800
1800
1800
1800
1800
1FF0
1FF0
ENDCHAR
STARTCHAR uni01C7.ss01
ENCODING -1
SWIDTH 1065 0
DWIDTH 22 0
BBX 19 15 2 0
BITMAP
C01FE0
C01FE0
C00060
C00060
C00060
C00060
C00060
C00060
C00060
C00060
C00060
C03040
C010C0
FF9FC0
FF8F00
ENDCHAR
STARTCHAR M.ss01
ENCODING -1
SWIDTH 1015 0
DWIDTH 21 0
BBX 19 15 1 0
BITMAP
040180
0E0380
0E0380
0E0380
0B0680
0B06C0
1984C0
198CC0
188CC0
10D840
30D860
305060
307060
F07060
E02020
ENDCHAR
STARTCHAR M.swsh
ENCODING -1
SWIDTH 1031 0
DWIDTH 22 0
BBX 20 15 1 0
BITMAP
060180
060180
070380
0F03C0
0F02C0
0D86C0
0986C0
188440
18CC40
18CC60
184860
107860
B07820
F03020
E03030
ENDCHAR
STARTCHAR uni1E40.ss01
ENCODING -1
SWIDTH 1015 0
DWIDTH 21 0
BBX 19 18 1 0
BITMAP
007000
002000
000000
040180
0E0380
0E0380
0E0380
0B0680
0B06C0
1984C0
198CC0
188CC0
10D840
30D860
305060
307060
F07060
E02020
ENDCHAR
STARTCHAR uni1E42.ss01
ENCODING -1
SWIDTH 1015 0
DWIDTH 21 0
BBX 19 18 1 -3
BITMAP
040180
0E0380
0E0380
0E0380
0B0680
0B06C0
1984C0
198CC0
188CC0
10D840
30D860
305060
307060
F07060
E02020
000000
003000
003000
ENDCHAR
STARTCHAR N.ss01
ENCODING -1
SWIDTH 783 0
DWIDTH 16 0
BBX 13 15 1 0
BITMAP
2008
3008
3808
3C08
3608
3608
3308
3188
30C8
30C8
3068
3038
3018
B018
E008
ENDCHAR
STARTCHAR N.swsh
ENCODING -1
SWIDTH 798 0
DWIDTH 17 0
BBX 14 15 1 0
BITMAP
300C
380C
380C
3C0C
360C
330C
338C
318C
30CC
306C
307C
303C
301C
F00C
E004
ENDCHAR
STARTCHAR uni01CA.ss01
ENCODING -1
SWIDTH 1309 0
DWIDTH 27 0
BBX 25 15 1 0
BITMAP
20087F80
30087F80
38080180
3C080180
36080180
36080180
33080180
31880180
30C80180
30C80180
30680180
3038C180
30184300
B0187F00
E0083E00
ENDCHAR
STARTCHAR Nacute.ss01
ENCODING -1
SWIDTH 783 0
DWIDTH 16 0
BBX 13 19 1 0
BITMAP
0020
0070
01C0
0100
2008
3008
3808
3C08
3608
3608
3308
3188
30C8
30C8
3068
3038
3018
B018
E008
ENDCHAR
STARTCHAR Ncaron.ss01
ENCODING -1
SWIDTH 783 0
DWIDTH 16 0
BBX 13 19 1 0
BITMAP
0C60
07C0
0180
0000
2008
3008
3808
3C08
3608
3608
3308
3188
30C8
30C8
3068
3038
3018
B018
E008
ENDCHAR
STARTCHAR uni0145.ss01
ENCODING -1
SWIDTH 783 0
DWIDTH 16 0
BBX 13 21 1 -6
BITMAP
2008
3008
3808
3C08
3608
3608
3308
3188
30C8
30C8
3068
3038
3018
B018
E008
0000
0000
0180
0100
0300
0300
ENDCHAR
STARTCHAR uni01F8.ss01
ENCODING -1
SWIDTH 783 0
DWIDTH 16 0
BBX 13 19 1 0
BITMAP
0C00
0E00
0380
0100
2008
3008
3808
3C08
3608
3608
3308
3188
30C8
30C8
3068
3038
3018
B018
E008
ENDCHAR
STARTCHAR Eng.ss01
ENCODING -1
SWIDTH 783 0
DWIDTH 16 0
BBX 13 19 1 -4
BITMAP
2008
3008
3808
3C08
3E08
3608
3308
3188
30C8
30C8
3068
3038
3018
F008
E008
0008
0008
0078
0010
ENDCHAR
STARTCHAR uni01CB.ss01
ENCODING -1
SWIDTH 1020 0
DWIDTH 21 0
BBX 19 20 1 -5
BITMAP
200860
300860
380800
3C0800
360860
360860
330860
318860
30C860
30C860
306860
303860
301860
B01860
E00860
000060
000060
000060
0003E0
0001C0
ENDCHAR
STARTCHAR uni1E48.ss01
ENCODING -1
SWIDTH 783 0
DWIDTH 16 0
BBX 13 18 1 -3
BITMAP
2008
3008
3808
3C08
3608
3608
3308
3188
30C8
30C8
3068
3038
3018
B018
E008
0000
0FE0
0FE0
ENDCHAR
STARTCHAR Ntilde.ss01
ENCODING -1
SWIDTH 783 0
DWIDTH 16 0
BBX 13 18 1 0
BITMAP
07E0
0FF0
0000
2008
3008
3808
3C08
3608
3608
3308
3188
30C8
30C8
3068
3038
3018
B018
E008
ENDCHAR
STARTCHAR P.ss01
ENCODING -1
SWIDTH 623 0
DWIDTH 13 0
BBX 11 15 1 0
BITMAP
7F80
FFC0
B060
3060
3060
3060
3060
30C0
37C0
3600
3000
3000
3000
3000
3000
ENDCHAR
STARTCHAR P.swsh
ENCODING -1
SWIDTH 634 0
DWIDTH 13 0
BBX 11 15 1 0
BITMAP
7F80
FFC0
8060
D020
9020
1020
1060
10E0
17C0
1600
1000
1000
1000
1000
1000
ENDCHAR
STARTCHAR uni1E56.ss01
ENCODING -1
SWIDTH 623 0
DWIDTH 13 0
BBX 11 18 1 0
BITMAP
0E00
0C00
0000
7F80
FFC0
B060
3060
3060
3060
3060
30C0
37C0
3600
3000
3000
3000
3000
3000
ENDCHAR
STARTCHAR R.ss01
ENCODING -1
SWIDTH 718 0
DWIDTH 15 0
BBX 14 15 1 0
BITMAP
7F80
FFC0
B060
3060
3060
3060
3060
37C0
3700
3180
31C0
30C0
3060
3038
303C
ENDCHAR
STARTCHAR R.swsh
ENCODING -1
SWIDTH 747 0
DWIDTH 16 0
BBX 14 15 1 0
BITMAP
7F80
FFC0
8060
F020
B020
3020
3060
37C0
3780
3180
30C0
30C0
3060
303C
3018
ENDCHAR
STARTCHAR Racute.ss01
ENCODING -1
SWIDTH 718 0
DWIDTH 15 0
BBX 14 19 1 0
BITMAP
0080
01C0
0700
0400
7F80
FFC0
B060
3060
3060
3060
3060
37C0
3700
3180
31C0
30C0
3060
3038
303C
ENDCHAR
STARTCHAR Rcaron.ss01
ENCODING -1
SWIDTH 718 0
DWIDTH 15 0
BBX 14 19 1 0
BITMAP
39C0
0F00
0600
0000
7F80
FFC0
B060
3060
3060
3060
3060
37C0
3700
3180
31C0
30C0
3060
3038
303C
ENDCHAR
STARTCHAR uni0156.ss01
ENCODING -1
SWIDTH 718 0
DWIDTH 15 0
BBX 14 21 1 -6
BITMAP
7F80
FFC0
B060
3060
3060
3060
3060
37C0
3700
3180
31C0
30C0
3060
3038
303C
0000
0000
0600
0600
0600
0400
ENDCHAR
STARTCHAR uni0210.ss01
ENCODING -1
SWIDTH 718 0
DWIDTH 15 0
BBX 14 19 1 0
BITMAP
4C00
EE00
3B00
1100
7F80
FFC0
B060
3060
3060
3060
3060
37C0
3700
3180
31C0
30C0
3060
3038
303C
ENDCHAR
STARTCHAR uni1E5A.ss01
ENCODING -1
SWIDTH 718 0
DWIDTH 15 0
BBX 14 18 1 -3
BITMAP
7F80
FFC0
B060
3060
3060
3060
3060
37C0
3700
3180
31C0
30C0
3060
3038
303C
0000
0600
0600
ENDCHAR
STARTCHAR uni0212.ss01
ENCODING -1
SWIDTH 718 0
DWIDTH 15 0
BBX 14 19 1 0
BITMAP
0600
0F00
1980
0000
7F80
FFC0
B060
3060
3060
3060
3060
37C0
3700
3180
31C0
30C0
3060
3038
303C
ENDCHAR
STARTCHAR uni1E5E.ss01
ENCODING -1
SWIDTH 718 0
DWIDTH 15 0
BBX 14 18 1 -3
BITMAP
7F80
FFC0
B060
3060
3060
3060
3060
37C0
3700
3180
31C0
30C0
3060
3038
303C
0000
1FC0
1FC0
ENDCHAR
STARTCHAR S.ss01
ENCODING -1
SWIDTH 568 0
DWIDTH 12 0
BBX 10 15 1 0
BITMAP
1E00
3F00
6180
6380
6200
3800
1E00
0780
0180
00C0
00C0
80C0
C180
7F80
3E00
ENDCHAR
STARTCHAR S.swsh
ENCODING -1
SWIDTH 569 0
DWIDTH 12 0
BBX 10 15 1 0
BITMAP
1F00
3F80
6380
6700
6000
3800
1E00
0700
0180
00C0
80C0
C0C0
C1C0
7F80
1E00
ENDCHAR
STARTCHAR Sacute.ss01
ENCODING -1
SWIDTH 568 0
DWIDTH 12 0
BBX 10 19 1 0
BITMAP
0180
0380
0E00
0400
1E00
3F00
6180
6380
6200
3800
1E00
0780
0180
00C0
00C0
80C0
C180
7F80
3E00
ENDCHAR
STARTCHAR Scaron.ss01
ENCODING -1
SWIDTH 568 0
DWIDTH 12 0
BBX 10 19 1 0
BITMAP
3180
1B00
0C00
0000
1E00
3F00
6180
6380
6200
3800
1E00
0780
0180
00C0
00C0
80C0
C180
7F80
3E00
ENDCHAR
STARTCHAR uni1E66.ss01
ENCODING -1
SWIDTH 568 0
DWIDTH 12 0
BBX 10 22 1 0
BITMAP
0C00
0C00
0000
3180
1B00
0C00
0000
1E00
3F00
6180
6380
6200
3800
1E00
0780
0180
00C0
00C0
80C0
C180
7F80
3E00
ENDCHAR
STARTCHAR Scedilla.ss01
ENCODING -1
SWIDTH 568 0
DWIDTH 12 0
BBX 10 20 1 -5
BITMAP
1E00
3F00
6180
6380
6300
3000
1E00
0F00
0180
00C0
00C0
80C0
C0C0
6180
3F00
0C00
0E00
0200
0600
0C00
ENDCHAR
STARTCHAR Scircumflex.ss01
ENCODING -1
SWIDTH 568 0
DWIDTH 12 0
BBX 10 19 1 0
BITMAP
0400
1E00
3380
0000
1E00
3F00
6180
6380
6200
3800
1E00
0780
0180
00C0
00C0
80C0
C180
7F80
3E00
ENDCHAR
STARTCHAR uni0218.ss01
ENCODING -1
SWIDTH 568 0
DWIDTH 12 0
BBX 10 21 1 -6
BITMAP
1E00
3F00
6180
6380
6200
3800
1E00
0780
0180
00C0
00C0
80C0
C180
7F80
3E00
0000
0000
0C00
0C00
0800
0800
ENDCHAR
STARTCHAR uni1E60.ss01
ENCODING -1
SWIDTH 568 0
DWIDTH 12 0
BBX 10 18 1 0
BITMAP
0C00
0C00
0000
1E00
3F00
6180
6380
6200
3800
1E00
0780
0180
00C0
00C0
80C0
C180
7F80
3E00
ENDCHAR
STARTCHAR uni1E62.ss01
ENCODING -1
SWIDTH 568 0
DWIDTH 12 0
BBX 10 18 1 -3
BITMAP
1E00
3F00
6180
6380
6200
3800
1E00
0780
0180
00C0
00C0
80C0
C180
7F80
3E00
0000
0C00
0C00
ENDCHAR
STARTCHAR uni1E68.ss01
ENCODING -1
SWIDTH 568 0
DWIDTH 12 0
BBX 10 21 1 -3
BITMAP
0C00
0C00
0000
1E00
3F00
6180
6380
6200
3800
1E00
0780
0180
00C0
00C0
80C0
C180
7F80
3E00
0000
0C00
0C00
ENDCHAR
STARTCHAR T.ss01
ENCODING -1
SWIDTH 613 0
DWIDTH 13 0
BBX 11 15 1 0
BITMAP
FFE0
FFE0
0400
0400
0400
0400
0400
0400
0400
0400
0400
0400
0400
0400
0400
ENDCHAR
STARTCHAR T.swsh
ENCODING -1
SWIDTH 640 0
DWIDTH 13 0
BBX 12 15 1 0
BITMAP
7FF0
FFF0
8600
C600
4600
0600
0600
0600
0600
0600
0600
0600
0600
0600
0600
ENDCHAR
STARTCHAR Tbar.ss01
ENCODING -1
SWIDTH 613 0
DWIDTH 13 0
BBX 11 15 1 0
BITMAP
FFE0
FFE0
0400
0400
0400
0400
0400
3F80
3F80
0400
0400
0400
0400
0400
0400
ENDCHAR
STARTCHAR Tcaron.ss01
ENCODING -1
SWIDTH 613 0
DWIDTH 13 0
BBX 11 19 1 0
BITMAP
3180
1B00
0E00
0000
FFE0
FFE0
0400
0400
0400
0400
0400
0400
0400
0400
0400
0400
0400
0400
0400
ENDCHAR
STARTCHAR uni0162.ss01
ENCODING -1
SWIDTH 613 0
DWIDTH 13 0
BBX 11 20 1 -5
BITMAP
FFE0
FFE0
0400
0400
0400
0400
0400
0400
0400
0400
0400
0400
0400
0400
0600
0600
0F00
0300
0600
0400
ENDCHAR
STARTCHAR uni021A.ss01
ENCODING -1
SWIDTH 613 0
DWIDTH 13 0
BBX 11 21 1 -6
BITMAP
FFE0
FFE0
0400
0400
0400
0400
0400
0400
0400
0400
0400
0400
0400
0400
0400
0000
0000
0600
0400
0C00
0C00
ENDCHAR
STARTCHAR uni1E6A.ss01
ENCODING -1
SWIDTH 613 0
DWIDTH 13 0
BBX 11 18 1 0
BITMAP
0600
0600
0000
FFE0
FFE0
0400
0400
0400
0400
0400
0400
0400
0400
0400
0400
0400
0400
0400
ENDCHAR
STARTCHAR uni1E6C.ss01
ENCODING -1
SWIDTH 613 0
DWIDTH 13 0
BBX 11 18 1 -3
BITMAP
FFE0
FFE0
0400
0400
0400
0400
0400
0400
0400
0400
0400
0400
0400
0400
0400
0000
0600
0600
ENDCHAR
STARTCHAR uni1E6E.ss01
ENCODING -1
SWIDTH 613 0
DWIDTH 13 0
BBX 11 18 1 -3
BITMAP
FFE0
FFE0
0400
0400
0400
0400
0400
0400
0400
0400
0400
0400
0400
0400
0400
0000
3F80
3F80
ENDCHAR
STARTCHAR U.ss01
ENCODING -1
SWIDTH 733 0
DWIDTH 15 0
BBX 14 15 0 0
BITMAP
F00C
700C
100C
100C
100C
100C
100C
100C
100C
100C
180C
1818
0C18
0FF0
03E0
ENDCHAR
STARTCHAR U.swsh
ENCODING -1
SWIDTH 755 0
DWIDTH 16 0
BBX 14 15 0 0
BITMAP
700C
F80C
180C
180C
180C
180C
180C
180C
180C
180C
180C
080C
0C18
07F0
03E0
ENDCHAR
STARTCHAR Uacute.ss01
ENCODING -1
SWIDTH 733 0
DWIDTH 15 0
BBX 14 19 0 0
BITMAP
0030
0070
01C0
0080
F00C
700C
100C
100C
100C
100C
100C
100C
100C
100C
180C
1818
0C18
0FF0
03E0
ENDCHAR
STARTCHAR uni0244.ss01
ENCODING -1
SWIDTH 733 0
DWIDTH 15 0
BBX 14 15 0 0
BITMAP
F00C
700C
100C
100C
100C
100C
3FFC
3FFC
100C
100C
1808
1818
0C18
0FF0
03E0
ENDCHAR
STARTCHAR Ubreve.ss01
ENCODING -1
SWIDTH 733 0
DWIDTH 15 0
BBX 14 19 0 0
BITMAP
0620
07E0
03C0
0000
F00C
700C
100C
100C
100C
100C
100C
100C
100C
100C
180C
1818
0C18
0FF0
03E0
ENDCHAR
STARTCHAR uni01D3.ss01
ENCODING -1
SWIDTH 733 0
DWIDTH 15 0
BBX 14 19 0 0
BITMAP
0630
0360
0180
0000
F00C
700C
100C
100C
100C
100C
100C
100C
100C
100C
180C
1818
0C18
0FF0
03E0
ENDCHAR
STARTCHAR Ucircumflex.ss01
ENCODING -1
SWIDTH 733 0
DWIDTH 15 0
BBX 14 19 0 0
BITMAP
0080
03C0
0670
0000
F00C
700C
100C
100C
100C
100C
100C
100C
100C
100C
180C
1818
0C18
0FF0
03E0
ENDCHAR
STARTCHAR uni0214.ss01
ENCODING -1
SWIDTH 733 0
DWIDTH 15 0
BBX 14 19 0 0
BITMAP
1100
3B80
0EE0
0240
F00C
700C
100C
100C
100C
100C
100C
100C
100C
100C
180C
1818
0C18
0FF0
03E0
ENDCHAR
STARTCHAR Udieresis.ss01
ENCODING -1
SWIDTH 733 0
DWIDTH 15 0
BBX 14 18 0 0
BITMAP
0670
0620
0000
F00C
700C
100C
100C
100C
100C
100C
100C
100C
100C
180C
1818
0C18
0FF0
03E0
ENDCHAR
STARTCHAR uni01D7.ss01
ENCODING -1
SWIDTH 733 0
DWIDTH 15 0
BBX 14 22 0 0
BITMAP
0030
0070
01C0
0080
0670
0620
0000
F00C
700C
100C
100C
100C
100C
100C
100C
100C
100C
180C
1818
0C18
0FF0
03E0
ENDCHAR
STARTCHAR uni01D9.ss01
ENCODING -1
SWIDTH 733 0
DWIDTH 15 0
BBX 14 22 0 0
BITMAP
0630
0360
0180
0000
0670
0620
0000
F00C
700C
100C
100C
100C
100C
100C
100C
100C
100C
180C
1818
0C18
0FF0
03E0
ENDCHAR
STARTCHAR uni01DB.ss01
ENCODING -1
SWIDTH 733 0
DWIDTH 15 0
BBX 14 22 0 0
BITMAP
0400
0E00
0380
0080
0670
0620
0000
F00C
700C
100C
100C
100C
100C
100C
100C
100C
100C
180C
1818
0C18
0FF0
03E0
ENDCHAR
STARTCHAR uni01D5.ss01
ENCODING -1
SWIDTH 733 0
DWIDTH 15 0
BBX 14 21 0 0
BITMAP
07F0
07F0
0000
0670
0620
0000
F00C
700C
100C
100C
100C
100C
100C
100C
100C
100C
180C
1818
0C18
0FF0
03E0
ENDCHAR
STARTCHAR uni1EE4.ss01
ENCODING -1
SWIDTH 733 0
DWIDTH 15 0
BBX 14 18 0 -3
BITMAP
F00C
700C
100C
100C
100C
100C
100C
100C
100C
100C
180C
1818
0C18
0FF0
03E0
0000
0180
0180
ENDCHAR
STARTCHAR Ugrave.ss01
ENCODING -1
SWIDTH 733 0
DWIDTH 15 0
BBX 14 19 0 0
BITMAP
0400
0E00
0380
0080
F00C
700C
100C
100C
100C
100C
100C
100C
100C
100C
180C
1818
0C18
0FF0
03E0
ENDCHAR
STARTCHAR uni1EE6.ss01
ENCODING -1
SWIDTH 733 0
DWIDTH 15 0
BBX 14 21 0 0
BITMAP
0080
03C0
0160
0040
01C0
0000
F00C
700C
100C
100C
100C
100C
100C
100C
100C
100C
180C
1818
0C18
0FF0
03E0
ENDCHAR
STARTCHAR Uhorn.ss01
ENCODING -1
SWIDTH 733 0
DWIDTH 15 0
BBX 17 17 0 0
BITMAP
000100
000180
F00F00
700E00
100C00
100C00
100C00
100C00
100C00
100C00
100C00
100C00
180C00
181800
0C1800
0FF000
03E000
ENDCHAR
STARTCHAR uni1EE8.ss01
ENCODING -1
SWIDTH 733 0
DWIDTH 15 0
BBX 17 19 0 0
BITMAP
003000
007000
01C100
008180
F00F00
700E00
100C00
100C00
100C00
100C00
100C00
100C00
100C00
100C00
180C00
181800
0C1800
0FF000
03E000
ENDCHAR
STARTCHAR uni1EF0.ss01
ENCODING -1
SWIDTH 733 0
DWIDTH 15 0
BBX 17 20 0 -3
BITMAP
000100
000180
F00F00
700E00
100C00
100C00
100C00
100C00
100C00
100C00
100C00
100C00
180C00
181800
0C1800
0FF000
03E000
000000
018000
018000
ENDCHAR
STARTCHAR uni1EEA.ss01
ENCODING -1
SWIDTH 733 0
DWIDTH 15 0
BBX 17 19 0 0
BITMAP
040000
0E0000
038100
008180
F00F00
700E00
100C00
100C00
100C00
100C00
100C00
100C00
100C00
100C00
180C00
181800
0C1800
0FF000
03E000
ENDCHAR
STARTCHAR uni1EEC.ss01
ENCODING -1
SWIDTH 733 0
DWIDTH 15 0
BBX 17 21 0 0
BITMAP
008000
03C000
016000
004000
01C100
000180
F00F00
700E00
100C00
100C00
100C00
100C00
100C00
100C00
100C00
100C00
180C00
181800
0C1800
0FF000
03E000
ENDCHAR
STARTCHAR uni1EEE.ss01
ENCODING -1
SWIDTH 733 0
DWIDTH 15 0
BBX 17 18 0 0
BITMAP
07E000
07F100
000180
F00F00
700E00
100C00
100C00
100C00
100C00
100C00
100C00
100C00
100C00
180C00
181800
0C1800
0FF000
03E000
ENDCHAR
STARTCHAR Uhungarumlaut.ss01
ENCODING -1
SWIDTH 733 0
DWIDTH 15 0
BBX 15 19 0 0
BITMAP
0044
01FE
03B0
0220
F00C
700C
100C
100C
100C
100C
100C
100C
100C
100C
180C
1818
0C18
0FF0
03E0
ENDCHAR
STARTCHAR uni0216.ss01
ENCODING -1
SWIDTH 733 0
DWIDTH 15 0
BBX 14 19 0 0
BITMAP
0180
03E0
0660
0000
F00C
700C
100C
100C
100C
100C
100C
100C
100C
100C
180C
1818
0C18
0FF0
03E0
ENDCHAR
STARTCHAR Umacron.ss01
ENCODING -1
SWIDTH 733 0
DWIDTH 15 0
BBX 14 18 0 0
BITMAP
07F0
07F0
0000
F00C
700C
100C
100C
100C
100C
100C
100C
100C
100C
180C
1818
0C18
0FF0
03E0
ENDCHAR
STARTCHAR uni1E7A.ss01
ENCODING -1
SWIDTH 733 0
DWIDTH 15 0
BBX 14 21 0 0
BITMAP
0670
0660
0000
07F0
07F0
0000
F00C
700C
100C
100C
100C
100C
100C
100C
100C
100C
180C
1818
0C18
0FF0
03E0
ENDCHAR
STARTCHAR Uogonek.ss01
ENCODING -1
SWIDTH 733 0
DWIDTH 15 0
BBX 14 19 0 -4
BITMAP
F00C
700C
100C
100C
100C
100C
100C
100C
100C
100C
180C
1818
0C18
0FF0
03E0
00C0
00D0
00F0
0020
ENDCHAR
STARTCHAR Uring.ss01
ENCODING -1
SWIDTH 733 0
DWIDTH 15 0
BBX 14 21 0 0
BITMAP
0080
03C0
0240
03C0
01C0
0000
F00C
700C
100C
100C
100C
100C
100C
100C
100C
100C
180C
1818
0C18
0FF0
03E0
ENDCHAR
STARTCHAR Utilde.ss01
ENCODING -1
SWIDTH 733 0
DWIDTH 15 0
BBX 14 18 0 0
BITMAP
07E0
07F0
0000
F00C
700C
100C
100C
100C
100C
100C
100C
100C
100C
180C
1818
0C18
0FF0
03E0
ENDCHAR
STARTCHAR V.ss01
ENCODING -1
SWIDTH 670 0
DWIDTH 14 0
BBX 13 15 0 0
BITMAP
E018
7018
3018
1830
1830
0830
0C60
0C60
0460
06C0
06C0
02C0
0380
0380
0180
ENDCHAR
STARTCHAR V.swsh
ENCODING -1
SWIDTH 693 0
DWIDTH 15 0
BBX 14 15 0 0
BITMAP
700C
F008
1818
1818
0810
0C30
0C30
0420
0660
0660
0340
03C0
03C0
0180
0180
ENDCHAR
STARTCHAR W.ss01
ENCODING -1
SWIDTH 1082 0
DWIDTH 23 0
BBX 21 15 1 0
BITMAP
E03018
E03018
207010
307830
307830
104820
18CC60
18CC60
088440
0D86C0
0D86C0
050280
050280
070380
020100
ENDCHAR
STARTCHAR W.swsh
ENCODING -1
SWIDTH 1092 0
DWIDTH 23 0
BBX 22 15 0 0
BITMAP
70180C
F0180C
181C08
183C18
083418
0C2610
0C6610
046230
046230
064320
06C160
02C160
0381C0
0381C0
0180C0
ENDCHAR
STARTCHAR Wacute.ss01
ENCODING -1
SWIDTH 1082 0
DWIDTH 23 0
BBX 21 19 1 0
BITMAP
000400
000E00
003800
002000
E03018
E03018
207010
307830
307830
104820
18CC60
18CC60
088440
0D86C0
0D86C0
050280
050280
070380
020100
ENDCHAR
STARTCHAR Wcircumflex.ss01
ENCODING -1
SWIDTH 1082 0
DWIDTH 23 0
BBX 21 19 1 0
BITMAP
003000
007800
00CC00
000000
E03018
E03018
207010
307830
307830
104820
18CC60
18CC60
088440
0D86C0
0D86C0
050280
050280
070380
020100
ENDCHAR
STARTCHAR Wdieresis.ss01
ENCODING -1
SWIDTH 1082 0
DWIDTH 23 0
BBX 21 18 1 0
BITMAP
00CC00
00CC00
000000
E03018
E03018
207010
307830
307830
104820
18CC60
18CC60
088440
0D86C0
0D86C0
050280
050280
070380
020100
ENDCHAR
STARTCHAR Wgrave.ss01
ENCODING -1
SWIDTH 1082 0
DWIDTH 23 0
BBX 21 19 1 0
BITMAP
008000
01C000
007000
002000
E03018
E03018
207010
307830
307830
104820
18CC60
18CC60
088440
0D86C0
0D86C0
050280
050280
070380
020100
ENDCHAR
STARTCHAR X.ss01
ENCODING -1
SWIDTH 641 0
DWIDTH 13 0
BBX 12 15 1 0
BITMAP
C060
60C0
6180
3180
1B00
1E00
0E00
0C00
1E00
1B00
3300
3180
6180
60E0
C070
ENDCHAR
STARTCHAR X.swsh
ENCODING -1
SWIDTH 670 0
DWIDTH 14 0
BBX 12 15 1 0
BITMAP
E060
E0C0
30C0
1980
1980
0F00
0E00
0600
0E00
1B00
1980
3180
30C0
60F0
E070
ENDCHAR
STARTCHAR Y.ss01
ENCODING -1
SWIDTH 620 0
DWIDTH 13 0
BBX 12 15 0 0
BITMAP
7030
F030
1860
1860
0CC0
0C80
0780
0300
0300
0300
0300
0300
0300
0300
0300
ENDCHAR
STARTCHAR Y.swsh
ENCODING -1
SWIDTH 639 0
DWIDTH 13 0
BBX 13 15 0 0
BITMAP
7018
F830
1820
0C60
0C40
06C0
0780
0380
0300
0100
0100
0100
0100
0100
0100
ENDCHAR
STARTCHAR Yacute.ss01
ENCODING -1
SWIDTH 620 0
DWIDTH 13 0
BBX 12 19 0 0
BITMAP
0040
00E0
0380
0200
7030
F030
1860
1860
0CC0
0C80
0780
0300
0300
0300
0300
0300
0300
0300
0300
ENDCHAR
STARTCHAR Ycircumflex.ss01
ENCODING -1
SWIDTH 620 0
DWIDTH 13 0
BBX 12 19 0 0
BITMAP
0300
0780
1CC0
0000
7030
F030
1860
1860
0CC0
0C80
0780
0300
0300
0300
0300
0300
0300
0300
0300
ENDCHAR
STARTCHAR Ydieresis.ss01
ENCODING -1
SWIDTH 620 0
DWIDTH 13 0
BBX 12 18 0 0
BITMAP
1CC0
0CC0
0000
7030
F030
1860
1860
0CC0
0C80
0780
0300
0300
0300
0300
0300
0300
0300
0300
ENDCHAR
STARTCHAR uni1E8E.ss01
ENCODING -1
SWIDTH 620 0
DWIDTH 13 0
BBX 12 18 0 0
BITMAP
0300
0300
0000
7030
F030
1860
1860
0CC0
0C80
0780
0300
0300
0300
0300
0300
0300
0300
0300
ENDCHAR
STARTCHAR uni1EF4.ss01
ENCODING -1
SWIDTH 620 0
DWIDTH 13 0
BBX 12 18 0 -3
BITMAP
7030
F030
1860
1860
0CC0
0C80
0780
0300
0300
0300
0300
0300
0300
0300
0300
0000
0300
0300
ENDCHAR
STARTCHAR Ygrave.ss01
ENCODING -1
SWIDTH 620 0
DWIDTH 13 0
BBX 12 19 0 0
BITMAP
1800
1C00
0700
0200
7030
F030
1860
1860
0CC0
0C80
0780
0300
0300
0300
0300
0300
0300
0300
0300
ENDCHAR
STARTCHAR uni1EF6.ss01
ENCODING -1
SWIDTH 620 0
DWIDTH 13 0
BBX 12 21 0 0
BITMAP
0100
0780
0480
0180
0300
0000
7030
F030
1860
1860
0CC0
0C80
0780
0300
0300
0300
0300
0300
0300
0300
0300
ENDCHAR
STARTCHAR uni0232.ss01
ENCODING -1
SWIDTH 620 0
DWIDTH 13 0
BBX 12 18 0 0
BITMAP
1FC0
1FC0
0000
7030
F030
1860
1860
0CC0
0C80
0780
0300
0300
0300
0300
0300
0300
0300
0300
ENDCHAR
STARTCHAR uni1EF8.ss01
ENCODING -1
SWIDTH 620 0
DWIDTH 13 0
BBX 12 18 0 0
BITMAP
0FC0
1FE0
0000
7030
F030
1860
1860
0CC0
0C80
0780
0300
0300
0300
0300
0300
0300
0300
0300
ENDCHAR
STARTCHAR Z.ss01
ENCODING -1
SWIDTH 588 0
DWIDTH 12 0
BBX 11 15 1 0
BITMAP
7FC0
7F80
0100
0300
0600
0600
0C00
0C00
1800
1000
3000
6000
6040
FFE0
8F80
ENDCHAR
STARTCHAR Zacute.ss01
ENCODING -1
SWIDTH 588 0
DWIDTH 12 0
BBX 11 19 1 0
BITMAP
0100
0380
0E00
0800
7FC0
7F80
0100
0300
0600
0600
0C00
0C00
1800
1000
3000
6000
6040
FFE0
8F80
ENDCHAR
STARTCHAR Zcaron.ss01
ENCODING -1
SWIDTH 588 0
DWIDTH 12 0
BBX 11 19 1 0
BITMAP
3180
1E00
0C00
0000
7FC0
7F80
0100
0300
0600
0600
0C00
0C00
1800
1000
3000
6000
6040
FFE0
8F80
ENDCHAR
STARTCHAR Zdotaccent.ss01
ENCODING -1
SWIDTH 588 0
DWIDTH 12 0
BBX 11 18 1 0
BITMAP
0C00
0C00
0000
7FC0
7F80
0100
0300
0600
0600
0C00
0C00
1800
1000
3000
6000
6040
FFE0
8F80
ENDCHAR
STARTCHAR uni1E92.ss01
ENCODING -1
SWIDTH 588 0
DWIDTH 12 0
BBX 11 18 1 -3
BITMAP
7FC0
7F80
0100
0300
0600
0600
0C00
0C00
1800
1000
3000
6000
6040
FFE0
8F80
0000
0C00
0C00
ENDCHAR
STARTCHAR a.ss01
ENCODING -1
SWIDTH 593 0
DWIDTH 12 0
BBX 11 11 1 0
BITMAP
1F80
7F80
6180
C180
C180
C180
C180
C180
C180
7FE0
3CE0
ENDCHAR
STARTCHAR aacute.ss01
ENCODING -1
SWIDTH 593 0
DWIDTH 12 0
BBX 11 16 1 0
BITMAP
0300
0600
0400
0C00
0000
1F80
7F80
6180
C180
C180
C180
C180
C180
C180
7FE0
3CE0
ENDCHAR
STARTCHAR abreve.ss01
ENCODING -1
SWIDTH 593 0
DWIDTH 12 0
BBX 11 15 1 0
BITMAP
2300
3300
1E00
0000
1F80
7F80
6180
C180
C180
C180
C180
C180
C180
7FE0
3CE0
ENDCHAR
STARTCHAR uni1EAF.ss01
ENCODING -1
SWIDTH 593 0
DWIDTH 12 0
BBX 11 20 1 0
BITMAP
0300
0600
0400
0C00
0000
2300
3300
1E00
0000
1F80
7F80
6180
C180
C180
C180
C180
C180
C180
7FE0
3CE0
ENDCHAR
STARTCHAR uni1EB7.ss01
ENCODING -1
SWIDTH 593 0
DWIDTH 12 0
BBX 11 18 1 -3
BITMAP
2300
3300
1E00
0000
1F80
7F80
6180
C180
C180
C180
C180
C180
C180
7FE0
3CE0
0000
1C00
0800
ENDCHAR
STARTCHAR uni1EB1.ss01
ENCODING -1
SWIDTH 593 0
DWIDTH 12 0
BBX 11 20 1 0
BITMAP
2000
7000
1800
0C00
0800
2300
3300
1E00
0000
1F80
7F80
6180
C180
C180
C180
C180
C180
C180
7FE0
3CE0
ENDCHAR
STARTCHAR uni1EB3.ss01
ENCODING -1
SWIDTH 593 0
DWIDTH 12 0
BBX 11 21 1 0
BITMAP
0800
1E00
1600
0600
0C00
0000
2300
3300
1E00
0000
1F80
7F80
6180
C180
C180
C180
C180
C180
C180
7FE0
3CE0
ENDCHAR
STARTCHAR uni1EB5.ss01
ENCODING -1
SWIDTH 593 0
DWIDTH 12 0
BBX 11 18 1 0
BITMAP
3F00
7F00
0000
2300
3300
1E00
0000
1F80
7F80
6180
C180
C180
C180
C180
C180
C180
7FE0
3CE0
ENDCHAR
STARTCHAR uni01CE.ss01
ENCODING -1
SWIDTH 593 0
DWIDTH 12 0
BBX 11 15 1 0
BITMAP
7300
1E00
0C00
0000
1F80
7F80
6180
C180
C180
C180
C180
C180
C180
7FE0
3CE0
ENDCHAR
STARTCHAR acircumflex.ss01
ENCODING -1
SWIDTH 593 0
DWIDTH 12 0
BBX 11 15 1 0
BITMAP
0C00
1E00
3300
4000
1F80
7F80
6180
C180
C180
C180
C180
C180
C180
7FE0
3CE0
ENDCHAR
STARTCHAR uni1EA5.ss01
ENCODING -1
SWIDTH 593 0
DWIDTH 12 0
BBX 11 18 1 0
BITMAP
0060
0060
00C0
0D80
1E00
3300
4000
1F80
7F80
6180
C180
C180
C180
C180
C180
C180
7FE0
3CE0
ENDCHAR
STARTCHAR uni1EAD.ss01
ENCODING -1
SWIDTH 593 0
DWIDTH 12 0
BBX 11 18 1 -3
BITMAP
0C00
1E00
3300
4000
1F80
7F80
6180
C180
C180
C180
C180
C180
C180
7FE0
3CE0
0000
1C00
0800
ENDCHAR
STARTCHAR uni1EA7.ss01
ENCODING -1
SWIDTH 593 0
DWIDTH 12 0
BBX 11 18 1 0
BITMAP
0400
0600
0300
0D80
1E80
3300
4000
1F80
7F80
6180
C180
C180
C180
C180
C180
C180
7FE0
3CE0
ENDCHAR
STARTCHAR uni1EA9.ss01
ENCODING -1
SWIDTH 593 0
DWIDTH 12 0
BBX 11 19 1 0
BITMAP
0080
03C0
0240
00C0
0C80
1F00
3300
4000
1F80
7F80
6180
C180
C180
C180
C180
C180
C180
7FE0
3CE0
ENDCHAR
STARTCHAR uni1EAB.ss01
ENCODING -1
SWIDTH 593 0
DWIDTH 12 0
BBX 11 18 1 0
BITMAP
3F00
7F00
0000
0C00
1E00
3300
4000
1F80
7F80
6180
C180
C180
C180
C180
C180
C180
7FE0
3CE0
ENDCHAR
STARTCHAR uni0201.ss01
ENCODING -1
SWIDTH 593 0
DWIDTH 12 0
BBX 12 16 0 0
BITMAP
4400
CC00
6600
3300
1100
0FC0
3FC0
30C0
60C0
60C0
60C0
60C0
60C0
60C0
3FF0
1E70
ENDCHAR
STARTCHAR adieresis.ss01
ENCODING -1
SWIDTH 593 0
DWIDTH 12 0
BBX 11 14 1 0
BITMAP
7300
2300
0000
1F80
7F80
6180
C180
C180
C180
C180
C180
C180
7FE0
3CE0
ENDCHAR
STARTCHAR uni01DF.ss01
ENCODING -1
SWIDTH 593 0
DWIDTH 12 0
BBX 11 18 1 0
BITMAP
7F00
7F00
0000
0000
7300
2300
0000
1F80
7F80
6180
C180
C180
C180
C180
C180
C180
7FE0
3CE0
ENDCHAR
STARTCHAR uni0227.ss01
ENCODING -1
SWIDTH 593 0
DWIDTH 12 0
BBX 11 15 1 0
BITMAP
0C00
0C00
0000
0000
1F80
7F80
6180
C180
C180
C180
C180
C180
C180
7FE0
3CE0
ENDCHAR
STARTCHAR uni1EA1.ss01
ENCODING -1
SWIDTH 593 0
DWIDTH 12 0
BBX 11 14 1 -3
BITMAP
1F80
7F80
6180
C180
C180
C180
C180
C180
C180
7FE0
3CE0
0000
1C00
0800
ENDCHAR
STARTCHAR uni01E1.ss01
ENCODING -1
SWIDTH 593 0
DWIDTH 12 0
BBX 11 18 1 0
BITMAP
7F00
7F00
0000
0C00
0C00
0000
0000
1F80
7F80
6180
C180
C180
C180
C180
C180
C180
7FE0
3CE0
ENDCHAR
STARTCHAR agrave.ss01
ENCODING -1
SWIDTH 593 0
DWIDTH 12 0
BBX 11 16 1 0
BITMAP
2000
7000
1800
0C00
0800
1F80
7F80
6180
C180
C180
C180
C180
C180
C180
7FE0
3CE0
ENDCHAR
STARTCHAR uni1EA3.ss01
ENCODING -1
SWIDTH 593 0
DWIDTH 12 0
BBX 11 17 1 0
BITMAP
0800
1E00
1600
0600
0C00
0000
1F80
7F80
6180
C180
C180
C180
C180
C180
C180
7FE0
3CE0
ENDCHAR
STARTCHAR uni0203.ss01
ENCODING -1
SWIDTH 593 0
DWIDTH 12 0
BBX 11 16 1 0
BITMAP
0C00
1E00
3300
3300
0000
1F80
7F80
6180
C180
C180
C180
C180
C180
C180
7FE0
3CE0
ENDCHAR
STARTCHAR amacron.ss01
ENCODING -1
SWIDTH 593 0
DWIDTH 12 0
BBX 11 14 1 0
BITMAP
7F00
7F00
0000
1F80
7F80
6180
C180
C180
C180
C180
C180
C180
7FE0
3CE0
ENDCHAR
STARTCHAR aogonek.ss01
ENCODING -1
SWIDTH 593 0
DWIDTH 12 0
BBX 12 15 1 -4
BITMAP
1F80
7F80
6180
C180
C180
C180
C180
C180
C180
7FE0
3CE0
00C0
0180
01E0
00F0
ENDCHAR
STARTCHAR aring.ss01
ENCODING -1
SWIDTH 593 0
DWIDTH 12 0
BBX 11 17 1 0
BITMAP
1C00
1E00
1200
1E00
1C00
0000
1F80
7F80
6180
C180
C180
C180
C180
C180
C180
7FE0
3CE0
ENDCHAR
STARTCHAR aringacute.ss01
ENCODING -1
SWIDTH 593 0
DWIDTH 12 0
BBX 11 22 1 0
BITMAP
0300
0700
0600
0C00
0000
1C00
1E00
1200
1E00
1C00
0000
1F80
7F80
6180
C180
C180
C180
C180
C180
C180
7FE0
3CE0
ENDCHAR
STARTCHAR atilde.ss01
ENCODING -1
SWIDTH 593 0
DWIDTH 12 0
BBX 11 14 1 0
BITMAP
3F00
7F00
0000
1F80
7F80
6180
C180
C180
C180
C180
C180
C180
7FE0
3CE0
ENDCHAR
STARTCHAR c.ss01
ENCODING -1
SWIDTH 506 0
DWIDTH 11 0
BBX 9 11 1 0
BITMAP
1E00
7F00
6180
C180
C000
C000
C000
C000
C080
7F80
3F00
ENDCHAR
STARTCHAR cacute.ss01
ENCODING -1
SWIDTH 506 0
DWIDTH 11 0
BBX 9 16 1 0
BITMAP
0300
0600
0400
0C00
0000
1E00
7F00
6180
C180
C000
C000
C000
C000
C080
7F80
3F00
ENDCHAR
STARTCHAR ccaron.ss01
ENCODING -1
SWIDTH 506 0
DWIDTH 11 0
BBX 9 15 1 0
BITMAP
7300
1E00
0C00
0000
1E00
7F00
6180
C180
C000
C000
C000
C000
C080
7F80
3F00
ENDCHAR
STARTCHAR ccedilla.ss01
ENCODING -1
SWIDTH 506 0
DWIDTH 11 0
BBX 9 16 1 -5
BITMAP
1E00
7F00
6180
C180
C000
C000
C000
C000
C000
6180
3F80
0C00
0E00
0600
0E00
0800
ENDCHAR
STARTCHAR uni1E09.ss01
ENCODING -1
SWIDTH 506 0
DWIDTH 11 0
BBX 9 21 1 -5
BITMAP
0300
0600
0C00
0800
0000
1E00
7F00
6180
C180
C000
C000
C000
C000
C000
6180
3F80
0C00
0E00
0600
0E00
0800
ENDCHAR
STARTCHAR ccircumflex.ss01
ENCODING -1
SWIDTH 506 0
DWIDTH 11 0
BBX 9 15 1 0
BITMAP
0C00
1E00
7300
0000
1E00
7F00
6180
C180
C000
C000
C000
C000
C080
7F80
3F00
ENDCHAR
STARTCHAR cdotaccent.ss01
ENCODING -1
SWIDTH 506 0
DWIDTH 11 0
BBX 9 15 1 0
BITMAP
0C00
0C00
0000
0000
1E00
7F00
6180
C180
C000
C000
C000
C000
C080
7F80
3F00
ENDCHAR
STARTCHAR d.ss01
ENCODING -1
SWIDTH 593 0
DWIDTH 12 0
BBX 11 15 1 0
BITMAP
0180
0180
0180
0180
1F80
7F80
6180
C180
C180
C180
C180
C180
E180
7FE0
3CE0
ENDCHAR
STARTCHAR dcaron.ss01
ENCODING -1
SWIDTH 593 0
DWIDTH 12 0
BBX 14 17 1 0
BITMAP
0008
000C
0188
0198
0190
0180
1F80
7F80
6180
C180
C180
C180
C180
C180
E180
7FE0
3CE0
ENDCHAR
STARTCHAR dcroat.ss01
ENCODING -1
SWIDTH 593 0
DWIDTH 12 0
BBX 11 15 1 0
BITMAP
0180
0FE0
0FE0
0180
1F80
7F80
6180
C180
C180
C180
C180
C180
E180
7FE0
3CE0
ENDCHAR
STARTCHAR uni1E0B.ss01
ENCODING -1
SWIDTH 593 0
DWIDTH 12 0
BBX 11 19 1 0
BITMAP
0180
0180
0000
0000
0180
0180
0180
0180
1F80
7F80
6180
C180
C180
C180
C180
C180
E180
7FE0
3CE0
ENDCHAR
STARTCHAR uni1E0D.ss01
ENCODING -1
SWIDTH 593 0
DWIDTH 12 0
BBX 11 18 1 -3
BITMAP
0180
0180
0180
0180
1F80
7F80
6180
C180
C180
C180
C180
C180
E180
7FE0
3CE0
0000
1C00
0800
ENDCHAR
STARTCHAR uni1E0F.ss01
ENCODING -1
SWIDTH 593 0
DWIDTH 12 0
BBX 11 18 1 -3
BITMAP
0180
0180
0180
0180
1F80
7F80
6180
C180
C180
C180
C180
C180
E180
7FE0
3CE0
0000
7F00
7F00
ENDCHAR
STARTCHAR uni01F3.ss01
ENCODING -1
SWIDTH 1056 0
DWIDTH 22 0
BBX 20 15 1 0
BITMAP
018000
018000
018000
018000
1F87F0
7F87F0
618060
C180E0
C180C0
C18180
C18180
C18300
E18600
7FE7F0
3CEFF0
ENDCHAR
STARTCHAR uni01C6.ss01
ENCODING -1
SWIDTH 1082 0
DWIDTH 23 0
BBX 20 15 1 0
BITMAP
018730
0181E0
0180C0
018000
1F87F0
7F87F0
618060
C180E0
C180C0
C18180
C18180
C18300
E18600
7FE7F0
3CEFF0
ENDCHAR
STARTCHAR e.ss01
ENCODING -1
SWIDTH 508 0
DWIDTH 11 0
BBX 9 11 1 0
BITMAP
1E00
7F00
6180
C180
C300
FF00
F800
C000
E100
7F80
3E00
ENDCHAR
STARTCHAR eacute.ss01
ENCODING -1
SWIDTH 508 0
DWIDTH 11 0
BBX 9 16 1 0
BITMAP
0300
0600
0C00
0800
0000
1E00
7F00
6180
C180
C300
FF00
F800
C000
E100
7F80
3E00
ENDCHAR
STARTCHAR ebreve.ss01
ENCODING -1
SWIDTH 508 0
DWIDTH 11 0
BBX 9 15 1 0
BITMAP
2300
3300
3E00
0000
1E00
7F00
6180
C180
C300
FF00
F800
C000
E100
7F80
3E00
ENDCHAR
STARTCHAR ecaron.ss01
ENCODING -1
SWIDTH 508 0
DWIDTH 11 0
BBX 9 15 1 0
BITMAP
7300
1E00
0C00
0000
1E00
7F00
6180
C180
C300
FF00
F800
C000
E100
7F80
3E00
ENDCHAR
STARTCHAR uni0229.ss01
ENCODING -1
SWIDTH 508 0
DWIDTH 11 0
BBX 9 16 1 -5
BITMAP
1E00
7F00
6180
C180
C100
FF00
FE00
C000
C000
6180
3F00
0C00
0E00
0600
0E00
0800
ENDCHAR
STARTCHAR uni1E1D.ss01
ENCODING -1
SWIDTH 508 0
DWIDTH 11 0
BBX 9 20 1 -5
BITMAP
2300
3300
3E00
0000
1E00
7F00
6180
C180
C100
FF00
FE00
C000
C000
6180
3F00
0C00
0E00
0600
0E00
0800
ENDCHAR
STARTCHAR ecircumflex.ss01
ENCODING -1
SWIDTH 508 0
DWIDTH 11 0
BBX 9 15 1 0
BITMAP
0C00
1E00
7300
0000
1E00
7F00
6180
C180
C300
FF00
F800
C000
E100
7F80
3E00
ENDCHAR
STARTCHAR uni1EBF.ss01
ENCODING -1
SWIDTH 508 0
DWIDTH 11 0
BBX 11 18 1 0
BITMAP
0060
0060
00C0
0D80
1E00
7300
0000
1E00
7F00
6180
C180
C300
FF00
F800
C000
E100
7F80
3E00
ENDCHAR
STARTCHAR uni1EC7.ss01
ENCODING -1
SWIDTH 508 0
DWIDTH 11 0
BBX 9 18 1 -3
BITMAP
0C00
1E00
7300
0000
1E00
7F00
6180
C180
C300
FF00
F800
C000
E100
7F80
3E00
0000
0C00
0C00
ENDCHAR
STARTCHAR uni1EC1.ss01
ENCODING -1
SWIDTH 508 0
DWIDTH 11 0
BBX 9 18 1 0
BITMAP
0400
0600
0300
0D80
1E80
7300
0000
1E00
7F00
6180
C180
C300
FF00
F800
C000
E100
7F80
3E00
ENDCHAR
STARTCHAR uni1EC3.ss01
ENCODING -1
SWIDTH 508 0
DWIDTH 11 0
BBX 10 19 1 0
BITMAP
0080
03C0
02C0
00C0
0D80
1E00
7300
0000
1E00
7F00
6180
C180
C300
FF00
F800
C000
E100
7F80
3E00
ENDCHAR
STARTCHAR uni1EC5.ss01
ENCODING -1
SWIDTH 508 0
DWIDTH 11 0
BBX 9 18 1 0
BITMAP
3F00
7F00
0000
0C00
1E00
7300
0000
1E00
7F00
6180
C180
C300
FF00
F800
C000
E100
7F80
3E00
ENDCHAR
STARTCHAR uni0205.ss01
ENCODING -1
SWIDTH 508 0
DWIDTH 11 0
BBX 10 16 0 0
BITMAP
4400
CC00
6600
3300
1100
0F00
3F80
30C0
60C0
6180
7F80
7C00
6000
7080
3FC0
1F00
ENDCHAR
STARTCHAR edieresis.ss01
ENCODING -1
SWIDTH 508 0
DWIDTH 11 0
BBX 9 14 1 0
BITMAP
6300
6300
0000
1E00
7F00
6180
C180
C300
FF00
F800
C000
E100
7F80
3E00
ENDCHAR
STARTCHAR edotaccent.ss01
ENCODING -1
SWIDTH 508 0
DWIDTH 11 0
BBX 9 15 1 0
BITMAP
0C00
0C00
0000
0000
1E00
7F00
6180
C180
C300
FF00
F800
C000
E100
7F80
3E00
ENDCHAR
STARTCHAR uni1EB9.ss01
ENCODING -1
SWIDTH 508 0
DWIDTH 11 0
BBX 9 14 1 -3
BITMAP
1E00
7F00
6180
C180
C300
FF00
F800
C000
E100
7F80
3E00
0000
0C00
0C00
ENDCHAR
STARTCHAR egrave.ss01
ENCODING -1
SWIDTH 508 0
DWIDTH 11 0
BBX 9 16 1 0
BITMAP
2000
7000
1800
0C00
0800
1E00
7F00
6180
C180
C300
FF00
F800
C000
E100
7F80
3E00
ENDCHAR
STARTCHAR uni1EBB.ss01
ENCODING -1
SWIDTH 508 0
DWIDTH 11 0
BBX 9 17 1 0
BITMAP
0800
1C00
1600
0600
0C00
1000
1E00
7F00
6180
C180
C300
FF00
F800
C000
E100
7F80
3E00
ENDCHAR
STARTCHAR uni0207.ss01
ENCODING -1
SWIDTH 508 0
DWIDTH 11 0
BBX 9 16 1 0
BITMAP
0C00
3E00
3300
2300
0000
1E00
7F00
6180
C180
C300
FF00
F800
C000
E100
7F80
3E00
ENDCHAR
STARTCHAR emacron.ss01
ENCODING -1
SWIDTH 508 0
DWIDTH 11 0
BBX 9 14 1 0
BITMAP
7F00
7F00
0000
1E00
7F00
6180
C180
C300
FF00
F800
C000
E100
7F80
3E00
ENDCHAR
STARTCHAR eogonek.ss01
ENCODING -1
SWIDTH 508 0
DWIDTH 11 0
BBX 10 14 1 -3
BITMAP
1E00
7F00
6180
C180
C300
FF00
F800
C000
E100
7F80
3F00
0200
0780
03C0
ENDCHAR
STARTCHAR uni1EBD.ss01
ENCODING -1
SWIDTH 508 0
DWIDTH 11 0
BBX 9 14 1 0
BITMAP
3F00
7F00
0000
1E00
7F00
6180
C180
C300
FF00
F800
C000
E100
7F80
3E00
ENDCHAR
STARTCHAR f.ss01
ENCODING -1
SWIDTH 401 0
DWIDTH 8 0
BBX 6 21 2 -5
BITMAP
78
FC
C4
84
8C
FC
F8
80
80
80
F0
F0
80
80
80
80
80
80
80
80
80
ENDCHAR
STARTCHAR uni1E1F.ss01
ENCODING -1
SWIDTH 401 0
DWIDTH 8 0
BBX 6 25 2 -5
BITMAP
30
30
00
00
78
FC
C4
84
8C
FC
F8
80
80
80
F0
F0
80
80
80
80
80
80
80
80
80
ENDCHAR
STARTCHAR g.ss01
ENCODING -1
SWIDTH 553 0
DWIDTH 12 0
BBX 9 16 1 -5
BITMAP
1F80
7F80
6180
C180
C180
C180
C180
C180
6380
7F80
1D80
1180
3180
3180
1F00
0E00
ENDCHAR
STARTCHAR uni01F5.ss01
ENCODING -1
SWIDTH 553 0
DWIDTH 12 0
BBX 9 21 1 -5
BITMAP
0300
0700
0600
0C00
0000
1F80
7F80
6180
C180
C180
C180
C180
C180
6380
7F80
1D80
1180
3180
3180
1F00
0E00
ENDCHAR
STARTCHAR gbreve.ss01
ENCODING -1
SWIDTH 553 0
DWIDTH 12 0
BBX 9 20 1 -5
BITMAP
3300
3300
1E00
0000
1F80
7F80
6180
C180
C180
C180
C180
C180
6380
7F80
1D80
1180
3180
3180
1F00
0E00
ENDCHAR
STARTCHAR gcaron.ss01
ENCODING -1
SWIDTH 553 0
DWIDTH 12 0
BBX 9 20 1 -5
BITMAP
7380
1E00
0C00
0000
1F80
7F80
6180
C180
C180
C180
C180
C180
6380
7F80
1D80
1180
3180
3180
1F00
0E00
ENDCHAR
STARTCHAR gcircumflex.ss01
ENCODING -1
SWIDTH 553 0
DWIDTH 12 0
BBX 9 20 1 -5
BITMAP
0C00
1E00
3300
0000
1F80
7F80
6180
C180
C180
C180
C180
C180
6380
7F80
1D80
1180
3180
3180
1F00
0E00
ENDCHAR
STARTCHAR uni0123.ss01
ENCODING -1
SWIDTH 553 0
DWIDTH 12 0
BBX 9 21 1 -5
BITMAP
0400
0C00
0C00
0C00
0000
1F80
7F80
6180
C180
C180
C180
C180
C180
6380
7F80
1D80
1180
3180
3180
1F00
0E00
ENDCHAR
STARTCHAR gdotaccent.ss01
ENCODING -1
SWIDTH 553 0
DWIDTH 12 0
BBX 9 20 1 -5
BITMAP
0C00
0C00
0000
0000
1F80
7F80
6180
C180
C180
C180
C180
C180
6380
7F80
1D80
1180
3180
3180
1F00
0E00
ENDCHAR
STARTCHAR uni1E21.ss01
ENCODING -1
SWIDTH 553 0
DWIDTH 12 0
BBX 9 19 1 -5
BITMAP
7F80
7F80
0000
1F80
7F80
6180
C180
C180
C180
C180
C180
6380
7F80
1D80
1180
3180
3180
1F00
0E00
ENDCHAR
STARTCHAR h.ss01
ENCODING -1
SWIDTH 601 0
DWIDTH 13 0
BBX 10 15 2 0
BITMAP
8000
8000
8000
8000
BE00
FF00
C300
8300
8300
8300
8300
8300
8300
83C0
81C0
ENDCHAR
STARTCHAR hbar.ss01
ENCODING -1
SWIDTH 601 0
DWIDTH 13 0
BBX 12 15 0 0
BITMAP
2000
FE00
FE00
2000
2F80
3FC0
30C0
20C0
20C0
20C0
20C0
20C0
20C0
20F0
2070
ENDCHAR
STARTCHAR uni1E2B.ss01
ENCODING -1
SWIDTH 601 0
DWIDTH 13 0
BBX 10 20 2 -5
BITMAP
8000
8000
8000
8000
BE00
FF00
C300
8300
8300
8300
8300
8300
8300
83C0
81C0
0000
0000
6200
6600
3E00
ENDCHAR
STARTCHAR uni021F.ss01
ENCODING -1
SWIDTH 601 0
DWIDTH 13 0
BBX 13 20 -1 0
BITMAP
C600
6C00
3800
0000
0000
1000
1000
1000
1000
17C0
1FE0
1860
1060
1060
1060
1060
1060
1060
1078
1038
ENDCHAR
STARTCHAR hcircumflex.ss01
ENCODING -1
SWIDTH 601 0
DWIDTH 13 0
BBX 13 20 -1 0
BITMAP
1000
3800
E600
0000
0000
1000
1000
1000
1000
17C0
1FE0
1860
1060
1060
1060
1060
1060
1060
1078
1038
ENDCHAR
STARTCHAR uni1E25.ss01
ENCODING -1
SWIDTH 601 0
DWIDTH 13 0
BBX 10 18 2 -3
BITMAP
8000
8000
8000
8000
BE00
FF00
C300
8300
8300
8300
8300
8300
8300
83C0
81C0
0000
1C00
1800
ENDCHAR
STARTCHAR i.ss01
ENCODING -1
SWIDTH 274 0
DWIDTH 6 0
BBX 5 15 1 0
BITMAP
C0
C0
00
00
40
40
40
40
40
40
40
40
40
78
70
ENDCHAR
STARTCHAR dotlessi.ss01
ENCODING -1
SWIDTH 236 0
DWIDTH 5 0
BBX 1 11 2 0
BITMAP
80
80
80
80
80
80
80
80
80
80
80
ENDCHAR
STARTCHAR iacute.ss01
ENCODING -1
SWIDTH 236 0
DWIDTH 5 0
BBX 3 17 2 0
BITMAP
40
60
60
C0
80
00
80
80
80
80
80
80
80
80
80
80
80
ENDCHAR
STARTCHAR ibreve.ss01
ENCODING -1
SWIDTH 236 0
DWIDTH 5 0
BBX 5 15 0 0
BITMAP
98
D8
F0
00
20
20
20
20
20
20
20
20
20
20
20
ENDCHAR
STARTCHAR uni01D0.ss01
ENCODING -1
SWIDTH 236 0
DWIDTH 5 0
BBX 5 15 0 0
BITMAP
D8
50
60
00
20
20
20
20
20
20
20
20
20
20
20
ENDCHAR
STARTCHAR icircumflex.ss01
ENCODING -1
SWIDTH 236 0
DWIDTH 5 0
BBX 5 15 0 0
BITMAP
60
50
D8
00
20
20
20
20
20
20
20
20
20
20
20
ENDCHAR
STARTCHAR uni0209.ss01
ENCODING -1
SWIDTH 236 0
DWIDTH 5 0
BBX 8 16 -3 0
BITMAP
88
CC
66
33
11
04
04
04
04
04
04
04
04
04
04
04
ENDCHAR
STARTCHAR idieresis.ss01
ENCODING -1
SWIDTH 236 0
DWIDTH 5 0
BBX 7 14 -1 0
BITMAP
EE
C4
00
10
10
10
10
10
10
10
10
10
10
10
ENDCHAR
STARTCHAR uni1E2F.ss01
ENCODING -1
SWIDTH 236 0
DWIDTH 5 0
BBX 7 20 -1 0
BITMAP
08
0C
0C
18
10
00
EE
C4
00
10
10
10
10
10
10
10
10
10
10
10
ENDCHAR
STARTCHAR i.loclTRK
ENCODING -1
SWIDTH 274 0
DWIDTH 6 0
BBX 5 15 1 0
BITMAP
C0
C0
00
00
40
40
40
40
40
40
40
40
40
78
70
ENDCHAR
STARTCHAR i.loclTRK.ss01
ENCODING -1
SWIDTH 236 0
DWIDTH 5 0
BBX 3 15 1 0
BITMAP
E0
40
00
00
40
40
40
40
40
40
40
40
40
40
40
ENDCHAR
STARTCHAR uni1ECB.ss01
ENCODING -1
SWIDTH 274 0
DWIDTH 6 0
BBX 5 18 1 -3
BITMAP
C0
C0
00
00
40
40
40
40
40
40
40
40
40
78
70
00
E0
40
ENDCHAR
STARTCHAR igrave.ss01
ENCODING -1
SWIDTH 236 0
DWIDTH 5 0
BBX 3 16 0 0
BITMAP
C0
C0
60
20
00
20
20
20
20
20
20
20
20
20
20
20
ENDCHAR
STARTCHAR uni1EC9.ss01
ENCODING -1
SWIDTH 236 0
DWIDTH 5 0
BBX 4 17 1 0
BITMAP
40
E0
B0
20
60
00
40
40
40
40
40
40
40
40
40
40
40
ENDCHAR
STARTCHAR uni020B.ss01
ENCODING -1
SWIDTH 236 0
DWIDTH 5 0
BBX 5 15 0 0
BITMAP
70
F8
D8
D8
20
20
20
20
20
20
20
20
20
20
20
ENDCHAR
STARTCHAR ij.ss01
ENCODING -1
SWIDTH 511 0
DWIDTH 11 0
BBX 8 20 1 -5
BITMAP
C3
C3
00
00
43
43
43
43
43
43
43
43
43
7B
73
03
03
03
0F
0E
ENDCHAR
STARTCHAR imacron.ss01
ENCODING -1
SWIDTH 236 0
DWIDTH 5 0
BBX 5 14 0 0
BITMAP
F8
F8
00
20
20
20
20
20
20
20
20
20
20
20
ENDCHAR
STARTCHAR iogonek.ss01
ENCODING -1
SWIDTH 236 0
DWIDTH 5 0
BBX 4 19 0 -4
BITMAP
20
70
00
00
20
20
20
20
20
20
20
20
20
20
60
C0
C0
F0
F0
ENDCHAR
STARTCHAR uni0268.ss01
ENCODING -1
SWIDTH 236 0
DWIDTH 5 0
BBX 6 15 0 0
BITMAP
20
70
00
00
20
20
20
20
FC
FC
20
20
20
20
20
ENDCHAR
STARTCHAR itilde.ss01
ENCODING -1
SWIDTH 236 0
DWIDTH 5 0
BBX 7 15 -1 0
BITMAP
7E
FC
00
00
10
10
10
10
10
10
10
10
10
10
10
ENDCHAR
STARTCHAR uni006A0301
ENCODING -1
SWIDTH 237 0
DWIDTH 5 0
BBX 6 22 -1 -5
BITMAP
08
0C
0C
18
10
00
10
10
10
10
10
10
10
10
10
10
10
10
10
10
F0
70
ENDCHAR
STARTCHAR k.ss01
ENCODING -1
SWIDTH 564 0
DWIDTH 12 0
BBX 10 15 2 0
BITMAP
8000
8000
8000
8000
9C00
FE00
C300
C300
8600
FE00
FC00
8600
8600
8380
81C0
ENDCHAR
STARTCHAR k.swsh
ENCODING -1
SWIDTH 588 0
DWIDTH 12 0
BBX 10 15 2 0
BITMAP
8000
8000
8000
8000
9C00
FE00
C300
C300
8300
FE00
FC00
8600
8600
83C0
8180
ENDCHAR
STARTCHAR uni01E9.ss01
ENCODING -1
SWIDTH 564 0
DWIDTH 12 0
BBX 13 20 -1 0
BITMAP
C600
6C00
3800
0000
0000
1000
1000
1000
1000
1380
1FC0
1860
1860
10C0
1FC0
1F80
10C0
10C0
1070
1038
ENDCHAR
STARTCHAR uni0137.ss01
ENCODING -1
SWIDTH 564 0
DWIDTH 12 0
BBX 10 21 2 -6
BITMAP
8000
8000
8000
8000
9C00
FE00
C300
C300
8600
FE00
FC00
8600
8600
8380
81C0
0000
0000
0C00
0800
0800
1800
ENDCHAR
STARTCHAR l.ss01
ENCODING -1
SWIDTH 274 0
DWIDTH 6 0
BBX 4 15 2 0
BITMAP
80
80
80
80
80
80
80
80
80
80
80
80
80
F0
E0
ENDCHAR
STARTCHAR lacute.ss01
ENCODING -1
SWIDTH 274 0
DWIDTH 6 0
BBX 4 20 2 0
BITMAP
10
70
C0
80
00
80
80
80
80
80
80
80
80
80
80
80
80
80
F0
E0
ENDCHAR
STARTCHAR lcaron.ss01
ENCODING -1
SWIDTH 274 0
DWIDTH 6 0
BBX 7 17 2 0
BITMAP
04
06
8C
88
98
80
80
80
80
80
80
80
80
80
80
F0
E0
ENDCHAR
STARTCHAR uni013C.ss01
ENCODING -1
SWIDTH 274 0
DWIDTH 6 0
BBX 5 21 1 -6
BITMAP
40
40
40
40
40
40
40
40
40
40
40
40
40
78
70
00
00
60
40
C0
C0
ENDCHAR
STARTCHAR ldot.ss01
ENCODING -1
SWIDTH 274 0
DWIDTH 6 0
BBX 6 15 2 0
BITMAP
80
80
80
80
98
9C
98
80
80
80
80
80
80
F0
E0
ENDCHAR
STARTCHAR uni1E37.ss01
ENCODING -1
SWIDTH 274 0
DWIDTH 6 0
BBX 5 18 1 -3
BITMAP
40
40
40
40
40
40
40
40
40
40
40
40
40
78
70
00
E0
60
ENDCHAR
STARTCHAR uni01C9.ss01
ENCODING -1
SWIDTH 511 0
DWIDTH 11 0
BBX 7 20 2 -5
BITMAP
86
86
80
80
86
86
86
86
86
86
86
86
86
F6
E6
06
06
06
1E
1C
ENDCHAR
STARTCHAR uni1E3B.ss01
ENCODING -1
SWIDTH 274 0
DWIDTH 6 0
BBX 7 18 -1 -3
BITMAP
10
10
10
10
10
10
10
10
10
10
10
10
10
1E
1C
00
FE
FE
ENDCHAR
STARTCHAR lslash.ss01
ENCODING -1
SWIDTH 266 0
DWIDTH 6 0
BBX 5 15 1 0
BITMAP
60
60
60
60
70
70
E0
E0
60
60
60
60
60
78
30
ENDCHAR
STARTCHAR m.ss01
ENCODING -1
SWIDTH 868 0
DWIDTH 18 0
BBX 17 11 1 0
BITMAP
DE7800
FFFC00
618600
418600
418600
418600
418600
418600
418600
418700
418380
ENDCHAR
STARTCHAR uni1E41.ss01
ENCODING -1
SWIDTH 868 0
DWIDTH 18 0
BBX 17 15 1 0
BITMAP
018000
018000
000000
000000
DE7800
FFFC00
618600
418600
418600
418600
418600
418600
418600
418700
418380
ENDCHAR
STARTCHAR uni1E43.ss01
ENCODING -1
SWIDTH 868 0
DWIDTH 18 0
BBX 17 14 1 -3
BITMAP
DE7800
FFFC00
618600
418600
418600
418600
418600
418600
418600
418700
418380
000000
018000
018000
ENDCHAR
STARTCHAR n.ss01
ENCODING -1
SWIDTH 605 0
DWIDTH 13 0
BBX 11 11 1 0
BITMAP
CF00
FF80
6180
4180
4180
4180
4180
4180
4180
40E0
40E0
ENDCHAR
STARTCHAR nacute.ss01
ENCODING -1
SWIDTH 605 0
DWIDTH 13 0
BBX 11 16 1 0
BITMAP
0300
0300
0600
0C00
0000
CF00
FF80
6180
4180
4180
4180
4180
4180
4180
40E0
40E0
ENDCHAR
STARTCHAR ncaron.ss01
ENCODING -1
SWIDTH 605 0
DWIDTH 13 0
BBX 11 15 1 0
BITMAP
3380
1E00
0C00
0000
CF00
FF80
6180
4180
4180
4180
4180
4180
4180
40E0
40E0
ENDCHAR
STARTCHAR uni0146.ss01
ENCODING -1
SWIDTH 605 0
DWIDTH 13 0
BBX 11 17 1 -6
BITMAP
CF00
FF80
6180
4180
4180
4180
4180
4180
4180
40E0
40E0
0000
0000
0C00
0C00
0C00
0800
ENDCHAR
STARTCHAR uni1E45.ss01
ENCODING -1
SWIDTH 605 0
DWIDTH 13 0
BBX 11 15 1 0
BITMAP
0C00
0C00
0000
0000
CF00
FF80
6180
4180
4180
4180
4180
4180
4180
40E0
40E0
ENDCHAR
STARTCHAR uni01F9.ss01
ENCODING -1
SWIDTH 605 0
DWIDTH 13 0
BBX 11 16 1 0
BITMAP
1000
3000
1800
0C00
0400
CF00
FF80
6180
4180
4180
4180
4180
4180
4180
40E0
40E0
ENDCHAR
STARTCHAR uni0272.ss01
ENCODING -1
SWIDTH 554 0
DWIDTH 12 0
BBX 13 15 -1 -4
BITMAP
33C0
3FE0
1860
1060
1060
1060
1060
1060
1060
1038
1038
1000
1000
F000
7000
ENDCHAR
STARTCHAR uni01CC.ss01
ENCODING -1
SWIDTH 842 0
DWIDTH 18 0
BBX 15 20 1 -5
BITMAP
0006
0006
0000
0000
CF06
FF86
6186
4186
4186
4186
4186
4186
4186
40E6
40E6
0006
0006
0006
001E
001C
ENDCHAR
STARTCHAR uni1E49.ss01
ENCODING -1
SWIDTH 605 0
DWIDTH 13 0
BBX 11 14 1 -3
BITMAP
CF00
FF80
6180
4180
4180
4180
4180
4180
4180
40E0
40E0
0000
3F80
3F80
ENDCHAR
STARTCHAR ntilde.ss01
ENCODING -1
SWIDTH 605 0
DWIDTH 13 0
BBX 11 14 1 0
BITMAP
3F00
3F80
0000
CF00
FF80
6180
4180
4180
4180
4180
4180
4180
40E0
40E0
ENDCHAR
STARTCHAR oe.ss01
ENCODING -1
SWIDTH 917 0
DWIDTH 19 0
BBX 18 11 1 0
BITMAP
1E1E00
7FBF80
60E180
C0E180
C04180
C07F00
C07C00
C0E000
60E080
7FBFC0
1E1F00
ENDCHAR
STARTCHAR t.ss01
ENCODING -1
SWIDTH 371 0
DWIDTH 8 0
BBX 6 14 1 0
BITMAP
C0
C0
C0
F8
F8
C0
C0
C0
C0
C0
C0
C4
7C
38
ENDCHAR
STARTCHAR tbar.ss01
ENCODING -1
SWIDTH 371 0
DWIDTH 8 0
BBX 7 14 0 0
BITMAP
60
60
60
7C
7C
60
FE
FE
60
60
60
62
3E
1C
ENDCHAR
STARTCHAR tcaron.ss01
ENCODING -1
SWIDTH 371 0
DWIDTH 8 0
BBX 10 17 1 0
BITMAP
0100
00C0
0180
C100
C300
C000
F800
F800
C000
C000
C000
C000
C000
C000
C400
7C00
3800
ENDCHAR
STARTCHAR uni0163.ss01
ENCODING -1
SWIDTH 371 0
DWIDTH 8 0
BBX 6 18 1 -4
BITMAP
C0
C0
C0
F8
F8
C0
C0
C0
C0
C0
C0
44
7C
30
38
0C
18
18
ENDCHAR
STARTCHAR uni021B.ss01
ENCODING -1
SWIDTH 371 0
DWIDTH 8 0
BBX 6 20 1 -6
BITMAP
C0
C0
C0
F8
F8
C0
C0
C0
C0
C0
C0
C4
7C
38
00
00
18
30
30
20
ENDCHAR
STARTCHAR uni1E97.ss01
ENCODING -1
SWIDTH 371 0
DWIDTH 8 0
BBX 8 17 -1 0
BITMAP
CC
CC
00
30
30
30
3E
3E
30
30
30
30
30
30
31
1F
0E
ENDCHAR
STARTCHAR uni1E6B.ss01
ENCODING -1
SWIDTH 371 0
DWIDTH 8 0
BBX 6 18 1 0
BITMAP
C0
C0
00
00
C0
C0
C0
F8
F8
C0
C0
C0
C0
C0
C0
C4
7C
38
ENDCHAR
STARTCHAR uni1E6D.ss01
ENCODING -1
SWIDTH 371 0
DWIDTH 8 0
BBX 6 17 1 -3
BITMAP
C0
C0
C0
F8
F8
C0
C0
C0
C0
C0
C0
C4
7C
38
00
38
10
ENDCHAR
STARTCHAR uni1E6F.ss01
ENCODING -1
SWIDTH 371 0
DWIDTH 8 0
BBX 7 17 1 -3
BITMAP
C0
C0
C0
F8
F8
C0
C0
C0
C0
C0
C0
C4
7C
38
00
FE
FE
ENDCHAR
STARTCHAR u.ss01
ENCODING -1
SWIDTH 600 0
DWIDTH 13 0
BBX 11 11 1 0
BITMAP
C180
C180
4180
4180
4180
4180
4180
4180
6380
7FE0
3CE0
ENDCHAR
STARTCHAR uacute.ss01
ENCODING -1
SWIDTH 600 0
DWIDTH 13 0
BBX 11 16 1 0
BITMAP
0300
0600
0C00
0800
0000
C180
C180
4180
4180
4180
4180
4180
4180
6380
7FE0
3CE0
ENDCHAR
STARTCHAR uni0289.ss01
ENCODING -1
SWIDTH 600 0
DWIDTH 13 0
BBX 11 11 1 0
BITMAP
C180
C180
4180
4180
FFC0
FFC0
4180
4180
6180
7FE0
3CE0
ENDCHAR
STARTCHAR ubreve.ss01
ENCODING -1
SWIDTH 600 0
DWIDTH 13 0
BBX 11 15 1 0
BITMAP
6300
3200
3E00
0000
C180
C180
4180
4180
4180
4180
4180
4180
6380
7FE0
3CE0
ENDCHAR
STARTCHAR uni01D4.ss01
ENCODING -1
SWIDTH 600 0
DWIDTH 13 0
BBX 11 15 1 0
BITMAP
7300
3600
1C00
0000
C180
C180
4180
4180
4180
4180
4180
4180
6380
7FE0
3CE0
ENDCHAR
STARTCHAR ucircumflex.ss01
ENCODING -1
SWIDTH 600 0
DWIDTH 13 0
BBX 11 15 1 0
BITMAP
0C00
1E00
7700
0000
C180
C180
4180
4180
4180
4180
4180
4180
6380
7FE0
3CE0
ENDCHAR
STARTCHAR uni0215.ss01
ENCODING -1
SWIDTH 600 0
DWIDTH 13 0
BBX 12 16 0 0
BITMAP
8800
CC00
6600
3300
1100
60C0
60C0
20C0
20C0
20C0
20C0
20C0
20C0
31C0
3FF0
1E70
ENDCHAR
STARTCHAR udieresis.ss01
ENCODING -1
SWIDTH 600 0
DWIDTH 13 0
BBX 11 14 1 0
BITMAP
6300
6300
0000
C180
C180
4180
4180
4180
4180
4180
4180
6380
7FE0
3CE0
ENDCHAR
STARTCHAR uni01D8.ss01
ENCODING -1
SWIDTH 600 0
DWIDTH 13 0
BBX 11 19 1 0
BITMAP
0300
0600
0C00
0800
0000
6300
6300
0000
C180
C180
4180
4180
4180
4180
4180
4180
6380
7FE0
3CE0
ENDCHAR
STARTCHAR uni01DA.ss01
ENCODING -1
SWIDTH 600 0
DWIDTH 13 0
BBX 11 19 1 0
BITMAP
6300
3600
1C00
0000
0000
6300
6300
0000
C180
C180
4180
4180
4180
4180
4180
4180
6380
7FE0
3CE0
ENDCHAR
STARTCHAR uni01DC.ss01
ENCODING -1
SWIDTH 600 0
DWIDTH 13 0
BBX 11 19 1 0
BITMAP
2000
7000
3800
0800
0800
6300
6300
0000
C180
C180
4180
4180
4180
4180
4180
4180
6380
7FE0
3CE0
ENDCHAR
STARTCHAR uni01D6.ss01
ENCODING -1
SWIDTH 600 0
DWIDTH 13 0
BBX 11 17 1 0
BITMAP
7F00
7F00
0000
6300
6300
0000
C180
C180
4180
4180
4180
4180
4180
4180
6380
7FE0
3CE0
ENDCHAR
STARTCHAR uni1EE5.ss01
ENCODING -1
SWIDTH 600 0
DWIDTH 13 0
BBX 11 14 1 -3
BITMAP
C180
C180
4180
4180
4180
4180
4180
4180
6380
7FE0
3CE0
0000
0C00
0C00
ENDCHAR
STARTCHAR ugrave.ss01
ENCODING -1
SWIDTH 600 0
DWIDTH 13 0
BBX 11 16 1 0
BITMAP
2000
7000
3800
0800
0800
C180
C180
4180
4180
4180
4180
4180
4180
6380
7FE0
3CE0
ENDCHAR
STARTCHAR uni1EE7.ss01
ENCODING -1
SWIDTH 600 0
DWIDTH 13 0
BBX 11 17 1 0
BITMAP
0800
3C00
1600
0400
0C00
1000
C180
C180
4180
4180
4180
4180
4180
4180
6380
7FE0
3CE0
ENDCHAR
STARTCHAR uhorn.ss01
ENCODING -1
SWIDTH 600 0
DWIDTH 13 0
BBX 12 14 1 0
BITMAP
0010
0030
0030
C1E0
C1C0
4180
4180
4180
4180
4180
4180
6380
7FE0
3CE0
ENDCHAR
STARTCHAR uni1EE9.ss01
ENCODING -1
SWIDTH 600 0
DWIDTH 13 0
BBX 12 16 1 0
BITMAP
0300
0600
0C10
1830
0030
C1E0
C1C0
4180
4180
4180
4180
4180
4180
6380
7FE0
3CE0
ENDCHAR
STARTCHAR uni1EF1.ss01
ENCODING -1
SWIDTH 600 0
DWIDTH 13 0
BBX 12 17 1 -3
BITMAP
0010
0030
0030
C1E0
C1C0
4180
4180
4180
4180
4180
4180
6380
7FE0
3CE0
0000
1C00
0800
ENDCHAR
STARTCHAR uni1EEB.ss01
ENCODING -1
SWIDTH 600 0
DWIDTH 13 0
BBX 12 16 1 0
BITMAP
2000
7000
3010
1830
0830
C1E0
C1C0
4180
4180
4180
4180
4180
4180
6380
7FE0
3CE0
ENDCHAR
STARTCHAR uni1EED.ss01
ENCODING -1
SWIDTH 600 0
DWIDTH 13 0
BBX 12 17 1 0
BITMAP
0800
3C00
1600
0410
0C30
1030
C1E0
C1C0
4180
4180
4180
4180
4180
4180
6380
7FE0
3CE0
ENDCHAR
STARTCHAR uni1EEF.ss01
ENCODING -1
SWIDTH 600 0
DWIDTH 13 0
BBX 12 14 1 0
BITMAP
3F10
7E30
0030
C1E0
C1C0
4180
4180
4180
4180
4180
4180
6380
7FE0
3CE0
ENDCHAR
STARTCHAR uhungarumlaut.ss01
ENCODING -1
SWIDTH 600 0
DWIDTH 13 0
BBX 11 16 1 0
BITMAP
0CC0
1DC0
1980
3300
0000
C180
C180
4180
4180
4180
4180
4180
4180
6380
7FE0
3CE0
ENDCHAR
STARTCHAR uni0217.ss01
ENCODING -1
SWIDTH 600 0
DWIDTH 13 0
BBX 11 16 1 0
BITMAP
0800
3E00
3300
2300
0000
C180
C180
4180
4180
4180
4180
4180
4180
6380
7FE0
3CE0
ENDCHAR
STARTCHAR umacron.ss01
ENCODING -1
SWIDTH 600 0
DWIDTH 13 0
BBX 11 14 1 0
BITMAP
7F00
7F00
0000
C180
C180
4180
4180
4180
4180
4180
4180
6380
7FE0
3CE0
ENDCHAR
STARTCHAR uogonek.ss01
ENCODING -1
SWIDTH 600 0
DWIDTH 13 0
BBX 12 15 1 -4
BITMAP
C180
C180
4180
4180
4180
4180
4180
4180
6380
7FE0
3CE0
00C0
0180
00E0
00F0
ENDCHAR
STARTCHAR uring.ss01
ENCODING -1
SWIDTH 600 0
DWIDTH 13 0
BBX 11 17 1 0
BITMAP
1C00
1E00
3200
1E00
1C00
0000
C180
C180
4180
4180
4180
4180
4180
4180
6380
7FE0
3CE0
ENDCHAR
STARTCHAR utilde.ss01
ENCODING -1
SWIDTH 600 0
DWIDTH 13 0
BBX 11 14 1 0
BITMAP
3F00
7F00
0000
C180
C180
4180
4180
4180
4180
4180
4180
6380
7FE0
3CE0
ENDCHAR
STARTCHAR uni1E79.ss01
ENCODING -1
SWIDTH 600 0
DWIDTH 13 0
BBX 11 19 1 0
BITMAP
0300
0600
0C00
0800
0000
3F00
7F00
0000
C180
C180
4180
4180
4180
4180
4180
4180
6380
7FE0
3CE0
ENDCHAR
STARTCHAR x.ss01
ENCODING -1
SWIDTH 519 0
DWIDTH 11 0
BBX 11 11 0 0
BITMAP
E180
6300
3300
1E00
1E00
0C00
1E00
1600
3300
61C0
E1E0
ENDCHAR
STARTCHAR x.swsh
ENCODING -1
SWIDTH 536 0
DWIDTH 11 0
BBX 11 11 0 0
BITMAP
E180
6300
3300
1E00
1E00
0C00
1E00
1E00
3300
61E0
61C0
ENDCHAR
STARTCHAR y.ss01
ENCODING -1
SWIDTH 558 0
DWIDTH 12 0
BBX 9 16 1 -5
BITMAP
C180
C180
4180
4180
4180
4180
4180
4180
6380
3F80
1D80
1180
3180
1180
1F80
0F00
ENDCHAR
STARTCHAR yacute.ss01
ENCODING -1
SWIDTH 558 0
DWIDTH 12 0
BBX 9 21 1 -5
BITMAP
0300
0600
0C00
0800
0000
C180
C180
4180
4180
4180
4180
4180
4180
6380
3F80
1D80
1180
3180
1180
1F80
0F00
ENDCHAR
STARTCHAR ycircumflex.ss01
ENCODING -1
SWIDTH 558 0
DWIDTH 12 0
BBX 9 20 1 -5
BITMAP
0C00
1E00
7300
0000
C180
C180
4180
4180
4180
4180
4180
4180
6380
3F80
1D80
1180
3180
1180
1F80
0F00
ENDCHAR
STARTCHAR ydieresis.ss01
ENCODING -1
SWIDTH 558 0
DWIDTH 12 0
BBX 9 19 1 -5
BITMAP
7300
6300
0000
C180
C180
4180
4180
4180
4180
4180
4180
6380
3F80
1D80
1180
3180
1180
1F80
0F00
ENDCHAR
STARTCHAR uni1EF5.ss01
ENCODING -1
SWIDTH 558 0
DWIDTH 12 0
BBX 12 16 1 -5
BITMAP
C180
C180
4180
4180
4180
4180
4180
4180
6380
3F80
1D80
1180
31B0
11B0
1F80
0F00
ENDCHAR
STARTCHAR ygrave.ss01
ENCODING -1
SWIDTH 558 0
DWIDTH 12 0
BBX 9 21 1 -5
BITMAP
2000
7000
1800
0C00
0800
C180
C180
4180
4180
4180
4180
4180
4180
6380
3F80
1D80
1180
3180
1180
1F80
0F00
ENDCHAR
STARTCHAR uni1EF7.ss01
ENCODING -1
SWIDTH 558 0
DWIDTH 12 0
BBX 9 22 1 -5
BITMAP
0800
1E00
1600
0600
0C00
1000
C180
C180
4180
4180
4180
4180
4180
4180
6380
3F80
1D80
1180
3180
1180
1F80
0F00
ENDCHAR
STARTCHAR uni0233.ss01
ENCODING -1
SWIDTH 558 0
DWIDTH 12 0
BBX 9 19 1 -5
BITMAP
7F00
7F00
0000
C180
C180
4180
4180
4180
4180
4180
4180
6380
3F80
1D80
1180
3180
1180
1F80
0F00
ENDCHAR
STARTCHAR uni1EF9.ss01
ENCODING -1
SWIDTH 558 0
DWIDTH 12 0
BBX 9 19 1 -5
BITMAP
3F00
7F00
0000
C180
C180
4180
4180
4180
4180
4180
4180
6380
3F80
1D80
1180
3180
1180
1F80
0F00
ENDCHAR
STARTCHAR z.ss01
ENCODING -1
SWIDTH 489 0
DWIDTH 10 0
BBX 10 11 0 0
BITMAP
7F80
7F00
0300
0600
0C00
0C00
1800
3000
3000
7FC0
CF80
ENDCHAR
STARTCHAR zacute.ss01
ENCODING -1
SWIDTH 489 0
DWIDTH 10 0
BBX 10 16 0 0
BITMAP
0100
0300
0600
0C00
0000
7F80
7F00
0300
0600
0C00
0C00
1800
3000
3000
7FC0
CF80
ENDCHAR
STARTCHAR zcaron.ss01
ENCODING -1
SWIDTH 489 0
DWIDTH 10 0
BBX 10 15 0 0
BITMAP
3380
1E00
0C00
0000
7F80
7F00
0300
0600
0C00
0C00
1800
3000
3000
7FC0
CF80
ENDCHAR
STARTCHAR zdotaccent.ss01
ENCODING -1
SWIDTH 489 0
DWIDTH 10 0
BBX 10 15 0 0
BITMAP
0C00
0C00
0000
0000
7F80
7F00
0300
0600
0C00
0C00
1800
3000
3000
7FC0
CF80
ENDCHAR
STARTCHAR uni1E93.ss01
ENCODING -1
SWIDTH 489 0
DWIDTH 10 0
BBX 10 14 0 -3
BITMAP
7F80
7F00
0300
0600
0C00
0C00
1800
3000
3000
7FC0
CF80
0000
0C00
0C00
ENDCHAR
STARTCHAR f_f
ENCODING -1
SWIDTH 725 0
DWIDTH 15 0
BBX 12 20 2 -5
BITMAP
3DE0
7FF0
6230
C630
C630
C7E0
C7C0
C600
C600
FFC0
FFC0
C600
C600
C600
C600
C600
C600
C600
C600
C600
ENDCHAR
STARTCHAR f_f_i
ENCODING -1
SWIDTH 784 0
DWIDTH 16 0
BBX 14 20 2 -5
BITMAP
79C0
FFE0
C640
8600
8400
FFF0
FFF0
8430
8430
8430
8430
8430
8430
843C
841C
8400
8400
8400
8400
8400
ENDCHAR
STARTCHAR f_f_l
ENCODING -1
SWIDTH 795 0
DWIDTH 17 0
BBX 14 20 2 -5
BITMAP
79E0
FFF0
C630
8630
8630
8630
8630
8630
8630
FFB0
FFB0
8630
8630
861C
861C
8600
8600
8600
8600
8600
ENDCHAR
STARTCHAR longs_t
ENCODING -1
SWIDTH 588 0
DWIDTH 12 0
BBX 10 19 2 -4
BITMAP
7800
FC00
CC00
8C00
8F80
8F80
8C00
8C00
8C00
8C00
8C00
8C00
8400
8780
83C0
8000
8000
8000
8000
ENDCHAR
STARTCHAR uni0410.ss01
ENCODING -1
SWIDTH 754 0
DWIDTH 16 0
BBX 14 15 1 0
BITMAP
0100
0180
0380
0380
06C0
0640
0460
0C60
0C30
1FF0
1FF0
1818
3018
F00C
E00C
ENDCHAR
STARTCHAR uni0412.ss01
ENCODING -1
SWIDTH 674 0
DWIDTH 14 0
BBX 12 15 1 0
BITMAP
7F80
FFC0
3060
3020
3020
3060
37C0
37C0
3060
3030
3030
3030
3030
3FE0
3F80
ENDCHAR
STARTCHAR uni0415.ss01
ENCODING -1
SWIDTH 651 0
DWIDTH 14 0
BBX 12 15 1 0
BITMAP
7FF0
FFF0
B000
3000
3000
3000
3F80
3F80
3000
3000
3000
3000
3000
3FF0
3FF0
ENDCHAR
STARTCHAR uni0401.ss01
ENCODING -1
SWIDTH 651 0
DWIDTH 14 0
BBX 12 18 1 0
BITMAP
3980
3180
0000
7FF0
FFF0
B000
3000
3000
3000
3F80
3F80
3000
3000
3000
3000
3000
3FF0
3FF0
ENDCHAR
STARTCHAR uni0416.ss01
ENCODING -1
SWIDTH 917 0
DWIDTH 19 0
BBX 17 15 1 0
BITMAP
E08180
608380
308200
308600
308600
188600
1FFC00
1FFC00
388E00
308600
208300
608300
608100
C08180
C08080
ENDCHAR
STARTCHAR uni0418.ss01
ENCODING -1
SWIDTH 783 0
DWIDTH 16 0
BBX 13 15 1 0
BITMAP
E008
F018
3018
3038
3068
30C8
30C8
3188
3308
3608
3608
3C08
3808
3008
2008
ENDCHAR
STARTCHAR uni0419.ss01
ENCODING -1
SWIDTH 783 0
DWIDTH 16 0
BBX 13 19 1 0
BITMAP
0C60
0CC0
07C0
0000
E008
F018
3018
3038
3068
30C8
30C8
3188
3308
3608
3608
3C08
3808
3008
2008
ENDCHAR
STARTCHAR uni041C.ss01
ENCODING -1
SWIDTH 1015 0
DWIDTH 21 0
BBX 19 15 1 0
BITMAP
040180
0E0380
0E0380
0E0380
0B0680
0B06C0
1984C0
198CC0
188CC0
10D840
30D860
305060
307060
F07060
E02020
ENDCHAR
STARTCHAR uni041D.ss01
ENCODING -1
SWIDTH 727 0
DWIDTH 15 0
BBX 13 15 0 0
BITMAP
F008
7008
1008
1008
1008
1008
1FF8
1FF8
1008
1008
1008
1008
1008
1008
1008
ENDCHAR
STARTCHAR uni0420.ss01
ENCODING -1
SWIDTH 623 0
DWIDTH 13 0
BBX 11 15 1 0
BITMAP
7F80
FFC0
B060
3060
3060
3060
3060
30C0
37C0
3600
3000
3000
3000
3000
3000
ENDCHAR
STARTCHAR uni0421.ss01
ENCODING -1
SWIDTH 720 0
DWIDTH 15 0
BBX 13 15 1 0
BITMAP
07C0
1FE0
3030
6010
60F0
C020
C000
C000
C000
C000
6000
6008
3018
1FF0
07C0
ENDCHAR
STARTCHAR uni0422.ss01
ENCODING -1
SWIDTH 613 0
DWIDTH 13 0
BBX 11 15 1 0
BITMAP
FFE0
FFE0
0400
0400
0400
0400
0400
0400
0400
0400
0400
0400
0400
0400
0400
ENDCHAR
STARTCHAR uni0423.ss01
ENCODING -1
SWIDTH 682 0
DWIDTH 14 0
BBX 13 15 1 0
BITMAP
E018
E030
3030
3060
1860
08C0
0CC0
0580
0780
0300
0300
0200
0600
3C00
7800
ENDCHAR
STARTCHAR uni0425.ss01
ENCODING -1
SWIDTH 641 0
DWIDTH 13 0
BBX 12 15 1 0
BITMAP
C060
60C0
6180
3180
1B00
1E00
0E00
0C00
1E00
1B00
3300
3180
6180
60E0
C070
ENDCHAR
STARTCHAR uni0427.ss01
ENCODING -1
SWIDTH 704 0
DWIDTH 15 0
BBX 13 15 0 0
BITMAP
F018
7018
1018
1018
1018
1018
1018
1838
1FF8
0798
0018
0018
0018
0018
0018
ENDCHAR
STARTCHAR uni0426.ss01
ENCODING -1
SWIDTH 765 0
DWIDTH 16 0
BBX 15 18 0 -3
BITMAP
F008
7008
1008
1008
1008
1008
1008
1008
1008
1008
1008
1008
1008
1FFE
1FFE
0002
0002
0002
ENDCHAR
STARTCHAR uni0428.ss01
ENCODING -1
SWIDTH 1020 0
DWIDTH 21 0
BBX 19 15 0 0
BITMAP
F03020
703020
103020
103020
103020
103020
103020
103020
103020
103020
103020
103020
103020
1FFFE0
1FFFE0
ENDCHAR
STARTCHAR uni0429.ss01
ENCODING -1
SWIDTH 1020 0
DWIDTH 21 0
BBX 22 18 0 -3
BITMAP
F03020
703020
103020
103020
103020
103020
103020
103020
103020
103020
103020
103020
103020
1FFFFC
1FFFFC
00000C
00000C
00000C
ENDCHAR
STARTCHAR uni042F.ss01
ENCODING -1
SWIDTH 655 0
DWIDTH 14 0
BBX 11 15 1 0
BITMAP
0FE0
1FE0
3060
3060
3060
3060
3060
1F60
0760
0E60
0C60
1860
3060
F060
E060
ENDCHAR
STARTCHAR uni0430.ss01
ENCODING -1
SWIDTH 593 0
DWIDTH 12 0
BBX 11 11 1 0
BITMAP
1F80
7F80
6180
C180
C180
C180
C180
C180
C180
7FE0
3CE0
ENDCHAR
STARTCHAR uni0431.ss01
ENCODING -1
SWIDTH 558 0
DWIDTH 12 0
BBX 10 16 1 0
BITMAP
0180
0F80
3C00
7000
6000
5E00
FF80
E180
C0C0
C0C0
C0C0
C0C0
40C0
6180
3F00
1E00
ENDCHAR
ENDFONT
